<svg width="551" height="126" viewBox="0 0 551 126" fill="none" xmlns="http://www.w3.org/2000/svg">
<path d="M1.48372 64.3057C0.913895 63.2611 0.913896 61.9984 1.48372 60.9538L33.4637 2.32374C34.077 1.19933 35.2556 0.499718 36.5364 0.499718L100.111 0.499717C101.392 0.499717 102.57 1.19932 103.184 2.32374L135.164 60.9538C135.733 61.9984 135.733 63.2611 135.164 64.3057L103.184 122.936C102.57 124.06 101.392 124.76 100.111 124.76L36.5364 124.76C35.2556 124.76 34.077 124.06 33.4637 122.936L1.48372 64.3057Z" fill="#FFC73C"/>
<path d="M1.48372 64.3057C0.913895 63.2611 0.913896 61.9984 1.48372 60.9538L33.4637 2.32374C34.077 1.19933 35.2556 0.499718 36.5364 0.499718L100.111 0.499717C101.392 0.499717 102.57 1.19932 103.184 2.32374L135.164 60.9538C135.733 61.9984 135.733 63.2611 135.164 64.3057L103.184 122.936C102.57 124.06 101.392 124.76 100.111 124.76L36.5364 124.76C35.2556 124.76 34.077 124.06 33.4637 122.936L1.48372 64.3057Z" fill="url(#paint0_linear_704_7723)" fill-opacity="0.1"/>
<path d="M1.48372 64.3057C0.913895 63.2611 0.913896 61.9984 1.48372 60.9538L33.4637 2.32374C34.077 1.19933 35.2556 0.499718 36.5364 0.499718L100.111 0.499717C101.392 0.499717 102.57 1.19932 103.184 2.32374L135.164 60.9538C135.733 61.9984 135.733 63.2611 135.164 64.3057L103.184 122.936C102.57 124.06 101.392 124.76 100.111 124.76L36.5364 124.76C35.2556 124.76 34.077 124.06 33.4637 122.936L1.48372 64.3057Z" stroke="#FFDDA3"/>
<path d="M99.6378 40.193L85.9666 88.2514H77.6636L68.287 59.0923L58.9104 88.2514H50.6075L37.0078 40.193H47.3865L55.26 70.4995L63.0619 45.4578C63.9208 41.7229 65.7341 39.8555 68.5018 39.8555C69.8856 39.8555 70.9354 40.3505 71.6512 41.3404C72.3669 42.2854 73.0111 43.6578 73.5837 45.4578L81.3141 70.4995L89.2591 40.193H99.6378Z" fill="white"/>
<path d="M201.986 85.4043H192.079L189.346 77.0005H173.017L170.352 85.4043H160.445L176.023 40.8572C176.706 39.3086 177.458 38.2382 178.278 37.646C179.143 37.0539 180.191 36.7578 181.421 36.7578C182.651 36.7578 183.63 37.0311 184.359 37.5777C185.133 38.1243 185.816 39.2175 186.408 40.8572L201.986 85.4043ZM187.16 69.0066L181.421 49.7393L175.408 69.0066H187.16Z" fill="#6D6D6D"/>
<path d="M288.531 45.2299H271.382C269.378 45.2299 267.966 45.6171 267.146 46.3914C266.372 47.1658 265.985 48.5095 265.985 50.4225V57.1866H283.817L283.134 65.6587H265.985V85.4043H256.488V46.6647C256.488 43.0664 257.262 40.5156 258.811 39.0125C260.405 37.5094 263.115 36.7578 266.941 36.7578H288.531V45.2299Z" fill="#6D6D6D"/>
<path d="M376.658 45.2299H359.509C357.505 45.2299 356.093 45.6171 355.273 46.3914C354.499 47.1658 354.111 48.5095 354.111 50.4225V57.1866H371.944L371.261 65.6587H354.111V85.4043H344.614V46.6647C344.614 43.0664 345.389 40.5156 346.937 39.0125C348.532 37.5094 351.242 36.7578 355.068 36.7578H376.658V45.2299Z" fill="#6D6D6D"/>
<path d="M462.735 85.4043H448.251C442.785 85.4043 438.822 84.3566 436.362 82.2614C433.948 80.1206 432.741 76.6588 432.741 71.8762V36.7578H442.238V71.8762C442.238 73.7892 442.671 75.1102 443.536 75.839C444.402 76.5677 445.973 76.9321 448.251 76.9321H462.735V85.4043Z" fill="#6D6D6D"/>
<path d="M550.176 85.4043H532.959C527.493 85.4043 523.644 84.4705 521.412 82.603C519.226 80.6899 518.133 77.3421 518.133 72.5594V36.7578H550.176V45.2299H527.63V56.64H543.412L542.729 65.1121H527.63V71.8762C527.63 73.7892 528.062 75.1102 528.928 75.839C529.793 76.5677 531.365 76.9321 533.642 76.9321H550.176V85.4043Z" fill="#6D6D6D"/>
<defs>
<linearGradient id="paint0_linear_704_7723" x1="99.0693" y1="118.143" x2="32.9062" y2="2.27731" gradientUnits="userSpaceOnUse">
<stop stop-color="#FFD386"/>
<stop offset="1" stop-color="white"/>
</linearGradient>
</defs>
</svg>
