<?xml version="1.0" standalone="no"?>
<!DOCTYPE svg PUBLIC "-//W3C//DTD SVG 20010904//EN"
 "http://www.w3.org/TR/2001/REC-SVG-20010904/DTD/svg10.dtd">
<svg version="1.0" xmlns="http://www.w3.org/2000/svg"
 width="512.000000pt" height="512.000000pt" viewBox="0 0 512.000000 512.000000"
 preserveAspectRatio="xMidYMid meet">
<metadata>
Created by potrace 1.14, written by Peter Selinger 2001-2017
</metadata>
<g transform="translate(0.000000,512.000000) scale(0.100000,-0.100000)"
fill="#000000" stroke="none">
<path d="M1437 4889 c-96 -23 -199 -93 -254 -174 -11 -16 -61 -104 -110 -195
-50 -91 -99 -181 -110 -200 -11 -20 -37 -67 -57 -105 -21 -39 -49 -90 -62
-115 -14 -25 -44 -80 -67 -123 -23 -42 -46 -85 -52 -95 -5 -9 -31 -55 -56
-102 -26 -47 -61 -112 -79 -145 -67 -122 -100 -181 -128 -235 -16 -30 -65
-120 -109 -200 -44 -80 -83 -152 -87 -160 -4 -8 -12 -24 -19 -35 -14 -23 -112
-203 -139 -255 -68 -130 -61 -282 19 -429 19 -36 49 -90 64 -118 40 -74 86
-158 122 -223 16 -30 43 -80 60 -110 16 -30 43 -79 58 -107 16 -29 43 -79 60
-110 40 -74 84 -154 120 -220 16 -29 42 -77 58 -105 15 -29 43 -80 61 -113 18
-33 45 -82 60 -110 30 -55 70 -129 119 -217 17 -32 45 -84 62 -115 18 -32 45
-82 60 -110 16 -29 42 -77 58 -105 16 -29 41 -77 57 -107 47 -88 116 -156 202
-198 l76 -38 1115 -3 c1217 -3 1170 -5 1263 54 92 58 134 111 223 279 20 39
41 77 46 85 5 8 42 76 83 150 128 236 148 273 206 380 32 58 71 130 88 160 16
30 41 75 54 100 14 25 45 81 68 125 24 44 52 96 63 115 11 19 36 67 57 105 21
39 49 90 62 115 102 184 195 355 249 457 74 140 77 285 8 418 -28 55 -111 210
-129 240 -10 17 -32 56 -49 88 -17 31 -44 82 -61 112 -16 30 -43 79 -59 108
-15 28 -43 79 -61 112 -18 33 -46 85 -63 115 -16 30 -40 73 -52 95 -12 22 -43
81 -70 130 -27 50 -59 107 -72 127 -13 21 -23 40 -23 43 0 5 -66 127 -261 483
-16 28 -43 78 -60 110 -18 31 -45 82 -62 112 -81 149 -164 221 -292 254 -52
14 -193 16 -1140 15 -596 -1 -1097 -5 -1118 -10z"/>
</g>
</svg>
