<svg width="236" height="236" viewBox="0 0 236 236" fill="none" xmlns="http://www.w3.org/2000/svg">
<g filter="url(#filter0_di_889_11153)">
<rect x="24" y="20" width="176" height="176" rx="16" fill="#FEF2F2"/>
</g>
<path d="M38.072 122H41.816V111.312H51.896V122H55.608V98.448H51.896V108.08H41.816V98.448H38.072V122ZM68.8308 122.448C71.1348 122.448 73.1508 121.68 74.7828 120.592L73.5028 118.224C72.1908 119.056 70.8788 119.536 69.3108 119.536C66.2708 119.536 64.1588 117.552 63.8708 114.192H75.2948C75.3908 113.744 75.4548 113.04 75.4548 112.304C75.4548 107.312 72.9268 103.952 68.2868 103.952C64.1908 103.952 60.2548 107.504 60.2548 113.232C60.2548 119.024 64.0308 122.448 68.8308 122.448ZM63.8068 111.632C64.1908 108.56 66.1428 106.864 68.3508 106.864C70.9108 106.864 72.2548 108.592 72.2548 111.632H63.8068ZM83.2758 122.448C84.2038 122.448 84.7798 122.288 85.2598 122.128L84.7798 119.344C84.4598 119.408 84.3318 119.408 84.1718 119.408C83.7238 119.408 83.3078 119.056 83.3078 118.064V96.528H79.5958V117.872C79.5958 120.72 80.5878 122.448 83.2758 122.448ZM89.127 129.136H92.839V123.44L92.711 120.464C94.183 121.744 95.783 122.448 97.351 122.448C101.319 122.448 104.935 118.96 104.935 112.944C104.935 107.504 102.407 103.952 97.959 103.952C95.975 103.952 94.087 105.04 92.551 106.352H92.455L92.135 104.4H89.127V129.136ZM96.647 119.376C95.559 119.376 94.215 118.96 92.839 117.776V109.168C94.311 107.76 95.623 107.024 96.967 107.024C99.911 107.024 101.127 109.296 101.127 112.976C101.127 117.104 99.175 119.376 96.647 119.376ZM116.791 122H123.127C130.167 122 134.263 117.808 134.263 110.128C134.263 102.448 130.167 98.448 122.935 98.448H116.791V122ZM120.535 118.96V101.456H122.647C127.703 101.456 130.455 104.272 130.455 110.128C130.455 115.984 127.703 118.96 122.647 118.96H120.535ZM146.206 122.448C148.51 122.448 150.526 121.68 152.158 120.592L150.878 118.224C149.566 119.056 148.254 119.536 146.686 119.536C143.646 119.536 141.534 117.552 141.246 114.192H152.67C152.766 113.744 152.83 113.04 152.83 112.304C152.83 107.312 150.302 103.952 145.662 103.952C141.566 103.952 137.63 107.504 137.63 113.232C137.63 119.024 141.406 122.448 146.206 122.448ZM141.182 111.632C141.566 108.56 143.518 106.864 145.726 106.864C148.286 106.864 149.63 108.592 149.63 111.632H141.182ZM161.771 122.448C166.091 122.448 168.427 120.048 168.427 117.072C168.427 113.776 165.739 112.656 163.275 111.728C161.323 111.024 159.627 110.448 159.627 108.944C159.627 107.728 160.523 106.768 162.475 106.768C163.915 106.768 165.163 107.44 166.379 108.304L168.107 106.032C166.699 104.912 164.747 103.952 162.411 103.952C158.475 103.952 156.107 106.16 156.107 109.104C156.107 112.112 158.699 113.36 161.067 114.256C162.955 114.96 164.939 115.696 164.939 117.264C164.939 118.608 163.947 119.632 161.867 119.632C159.947 119.632 158.443 118.832 156.875 117.616L155.147 120.016C156.843 121.424 159.339 122.448 161.771 122.448ZM172.346 122H175.994V117.456L178.906 114.032L183.674 122H187.706L181.082 111.568L187.034 104.4H182.938L176.122 112.912H175.994V96.528H172.346V122Z" fill="#EF4444"/>
<defs>
<filter id="filter0_di_889_11153" x="0" y="0" width="236" height="236" filterUnits="userSpaceOnUse" color-interpolation-filters="sRGB">
<feFlood flood-opacity="0" result="BackgroundImageFix"/>
<feColorMatrix in="SourceAlpha" type="matrix" values="0 0 0 0 0 0 0 0 0 0 0 0 0 0 0 0 0 0 127 0" result="hardAlpha"/>
<feOffset dx="6" dy="10"/>
<feGaussianBlur stdDeviation="15"/>
<feColorMatrix type="matrix" values="0 0 0 0 0.725 0 0 0 0 0.725 0 0 0 0 0.725 0 0 0 0.25 0"/>
<feBlend mode="normal" in2="BackgroundImageFix" result="effect1_dropShadow_889_11153"/>
<feBlend mode="normal" in="SourceGraphic" in2="effect1_dropShadow_889_11153" result="shape"/>
<feColorMatrix in="SourceAlpha" type="matrix" values="0 0 0 0 0 0 0 0 0 0 0 0 0 0 0 0 0 0 127 0" result="hardAlpha"/>
<feOffset dx="8" dy="8"/>
<feGaussianBlur stdDeviation="2"/>
<feComposite in2="hardAlpha" operator="arithmetic" k2="-1" k3="1"/>
<feColorMatrix type="matrix" values="0 0 0 0 1 0 0 0 0 1 0 0 0 0 1 0 0 0 0.2 0"/>
<feBlend mode="normal" in2="shape" result="effect2_innerShadow_889_11153"/>
</filter>
</defs>
</svg>
