<svg width="208" height="230" viewBox="0 0 208 230" fill="none" xmlns="http://www.w3.org/2000/svg">
<g filter="url(#filter0_di_860_10779)">
<path d="M109.856 221.027C104.979 223.775 99.0206 223.775 94.1438 221.027L10.1438 173.681C5.11251 170.845 2 165.518 2 159.743L2 65.712C2 59.9366 5.11251 54.6094 10.1438 51.7736L94.1438 4.42812C99.0206 1.67936 104.979 1.67936 109.856 4.42812L193.856 51.7736C198.887 54.6094 202 59.9366 202 65.712L202 159.743C202 165.518 198.887 170.845 193.856 173.681L109.856 221.027Z" fill="white"/>
<path d="M109.856 221.027C104.979 223.775 99.0206 223.775 94.1438 221.027L10.1438 173.681C5.11251 170.845 2 165.518 2 159.743L2 65.712C2 59.9366 5.11251 54.6094 10.1438 51.7736L94.1438 4.42812C99.0206 1.67936 104.979 1.67936 109.856 4.42812L193.856 51.7736C198.887 54.6094 202 59.9366 202 65.712L202 159.743C202 165.518 198.887 170.845 193.856 173.681L109.856 221.027Z" fill="url(#paint0_linear_860_10779)" fill-opacity="0.1"/>
<path d="M96.5989 216.671L12.5989 169.325C9.13984 167.376 7 163.713 7 159.743L6.99999 65.712C6.99999 61.7414 9.13985 58.079 12.5989 56.1293L96.5989 8.78388C99.9517 6.89411 104.048 6.89411 107.401 8.78388L191.401 56.1293C194.86 58.0789 197 61.7414 197 65.712L197 159.743C197 163.713 194.86 167.376 191.401 169.325L107.401 216.671C104.048 218.561 99.9517 218.561 96.5989 216.671Z" stroke="#FFC946" stroke-width="10"/>
</g>
<path d="M76.8601 123.456H74.2117V118.605H69.7117V116.636H74.2117V102.316H76.8601V123.456ZM58.8836 113.191C61.782 113.183 64.3133 113.144 66.4773 113.074C68.6492 112.995 70.743 112.816 72.7586 112.535L72.9226 114.456C71.1101 114.761 69.1414 114.984 67.0164 115.124V122.824H64.3914V115.253C63.157 115.3 61.4305 115.324 59.2117 115.324L58.8836 113.191ZM60.407 107.519C60.407 106.691 60.6375 105.953 61.0984 105.304C61.5594 104.648 62.2039 104.14 63.032 103.781C63.8601 103.413 64.7976 103.23 65.8445 103.23C66.8758 103.23 67.7976 103.413 68.6101 103.781C69.4305 104.14 70.0711 104.648 70.532 105.304C71.0008 105.953 71.2351 106.691 71.2351 107.519C71.2351 108.363 71.0047 109.109 70.5437 109.757C70.0828 110.398 69.4422 110.898 68.6219 111.257C67.8016 111.609 66.8758 111.785 65.8445 111.785C64.7898 111.785 63.8484 111.609 63.0203 111.257C62.2 110.898 61.5594 110.398 61.0984 109.757C60.6375 109.109 60.407 108.363 60.407 107.519ZM62.868 107.519C62.868 107.988 62.9891 108.394 63.2312 108.738C63.4812 109.074 63.8289 109.335 64.2742 109.523C64.7273 109.703 65.2508 109.792 65.8445 109.792C66.407 109.792 66.907 109.703 67.3445 109.523C67.7898 109.335 68.1336 109.07 68.3758 108.726C68.6258 108.382 68.7508 107.98 68.7508 107.519C68.7508 107.066 68.6258 106.667 68.3758 106.324C68.1336 105.972 67.7898 105.703 67.3445 105.515C66.907 105.32 66.407 105.222 65.8445 105.222C65.2586 105.222 64.7391 105.32 64.2859 105.515C63.8328 105.703 63.4812 105.972 63.2312 106.324C62.9891 106.667 62.868 107.066 62.868 107.519ZM96.8992 106.792C96.8992 108.152 96.8836 109.3 96.8523 110.238C96.8211 111.167 96.7351 112.222 96.5945 113.402C96.4617 114.581 96.2508 115.87 95.9617 117.269L93.3601 117.035C93.743 115.41 94.0125 113.749 94.1687 112.054L81.6883 112.699L81.3367 110.589L94.2859 110.097C94.325 109.152 94.3445 108.05 94.3445 106.792V106.37H81.9695V104.261H96.8992V106.792ZM79.7195 118.652H99.032V120.785H79.7195V118.652ZM123.688 104.87H120.782V108.081H123.571V110.05H108.009V108.081H110.798V104.87H107.891V102.902H123.688V104.87ZM106.157 111.386H125.47V113.449H106.157V111.386ZM108.43 114.878H123.055V119.917H111.009V121.347H123.641V123.292H108.454V118.113H120.501V116.777H108.43V114.878ZM118.157 108.081V104.87H113.399V108.081H118.157ZM146.259 121.019H126.899V118.863H135.243V115.417H129.196V108.48H141.384V105.855H129.149V103.745H143.962V110.542H131.798V113.285H144.454V115.417H137.821V118.863H146.259V121.019Z" fill="#555555"/>
<defs>
<filter id="filter0_di_860_10779" x="0" y="0.366577" width="208" height="228.722" filterUnits="userSpaceOnUse" color-interpolation-filters="sRGB">
<feFlood flood-opacity="0" result="BackgroundImageFix"/>
<feColorMatrix in="SourceAlpha" type="matrix" values="0 0 0 0 0 0 0 0 0 0 0 0 0 0 0 0 0 0 127 0" result="hardAlpha"/>
<feOffset dx="2" dy="2"/>
<feGaussianBlur stdDeviation="2"/>
<feColorMatrix type="matrix" values="0 0 0 0 0 0 0 0 0 0 0 0 0 0 0 0 0 0 0.25 0"/>
<feBlend mode="normal" in2="BackgroundImageFix" result="effect1_dropShadow_860_10779"/>
<feBlend mode="normal" in="SourceGraphic" in2="effect1_dropShadow_860_10779" result="shape"/>
<feColorMatrix in="SourceAlpha" type="matrix" values="0 0 0 0 0 0 0 0 0 0 0 0 0 0 0 0 0 0 127 0" result="hardAlpha"/>
<feOffset dx="5" dy="5"/>
<feGaussianBlur stdDeviation="1"/>
<feComposite in2="hardAlpha" operator="arithmetic" k2="-1" k3="1"/>
<feColorMatrix type="matrix" values="0 0 0 0 1 0 0 0 0 1 0 0 0 0 1 0 0 0 0.45 0"/>
<feBlend mode="normal" in2="shape" result="effect2_innerShadow_860_10779"/>
</filter>
<linearGradient id="paint0_linear_860_10779" x1="190.636" y1="62.0001" x2="2.70326" y2="165.854" gradientUnits="userSpaceOnUse">
<stop stop-color="#FFC946"/>
<stop offset="1" stop-color="white"/>
</linearGradient>
</defs>
</svg>
