<svg width="208" height="230" viewBox="0 0 208 230" fill="none" xmlns="http://www.w3.org/2000/svg">
<g filter="url(#filter0_di_860_10821)">
<path d="M109.856 221.027C104.979 223.775 99.0206 223.775 94.1438 221.027L10.1438 173.681C5.11251 170.845 2 165.518 2 159.743L2 65.712C2 59.9366 5.11251 54.6094 10.1438 51.7736L94.1438 4.42812C99.0206 1.67936 104.979 1.67936 109.856 4.42812L193.856 51.7736C198.887 54.6094 202 59.9366 202 65.712L202 159.743C202 165.518 198.887 170.845 193.856 173.681L109.856 221.027Z" fill="white"/>
<path d="M109.856 221.027C104.979 223.775 99.0206 223.775 94.1438 221.027L10.1438 173.681C5.11251 170.845 2 165.518 2 159.743L2 65.712C2 59.9366 5.11251 54.6094 10.1438 51.7736L94.1438 4.42812C99.0206 1.67936 104.979 1.67936 109.856 4.42812L193.856 51.7736C198.887 54.6094 202 59.9366 202 65.712L202 159.743C202 165.518 198.887 170.845 193.856 173.681L109.856 221.027Z" fill="url(#paint0_linear_860_10821)" fill-opacity="0.1"/>
<path d="M96.5989 216.671L12.5989 169.325C9.13984 167.376 7 163.713 7 159.743L6.99999 65.712C6.99999 61.7414 9.13985 58.079 12.5989 56.1293L96.5989 8.78388C99.9517 6.89411 104.048 6.89411 107.401 8.78388L191.401 56.1293C194.86 58.0789 197 61.7414 197 65.712L197 159.743C197 163.713 194.86 167.376 191.401 169.325L107.401 216.671C104.048 218.561 99.9517 218.561 96.5989 216.671Z" stroke="#FFC946" stroke-width="10"/>
</g>
<path d="M65.8445 103.605C66.9539 103.605 67.95 103.824 68.8328 104.261C69.7156 104.691 70.407 105.292 70.907 106.066C71.4148 106.839 71.6726 107.722 71.6805 108.714C71.6726 109.566 71.4773 110.343 71.0945 111.046C70.7195 111.749 70.1922 112.331 69.5125 112.792C68.8328 113.245 68.0476 113.55 67.157 113.706V116.8C69.1961 116.699 71.0633 116.527 72.7586 116.285L72.9695 118.16C70.8758 118.558 68.7391 118.816 66.5594 118.933C64.3875 119.042 62.0008 119.097 59.3992 119.097L59.0711 116.964C61.407 116.964 63.2351 116.945 64.5555 116.906V113.718C63.6726 113.562 62.8875 113.253 62.2 112.792C61.5125 112.331 60.9773 111.753 60.5945 111.058C60.2195 110.355 60.032 109.574 60.032 108.714C60.032 107.73 60.282 106.851 60.782 106.078C61.282 105.296 61.9734 104.691 62.8562 104.261C63.7469 103.824 64.743 103.605 65.8445 103.605ZM62.6101 108.714C62.6101 109.285 62.7469 109.788 63.0203 110.226C63.3016 110.663 63.6883 111.003 64.1805 111.245C64.6726 111.48 65.2273 111.597 65.8445 111.597C66.4695 111.597 67.0281 111.48 67.5203 111.245C68.0203 111.003 68.4109 110.663 68.6922 110.226C68.9812 109.788 69.1258 109.285 69.1258 108.714C69.1258 108.136 68.9812 107.632 68.6922 107.203C68.4109 106.765 68.0203 106.429 67.5203 106.195C67.0281 105.96 66.4695 105.847 65.8445 105.855C65.2273 105.847 64.6726 105.96 64.1805 106.195C63.6883 106.429 63.3016 106.765 63.0203 107.203C62.7469 107.632 62.6101 108.136 62.6101 108.714ZM74.0242 102.292H76.6258V123.503H74.0242V102.292ZM99.032 116.214H90.618V123.456H88.0398V116.214H79.7195V114.105H99.032V116.214ZM80.7273 110.636C82.0789 110.464 83.282 110.124 84.3367 109.617C85.3992 109.109 86.2351 108.499 86.8445 107.788C87.4617 107.07 87.8016 106.324 87.8641 105.55H81.5008V103.488H97.2508V105.55H90.8875C90.95 106.324 91.282 107.07 91.8836 107.788C92.493 108.499 93.3289 109.109 94.3914 109.617C95.4539 110.124 96.6648 110.464 98.0242 110.636L97.0867 112.675C95.2898 112.417 93.7156 111.898 92.3641 111.117C91.0203 110.335 90.0242 109.37 89.3758 108.222C88.7195 109.37 87.7234 110.335 86.3875 111.117C85.0516 111.898 83.493 112.417 81.7117 112.675L80.7273 110.636ZM117.993 105.128V105.41C117.977 106.456 117.938 107.437 117.876 108.351C117.813 109.257 117.68 110.261 117.477 111.363L114.899 111.128C115.087 110.144 115.216 109.245 115.286 108.433C115.364 107.62 115.411 106.816 115.427 106.019H107.188V103.863H117.993V105.128ZM106.356 113.05C108.059 113.035 109.298 113.019 110.071 113.003V108.691H112.649V112.921C115.157 112.812 117.321 112.628 119.141 112.37L119.282 114.245C117.321 114.597 115.262 114.831 113.106 114.949C110.95 115.066 108.634 115.128 106.157 115.136L105.923 113.05H106.356ZM109.087 116.753H111.712V120.949H123.735V123.058H109.087V116.753ZM120.384 102.292H123.055V108.902H125.798V111.081H123.055V118.16H120.384V102.292ZM144.548 123.503H141.97V102.292H144.548V123.503ZM128.048 104.144H138.032V112.089H130.743V116.355C132.509 116.339 134.141 116.277 135.641 116.167C137.141 116.058 138.68 115.87 140.259 115.605L140.493 117.738C138.852 118.019 137.235 118.214 135.641 118.324C134.055 118.433 132.29 118.488 130.345 118.488H129.923H128.071V110.027H135.384V106.253H128.048V104.144Z" fill="#555555"/>
<defs>
<filter id="filter0_di_860_10821" x="0" y="0.366577" width="208" height="228.722" filterUnits="userSpaceOnUse" color-interpolation-filters="sRGB">
<feFlood flood-opacity="0" result="BackgroundImageFix"/>
<feColorMatrix in="SourceAlpha" type="matrix" values="0 0 0 0 0 0 0 0 0 0 0 0 0 0 0 0 0 0 127 0" result="hardAlpha"/>
<feOffset dx="2" dy="2"/>
<feGaussianBlur stdDeviation="2"/>
<feColorMatrix type="matrix" values="0 0 0 0 0 0 0 0 0 0 0 0 0 0 0 0 0 0 0.25 0"/>
<feBlend mode="normal" in2="BackgroundImageFix" result="effect1_dropShadow_860_10821"/>
<feBlend mode="normal" in="SourceGraphic" in2="effect1_dropShadow_860_10821" result="shape"/>
<feColorMatrix in="SourceAlpha" type="matrix" values="0 0 0 0 0 0 0 0 0 0 0 0 0 0 0 0 0 0 127 0" result="hardAlpha"/>
<feOffset dx="5" dy="5"/>
<feGaussianBlur stdDeviation="1"/>
<feComposite in2="hardAlpha" operator="arithmetic" k2="-1" k3="1"/>
<feColorMatrix type="matrix" values="0 0 0 0 1 0 0 0 0 1 0 0 0 0 1 0 0 0 0.45 0"/>
<feBlend mode="normal" in2="shape" result="effect2_innerShadow_860_10821"/>
</filter>
<linearGradient id="paint0_linear_860_10821" x1="190.636" y1="62.0001" x2="2.70326" y2="165.854" gradientUnits="userSpaceOnUse">
<stop stop-color="#FFC946"/>
<stop offset="1" stop-color="white"/>
</linearGradient>
</defs>
</svg>
