<svg width="208" height="230" viewBox="0 0 208 230" fill="none" xmlns="http://www.w3.org/2000/svg">
<g filter="url(#filter0_di_860_10815)">
<path d="M109.856 221.027C104.979 223.775 99.0206 223.775 94.1438 221.027L10.1438 173.681C5.11251 170.845 2 165.518 2 159.743L2 65.712C2 59.9366 5.11251 54.6094 10.1438 51.7736L94.1438 4.42812C99.0206 1.67936 104.979 1.67936 109.856 4.42812L193.856 51.7736C198.887 54.6094 202 59.9366 202 65.712L202 159.743C202 165.518 198.887 170.845 193.856 173.681L109.856 221.027Z" fill="white"/>
<path d="M109.856 221.027C104.979 223.775 99.0206 223.775 94.1438 221.027L10.1438 173.681C5.11251 170.845 2 165.518 2 159.743L2 65.712C2 59.9366 5.11251 54.6094 10.1438 51.7736L94.1438 4.42812C99.0206 1.67936 104.979 1.67936 109.856 4.42812L193.856 51.7736C198.887 54.6094 202 59.9366 202 65.712L202 159.743C202 165.518 198.887 170.845 193.856 173.681L109.856 221.027Z" fill="url(#paint0_linear_860_10815)" fill-opacity="0.1"/>
<path d="M96.5989 216.671L12.5989 169.325C9.13984 167.376 7 163.713 7 159.743L6.99999 65.712C6.99999 61.7414 9.13985 58.079 12.5989 56.1293L96.5989 8.78388C99.9517 6.89411 104.048 6.89411 107.401 8.78388L191.401 56.1293C194.86 58.0789 197 61.7414 197 65.712L197 159.743C197 163.713 194.86 167.376 191.401 169.325L107.401 216.671C104.048 218.561 99.9517 218.561 96.5989 216.671Z" stroke="#FFC946" stroke-width="10"/>
</g>
<path d="M78.3133 114.972H70.1336V118.863H67.5555V114.972H58.9539V112.886H78.3133V114.972ZM61.2976 116.917H63.8992V120.949H76.1805V123.058H61.2976V116.917ZM61.4148 103.253H75.8289V110.917H61.4148V103.253ZM73.2508 108.878V105.292H63.9461V108.878H73.2508ZM87.5476 107.378C87.5398 108.706 87.743 109.988 88.157 111.222C88.5711 112.456 89.1726 113.554 89.9617 114.515C90.7586 115.468 91.7039 116.183 92.7976 116.66L91.2273 118.745C90.0555 118.175 89.0476 117.355 88.2039 116.285C87.3601 115.214 86.7078 113.968 86.2469 112.546C85.7703 114.054 85.0984 115.382 84.2312 116.531C83.3641 117.671 82.3367 118.542 81.1492 119.144L79.5086 117.035C80.6258 116.511 81.5906 115.745 82.4031 114.738C83.2156 113.73 83.8328 112.585 84.2547 111.304C84.6766 110.023 84.8914 108.714 84.8992 107.378V104.003H87.5476V107.378ZM90.4539 109.136H94.907V102.292H97.4851V123.503H94.907V111.245H90.4539V109.136ZM117.993 105.128V105.41C117.977 106.456 117.938 107.437 117.876 108.351C117.813 109.257 117.68 110.261 117.477 111.363L114.899 111.128C115.087 110.144 115.216 109.245 115.286 108.433C115.364 107.62 115.411 106.816 115.427 106.019H107.188V103.863H117.993V105.128ZM106.356 113.05C108.059 113.035 109.298 113.019 110.071 113.003V108.691H112.649V112.921C115.157 112.812 117.321 112.628 119.141 112.37L119.282 114.245C117.321 114.597 115.262 114.831 113.106 114.949C110.95 115.066 108.634 115.128 106.157 115.136L105.923 113.05H106.356ZM109.087 116.753H111.712V120.949H123.735V123.058H109.087V116.753ZM120.384 102.292H123.055V108.902H125.798V111.081H123.055V118.16H120.384V102.292ZM144.548 123.503H141.97V102.292H144.548V123.503ZM128.048 104.144H138.032V112.089H130.743V116.355C132.509 116.339 134.141 116.277 135.641 116.167C137.141 116.058 138.68 115.87 140.259 115.605L140.493 117.738C138.852 118.019 137.235 118.214 135.641 118.324C134.055 118.433 132.29 118.488 130.345 118.488H129.923H128.071V110.027H135.384V106.253H128.048V104.144Z" fill="#555555"/>
<defs>
<filter id="filter0_di_860_10815" x="0" y="0.366577" width="208" height="228.722" filterUnits="userSpaceOnUse" color-interpolation-filters="sRGB">
<feFlood flood-opacity="0" result="BackgroundImageFix"/>
<feColorMatrix in="SourceAlpha" type="matrix" values="0 0 0 0 0 0 0 0 0 0 0 0 0 0 0 0 0 0 127 0" result="hardAlpha"/>
<feOffset dx="2" dy="2"/>
<feGaussianBlur stdDeviation="2"/>
<feColorMatrix type="matrix" values="0 0 0 0 0 0 0 0 0 0 0 0 0 0 0 0 0 0 0.25 0"/>
<feBlend mode="normal" in2="BackgroundImageFix" result="effect1_dropShadow_860_10815"/>
<feBlend mode="normal" in="SourceGraphic" in2="effect1_dropShadow_860_10815" result="shape"/>
<feColorMatrix in="SourceAlpha" type="matrix" values="0 0 0 0 0 0 0 0 0 0 0 0 0 0 0 0 0 0 127 0" result="hardAlpha"/>
<feOffset dx="5" dy="5"/>
<feGaussianBlur stdDeviation="1"/>
<feComposite in2="hardAlpha" operator="arithmetic" k2="-1" k3="1"/>
<feColorMatrix type="matrix" values="0 0 0 0 1 0 0 0 0 1 0 0 0 0 1 0 0 0 0.45 0"/>
<feBlend mode="normal" in2="shape" result="effect2_innerShadow_860_10815"/>
</filter>
<linearGradient id="paint0_linear_860_10815" x1="190.636" y1="62.0001" x2="2.70326" y2="165.854" gradientUnits="userSpaceOnUse">
<stop stop-color="#FFC946"/>
<stop offset="1" stop-color="white"/>
</linearGradient>
</defs>
</svg>
