<svg width="208" height="230" viewBox="0 0 208 230" fill="none" xmlns="http://www.w3.org/2000/svg">
<g filter="url(#filter0_di_860_10812)">
<path d="M109.856 221.027C104.979 223.775 99.0206 223.775 94.1438 221.027L10.1438 173.681C5.11251 170.845 2 165.518 2 159.743L2 65.712C2 59.9366 5.11251 54.6094 10.1438 51.7736L94.1438 4.42812C99.0206 1.67936 104.979 1.67936 109.856 4.42812L193.856 51.7736C198.887 54.6094 202 59.9366 202 65.712L202 159.743C202 165.518 198.887 170.845 193.856 173.681L109.856 221.027Z" fill="white"/>
<path d="M109.856 221.027C104.979 223.775 99.0206 223.775 94.1438 221.027L10.1438 173.681C5.11251 170.845 2 165.518 2 159.743L2 65.712C2 59.9366 5.11251 54.6094 10.1438 51.7736L94.1438 4.42812C99.0206 1.67936 104.979 1.67936 109.856 4.42812L193.856 51.7736C198.887 54.6094 202 59.9366 202 65.712L202 159.743C202 165.518 198.887 170.845 193.856 173.681L109.856 221.027Z" fill="url(#paint0_linear_860_10812)" fill-opacity="0.1"/>
<path d="M96.5989 216.671L12.5989 169.325C9.13984 167.376 7 163.713 7 159.743L6.99999 65.712C6.99999 61.7414 9.13985 58.079 12.5989 56.1293L96.5989 8.78388C99.9517 6.89411 104.048 6.89411 107.401 8.78388L191.401 56.1293C194.86 58.0789 197 61.7414 197 65.712L197 159.743C197 163.713 194.86 167.376 191.401 169.325L107.401 216.671C104.048 218.561 99.9517 218.561 96.5989 216.671Z" stroke="#FFC946" stroke-width="10"/>
</g>
<path d="M66.993 107.378C66.9851 108.683 67.2 109.953 67.6375 111.187C68.075 112.421 68.7078 113.519 69.5359 114.48C70.3641 115.441 71.3367 116.16 72.4539 116.636L70.907 118.722C69.7117 118.167 68.6687 117.363 67.7781 116.308C66.8953 115.245 66.2039 114.007 65.7039 112.593C65.2039 114.117 64.4969 115.453 63.5828 116.601C62.6766 117.749 61.5945 118.62 60.3367 119.214L58.743 117.035C59.8914 116.542 60.8875 115.8 61.7312 114.808C62.575 113.808 63.2195 112.663 63.6648 111.374C64.1101 110.085 64.3367 108.753 64.3445 107.378V104.003H66.993V107.378ZM73.9773 102.292H76.6023V123.503H73.9773V102.292ZM97.4617 113.144H94.8601V107.777H90.6414V105.691H94.8601V102.292H97.4617V113.144ZM79.6023 111.175C80.7117 110.839 81.6531 110.347 82.4266 109.699C83.2078 109.042 83.7937 108.285 84.1844 107.425C84.5828 106.558 84.782 105.644 84.782 104.683V102.995H87.407V104.683C87.3992 105.566 87.5867 106.41 87.9695 107.214C88.3523 108.019 88.9187 108.734 89.6687 109.359C90.4187 109.976 91.3289 110.449 92.3992 110.777L91.0164 112.792C89.8836 112.417 88.9031 111.87 88.075 111.152C87.2469 110.433 86.5945 109.585 86.118 108.609C85.6492 109.703 84.9773 110.652 84.1023 111.456C83.2351 112.253 82.1883 112.855 80.9617 113.261L79.6023 111.175ZM83.5164 114.058H97.4617V119.542H86.0945V121.16H98.1414V123.222H83.5398V117.597H94.8836V116.097H83.5164V114.058ZM117.993 105.128V105.41C117.977 106.456 117.938 107.437 117.876 108.351C117.813 109.257 117.68 110.261 117.477 111.363L114.899 111.128C115.087 110.144 115.216 109.245 115.286 108.433C115.364 107.62 115.411 106.816 115.427 106.019H107.188V103.863H117.993V105.128ZM106.356 113.05C108.059 113.035 109.298 113.019 110.071 113.003V108.691H112.649V112.921C115.157 112.812 117.321 112.628 119.141 112.37L119.282 114.245C117.321 114.597 115.262 114.831 113.106 114.949C110.95 115.066 108.634 115.128 106.157 115.136L105.923 113.05H106.356ZM109.087 116.753H111.712V120.949H123.735V123.058H109.087V116.753ZM120.384 102.292H123.055V108.902H125.798V111.081H123.055V118.16H120.384V102.292ZM144.548 123.503H141.97V102.292H144.548V123.503ZM128.048 104.144H138.032V112.089H130.743V116.355C132.509 116.339 134.141 116.277 135.641 116.167C137.141 116.058 138.68 115.87 140.259 115.605L140.493 117.738C138.852 118.019 137.235 118.214 135.641 118.324C134.055 118.433 132.29 118.488 130.345 118.488H129.923H128.071V110.027H135.384V106.253H128.048V104.144Z" fill="#555555"/>
<defs>
<filter id="filter0_di_860_10812" x="0" y="0.366577" width="208" height="228.722" filterUnits="userSpaceOnUse" color-interpolation-filters="sRGB">
<feFlood flood-opacity="0" result="BackgroundImageFix"/>
<feColorMatrix in="SourceAlpha" type="matrix" values="0 0 0 0 0 0 0 0 0 0 0 0 0 0 0 0 0 0 127 0" result="hardAlpha"/>
<feOffset dx="2" dy="2"/>
<feGaussianBlur stdDeviation="2"/>
<feColorMatrix type="matrix" values="0 0 0 0 0 0 0 0 0 0 0 0 0 0 0 0 0 0 0.25 0"/>
<feBlend mode="normal" in2="BackgroundImageFix" result="effect1_dropShadow_860_10812"/>
<feBlend mode="normal" in="SourceGraphic" in2="effect1_dropShadow_860_10812" result="shape"/>
<feColorMatrix in="SourceAlpha" type="matrix" values="0 0 0 0 0 0 0 0 0 0 0 0 0 0 0 0 0 0 127 0" result="hardAlpha"/>
<feOffset dx="5" dy="5"/>
<feGaussianBlur stdDeviation="1"/>
<feComposite in2="hardAlpha" operator="arithmetic" k2="-1" k3="1"/>
<feColorMatrix type="matrix" values="0 0 0 0 1 0 0 0 0 1 0 0 0 0 1 0 0 0 0.45 0"/>
<feBlend mode="normal" in2="shape" result="effect2_innerShadow_860_10812"/>
</filter>
<linearGradient id="paint0_linear_860_10812" x1="190.636" y1="62.0001" x2="2.70326" y2="165.854" gradientUnits="userSpaceOnUse">
<stop stop-color="#FFC946"/>
<stop offset="1" stop-color="white"/>
</linearGradient>
</defs>
</svg>
