<svg width="208" height="230" viewBox="0 0 208 230" fill="none" xmlns="http://www.w3.org/2000/svg">
<g filter="url(#filter0_di_860_10788)">
<path d="M109.856 221.026C104.979 223.775 99.0206 223.775 94.1438 221.026L10.1438 173.681C5.11251 170.845 2 165.518 2 159.743L2 65.7119C2 59.9365 5.11251 54.6093 10.1438 51.7735L94.1438 4.42806C99.0206 1.6793 104.979 1.6793 109.856 4.42806L193.856 51.7735C198.887 54.6093 202 59.9365 202 65.7119L202 159.743C202 165.518 198.887 170.845 193.856 173.681L109.856 221.026Z" fill="white"/>
<path d="M109.856 221.026C104.979 223.775 99.0206 223.775 94.1438 221.026L10.1438 173.681C5.11251 170.845 2 165.518 2 159.743L2 65.7119C2 59.9365 5.11251 54.6093 10.1438 51.7735L94.1438 4.42806C99.0206 1.6793 104.979 1.6793 109.856 4.42806L193.856 51.7735C198.887 54.6093 202 59.9365 202 65.7119L202 159.743C202 165.518 198.887 170.845 193.856 173.681L109.856 221.026Z" fill="url(#paint0_linear_860_10788)" fill-opacity="0.1"/>
<path d="M96.5989 216.671L12.5989 169.325C9.13984 167.376 7 163.713 7 159.743L6.99999 65.7119C6.99999 61.7413 9.13985 58.0789 12.5989 56.1293L96.5989 8.78382C99.9517 6.89405 104.048 6.89405 107.401 8.78382L191.401 56.1293C194.86 58.0789 197 61.7413 197 65.7119L197 159.743C197 163.713 194.86 167.376 191.401 169.325L107.401 216.671C104.048 218.56 99.9517 218.56 96.5989 216.671Z" stroke="#FFC946" stroke-width="10"/>
</g>
<path d="M68.5164 115.535C70.0476 115.535 71.3758 115.695 72.5008 116.015C73.6336 116.328 74.5047 116.785 75.1141 117.386C75.7312 117.98 76.0398 118.691 76.0398 119.519C76.0398 120.331 75.7312 121.031 75.1141 121.617C74.5047 122.21 73.6336 122.663 72.5008 122.976C71.3758 123.296 70.0476 123.456 68.5164 123.456C67.0008 123.456 65.6766 123.296 64.5437 122.976C63.4187 122.663 62.5476 122.21 61.9305 121.617C61.3211 121.031 61.0164 120.331 61.0164 119.519C61.0164 118.691 61.3211 117.98 61.9305 117.386C62.5476 116.785 63.4187 116.328 64.5437 116.015C65.6766 115.695 67.0008 115.535 68.5164 115.535ZM59.0242 111.902H66.4773V108.058H69.0555V111.902H78.243V114.011H59.0242V111.902ZM61.2273 103.3H75.8992V105.058V105.679C75.8992 106.593 75.8601 107.441 75.782 108.222C75.7117 109.003 75.5555 109.824 75.3133 110.683L72.7351 110.449C72.9695 109.527 73.1219 108.687 73.1922 107.929C73.2625 107.171 73.2976 106.316 73.2976 105.363H61.2273V103.3ZM63.6414 119.519C63.6336 120.136 64.0555 120.613 64.907 120.949C65.7664 121.277 66.9695 121.441 68.5164 121.441C70.0633 121.441 71.2703 121.277 72.1375 120.949C73.0125 120.613 73.4539 120.136 73.4617 119.519C73.4539 118.878 73.0125 118.382 72.1375 118.031C71.2703 117.679 70.0633 117.503 68.5164 117.503C66.9773 117.503 65.7781 117.679 64.9187 118.031C64.0594 118.382 63.6336 118.878 63.6414 119.519ZM96.4305 108.386H99.3836V110.566H96.4305V117.574H93.782V102.292H96.4305V108.386ZM79.6492 113.308C81.2508 112.847 82.6375 112.253 83.8094 111.527C84.9812 110.8 85.9031 109.976 86.575 109.054C87.2547 108.124 87.6687 107.12 87.8172 106.042H80.5398V103.91H90.6648C90.6648 105.769 90.2742 107.453 89.493 108.96C88.7117 110.46 87.5789 111.753 86.0945 112.839C84.6101 113.917 82.8211 114.761 80.7273 115.37L79.6492 113.308ZM82.8133 116.003H85.4617V120.949H97.2273V123.058H82.8133V116.003ZM117.993 105.128V105.41C117.977 106.456 117.938 107.437 117.876 108.351C117.813 109.257 117.68 110.261 117.477 111.363L114.899 111.128C115.087 110.144 115.216 109.245 115.286 108.433C115.364 107.62 115.411 106.816 115.427 106.019H107.188V103.863H117.993V105.128ZM106.356 113.05C108.059 113.035 109.298 113.019 110.071 113.003V108.691H112.649V112.921C115.157 112.812 117.321 112.628 119.141 112.37L119.282 114.245C117.321 114.597 115.262 114.831 113.106 114.949C110.95 115.066 108.634 115.128 106.157 115.136L105.923 113.05H106.356ZM109.087 116.753H111.712V120.949H123.735V123.058H109.087V116.753ZM120.384 102.292H123.055V108.902H125.798V111.081H123.055V118.16H120.384V102.292ZM144.548 123.503H141.97V102.292H144.548V123.503ZM128.048 104.144H138.032V112.089H130.743V116.355C132.509 116.339 134.141 116.277 135.641 116.167C137.141 116.058 138.68 115.87 140.259 115.605L140.493 117.738C138.852 118.019 137.235 118.214 135.641 118.324C134.055 118.433 132.29 118.488 130.345 118.488H129.923H128.071V110.027H135.384V106.253H128.048V104.144Z" fill="#555555"/>
<defs>
<filter id="filter0_di_860_10788" x="0" y="0.366516" width="208" height="228.722" filterUnits="userSpaceOnUse" color-interpolation-filters="sRGB">
<feFlood flood-opacity="0" result="BackgroundImageFix"/>
<feColorMatrix in="SourceAlpha" type="matrix" values="0 0 0 0 0 0 0 0 0 0 0 0 0 0 0 0 0 0 127 0" result="hardAlpha"/>
<feOffset dx="2" dy="2"/>
<feGaussianBlur stdDeviation="2"/>
<feColorMatrix type="matrix" values="0 0 0 0 0 0 0 0 0 0 0 0 0 0 0 0 0 0 0.25 0"/>
<feBlend mode="normal" in2="BackgroundImageFix" result="effect1_dropShadow_860_10788"/>
<feBlend mode="normal" in="SourceGraphic" in2="effect1_dropShadow_860_10788" result="shape"/>
<feColorMatrix in="SourceAlpha" type="matrix" values="0 0 0 0 0 0 0 0 0 0 0 0 0 0 0 0 0 0 127 0" result="hardAlpha"/>
<feOffset dx="5" dy="5"/>
<feGaussianBlur stdDeviation="1"/>
<feComposite in2="hardAlpha" operator="arithmetic" k2="-1" k3="1"/>
<feColorMatrix type="matrix" values="0 0 0 0 1 0 0 0 0 1 0 0 0 0 1 0 0 0 0.45 0"/>
<feBlend mode="normal" in2="shape" result="effect2_innerShadow_860_10788"/>
</filter>
<linearGradient id="paint0_linear_860_10788" x1="190.636" y1="62" x2="2.70326" y2="165.854" gradientUnits="userSpaceOnUse">
<stop stop-color="#FFC946"/>
<stop offset="1" stop-color="white"/>
</linearGradient>
</defs>
</svg>
