<svg width="208" height="230" viewBox="0 0 208 230" fill="none" xmlns="http://www.w3.org/2000/svg">
<g filter="url(#filter0_di_860_10818)">
<path d="M109.856 221.027C104.979 223.775 99.0206 223.775 94.1438 221.027L10.1438 173.681C5.11251 170.845 2 165.518 2 159.743L2 65.712C2 59.9366 5.11251 54.6094 10.1438 51.7736L94.1438 4.42812C99.0206 1.67936 104.979 1.67936 109.856 4.42812L193.856 51.7736C198.887 54.6094 202 59.9366 202 65.712L202 159.743C202 165.518 198.887 170.845 193.856 173.681L109.856 221.027Z" fill="white"/>
<path d="M109.856 221.027C104.979 223.775 99.0206 223.775 94.1438 221.027L10.1438 173.681C5.11251 170.845 2 165.518 2 159.743L2 65.712C2 59.9366 5.11251 54.6094 10.1438 51.7736L94.1438 4.42812C99.0206 1.67936 104.979 1.67936 109.856 4.42812L193.856 51.7736C198.887 54.6094 202 59.9366 202 65.712L202 159.743C202 165.518 198.887 170.845 193.856 173.681L109.856 221.027Z" fill="url(#paint0_linear_860_10818)" fill-opacity="0.1"/>
<path d="M96.5989 216.671L12.5989 169.325C9.13984 167.376 7 163.713 7 159.743L6.99999 65.712C6.99999 61.7414 9.13985 58.079 12.5989 56.1293L96.5989 8.78388C99.9517 6.89411 104.048 6.89411 107.401 8.78388L191.401 56.1293C194.86 58.0789 197 61.7414 197 65.712L197 159.743C197 163.713 194.86 167.376 191.401 169.325L107.401 216.671C104.048 218.561 99.9517 218.561 96.5989 216.671Z" stroke="#FFC946" stroke-width="10"/>
</g>
<path d="M76.7195 114.691H74.118V112.347H69.0789V110.238H74.118V107.964H69.2781C68.6141 109.636 67.5203 111.062 65.9969 112.242C64.4734 113.413 62.5555 114.324 60.243 114.972L59.1883 112.91C61.6258 112.253 63.5164 111.324 64.8601 110.12C66.2117 108.91 66.9891 107.503 67.1922 105.902H60.3133V103.792H70.0398C70.0398 104.527 69.9812 105.23 69.8641 105.902H74.118V102.316H76.7195V114.691ZM62.5164 119.144C62.5164 118.285 62.8133 117.538 63.407 116.906C64.0008 116.273 64.8367 115.785 65.9148 115.441C67.0008 115.097 68.2664 114.925 69.7117 114.925C71.1336 114.925 72.3836 115.097 73.4617 115.441C74.5398 115.785 75.3758 116.273 75.9695 116.906C76.5633 117.538 76.8601 118.285 76.8601 119.144C76.8601 120.003 76.5633 120.753 75.9695 121.394C75.3758 122.027 74.5398 122.511 73.4617 122.847C72.3836 123.191 71.1336 123.363 69.7117 123.363C68.2742 123.363 67.0125 123.191 65.9266 122.847C64.8406 122.511 64.0008 122.027 63.407 121.394C62.8133 120.753 62.5164 120.003 62.5164 119.144ZM65.118 119.144C65.118 119.831 65.5242 120.363 66.3367 120.738C67.1492 121.113 68.2742 121.3 69.7117 121.3C71.1258 121.3 72.2351 121.113 73.0398 120.738C73.8445 120.363 74.2508 119.831 74.2586 119.144C74.2508 118.441 73.8445 117.902 73.0398 117.527C72.243 117.152 71.1336 116.964 69.7117 116.964C68.2742 116.964 67.1492 117.152 66.3367 117.527C65.5242 117.902 65.118 118.441 65.118 119.144ZM85.5789 103.488C86.4305 103.488 87.2195 103.636 87.9461 103.933C88.6726 104.222 89.2898 104.636 89.7976 105.175H94.8601V102.292H97.4617V114.761H94.8601V112.066H89.7859C89.2703 112.597 88.6492 113.007 87.9226 113.296C87.2039 113.585 86.4226 113.73 85.5789 113.73C84.532 113.73 83.5828 113.511 82.7312 113.074C81.8797 112.636 81.2117 112.031 80.7273 111.257C80.243 110.476 80.0008 109.597 80.0008 108.62C80.0008 107.636 80.243 106.757 80.7273 105.984C81.2117 105.203 81.8758 104.593 82.7195 104.156C83.5711 103.71 84.5242 103.488 85.5789 103.488ZM82.4851 108.62C82.4851 109.191 82.618 109.699 82.8836 110.144C83.1492 110.581 83.5164 110.921 83.9851 111.163C84.4617 111.406 85.0008 111.527 85.6023 111.527C86.1805 111.527 86.7 111.406 87.1609 111.163C87.6297 110.921 87.9969 110.581 88.2625 110.144C88.5359 109.699 88.6726 109.191 88.6726 108.62C88.6726 108.035 88.5398 107.523 88.2742 107.085C88.0086 106.648 87.6414 106.312 87.1726 106.078C86.7117 105.835 86.1883 105.714 85.6023 105.714C85.0008 105.714 84.4617 105.835 83.9851 106.078C83.5164 106.312 83.1492 106.648 82.8836 107.085C82.618 107.523 82.4851 108.035 82.4851 108.62ZM83.0945 119.331C83.0867 118.472 83.3719 117.734 83.95 117.117C84.5359 116.492 85.368 116.019 86.4461 115.699C87.532 115.37 88.8133 115.206 90.2898 115.206C91.7664 115.206 93.0476 115.37 94.1336 115.699C95.2273 116.019 96.0672 116.492 96.6531 117.117C97.2391 117.734 97.532 118.472 97.532 119.331C97.532 120.191 97.2391 120.929 96.6531 121.546C96.0672 122.163 95.2273 122.636 94.1336 122.964C93.0476 123.292 91.7664 123.456 90.2898 123.456C88.8133 123.456 87.532 123.292 86.4461 122.964C85.368 122.636 84.5359 122.163 83.95 121.546C83.3719 120.929 83.0867 120.191 83.0945 119.331ZM85.6492 119.331C85.6414 120.003 86.0398 120.519 86.8445 120.878C87.657 121.23 88.8055 121.41 90.2898 121.417C91.7976 121.41 92.9539 121.23 93.7586 120.878C94.5711 120.519 94.9773 120.003 94.9773 119.331C94.9773 118.644 94.5711 118.12 93.7586 117.761C92.9539 117.394 91.7976 117.206 90.2898 117.199C88.8055 117.206 87.657 117.394 86.8445 117.761C86.0398 118.12 85.6414 118.644 85.6492 119.331ZM90.9695 107.261C91.0945 107.722 91.157 108.175 91.157 108.62C91.157 109.042 91.0984 109.488 90.9812 109.956H94.8601V107.261H90.9695ZM114.149 108.316C114.149 109.48 114.368 110.632 114.805 111.773C115.251 112.906 115.884 113.925 116.704 114.831C117.532 115.73 118.501 116.41 119.61 116.87L118.18 118.933C116.954 118.402 115.887 117.617 114.981 116.578C114.075 115.531 113.372 114.316 112.872 112.933C112.372 114.417 111.665 115.73 110.751 116.87C109.837 118.011 108.774 118.87 107.563 119.449L106.063 117.41C107.149 116.91 108.102 116.175 108.923 115.206C109.743 114.238 110.376 113.148 110.821 111.937C111.266 110.726 111.493 109.519 111.501 108.316V106.535H106.837V104.378H118.79V106.535H114.149V108.316ZM121.157 102.292H123.782V123.48H121.157V102.292ZM144.665 118.347H142.04V116.495H137.891V114.667H142.04V102.316H144.665V118.347ZM126.805 111.831C129.61 111.816 132.095 111.769 134.259 111.691C136.423 111.613 138.493 111.449 140.47 111.199L140.61 113.074C139.048 113.339 137.266 113.542 135.266 113.683V117.761H132.665V113.824C131.157 113.886 129.313 113.917 127.134 113.917L126.805 111.831ZM128.423 106.839C128.423 106.105 128.645 105.453 129.091 104.882C129.536 104.312 130.157 103.87 130.954 103.558C131.759 103.245 132.68 103.089 133.72 103.089C134.735 103.089 135.641 103.245 136.438 103.558C137.235 103.87 137.856 104.312 138.302 104.882C138.755 105.453 138.985 106.105 138.993 106.839C138.985 107.581 138.755 108.234 138.302 108.796C137.856 109.359 137.235 109.796 136.438 110.109C135.649 110.413 134.743 110.566 133.72 110.566C132.68 110.566 131.759 110.413 130.954 110.109C130.157 109.796 129.536 109.363 129.091 108.808C128.645 108.245 128.423 107.589 128.423 106.839ZM129.618 116.8H132.22V120.949H145.157V123.058H129.618V116.8ZM130.884 106.839C130.884 107.41 131.141 107.855 131.657 108.175C132.173 108.495 132.86 108.66 133.72 108.667C134.548 108.66 135.216 108.495 135.723 108.175C136.239 107.847 136.501 107.402 136.509 106.839C136.501 106.277 136.243 105.831 135.735 105.503C135.227 105.175 134.567 105.011 133.755 105.011C132.88 105.011 132.18 105.175 131.657 105.503C131.141 105.824 130.884 106.269 130.884 106.839Z" fill="#555555"/>
<defs>
<filter id="filter0_di_860_10818" x="0" y="0.366577" width="208" height="228.722" filterUnits="userSpaceOnUse" color-interpolation-filters="sRGB">
<feFlood flood-opacity="0" result="BackgroundImageFix"/>
<feColorMatrix in="SourceAlpha" type="matrix" values="0 0 0 0 0 0 0 0 0 0 0 0 0 0 0 0 0 0 127 0" result="hardAlpha"/>
<feOffset dx="2" dy="2"/>
<feGaussianBlur stdDeviation="2"/>
<feColorMatrix type="matrix" values="0 0 0 0 0 0 0 0 0 0 0 0 0 0 0 0 0 0 0.25 0"/>
<feBlend mode="normal" in2="BackgroundImageFix" result="effect1_dropShadow_860_10818"/>
<feBlend mode="normal" in="SourceGraphic" in2="effect1_dropShadow_860_10818" result="shape"/>
<feColorMatrix in="SourceAlpha" type="matrix" values="0 0 0 0 0 0 0 0 0 0 0 0 0 0 0 0 0 0 127 0" result="hardAlpha"/>
<feOffset dx="5" dy="5"/>
<feGaussianBlur stdDeviation="1"/>
<feComposite in2="hardAlpha" operator="arithmetic" k2="-1" k3="1"/>
<feColorMatrix type="matrix" values="0 0 0 0 1 0 0 0 0 1 0 0 0 0 1 0 0 0 0.45 0"/>
<feBlend mode="normal" in2="shape" result="effect2_innerShadow_860_10818"/>
</filter>
<linearGradient id="paint0_linear_860_10818" x1="190.636" y1="62.0001" x2="2.70326" y2="165.854" gradientUnits="userSpaceOnUse">
<stop stop-color="#FFC946"/>
<stop offset="1" stop-color="white"/>
</linearGradient>
</defs>
</svg>
