<svg width="208" height="230" viewBox="0 0 208 230" fill="none" xmlns="http://www.w3.org/2000/svg">
<g filter="url(#filter0_di_860_10830)">
<path d="M109.856 221.027C104.979 223.775 99.0206 223.775 94.1438 221.027L10.1438 173.681C5.11251 170.845 2 165.518 2 159.743L2 65.712C2 59.9366 5.11251 54.6094 10.1438 51.7736L94.1438 4.42812C99.0206 1.67936 104.979 1.67936 109.856 4.42812L193.856 51.7736C198.887 54.6094 202 59.9366 202 65.712L202 159.743C202 165.518 198.887 170.845 193.856 173.681L109.856 221.027Z" fill="white"/>
<path d="M109.856 221.027C104.979 223.775 99.0206 223.775 94.1438 221.027L10.1438 173.681C5.11251 170.845 2 165.518 2 159.743L2 65.712C2 59.9366 5.11251 54.6094 10.1438 51.7736L94.1438 4.42812C99.0206 1.67936 104.979 1.67936 109.856 4.42812L193.856 51.7736C198.887 54.6094 202 59.9366 202 65.712L202 159.743C202 165.518 198.887 170.845 193.856 173.681L109.856 221.027Z" fill="url(#paint0_linear_860_10830)" fill-opacity="0.1"/>
<path d="M96.5989 216.671L12.5989 169.325C9.13984 167.376 7 163.713 7 159.743L6.99999 65.712C6.99999 61.7414 9.13985 58.079 12.5989 56.1293L96.5989 8.78388C99.9517 6.89411 104.048 6.89411 107.401 8.78388L191.401 56.1293C194.86 58.0789 197 61.7414 197 65.712L197 159.743C197 163.713 194.86 167.376 191.401 169.325L107.401 216.671C104.048 218.561 99.9517 218.561 96.5989 216.671Z" stroke="#FFC946" stroke-width="10"/>
</g>
<path d="M66.2547 123.48H63.6531V102.292H66.2547V123.48ZM49.6492 117.597C51.6883 117.581 53.2391 117.558 54.3016 117.527V115.581C53.5125 115.456 52.8211 115.218 52.2273 114.867C51.6336 114.515 51.1726 114.074 50.8445 113.542C50.5242 113.003 50.3641 112.402 50.3641 111.738C50.3641 110.949 50.5828 110.253 51.0203 109.652C51.4578 109.05 52.0711 108.585 52.8601 108.257C53.6492 107.921 54.5516 107.753 55.5672 107.753C56.5984 107.753 57.5125 107.921 58.3094 108.257C59.1062 108.585 59.7273 109.05 60.1726 109.652C60.618 110.253 60.8406 110.949 60.8406 111.738C60.8406 112.394 60.6766 112.992 60.3484 113.531C60.0281 114.062 59.5711 114.503 58.9773 114.855C58.3836 115.206 57.6922 115.445 56.9031 115.57V117.433C58.8719 117.347 60.7078 117.191 62.4109 116.964L62.5984 118.91C60.5281 119.261 58.3914 119.492 56.1883 119.601C53.993 119.703 51.6219 119.753 49.075 119.753L48.7 117.597H49.6492ZM49.1453 104.73H54.3016V102.363H56.9031V104.73H62.0359V106.792H49.1453V104.73ZM52.8484 111.738C52.8406 112.331 53.0828 112.8 53.575 113.144C54.0672 113.488 54.7195 113.66 55.532 113.66C56.3836 113.66 57.0633 113.492 57.5711 113.156C58.0867 112.812 58.3406 112.339 58.3328 111.738C58.3406 111.128 58.0906 110.648 57.5828 110.296C57.075 109.937 56.4031 109.753 55.5672 109.745C54.7469 109.753 54.0867 109.937 53.5867 110.296C53.0867 110.648 52.8406 111.128 52.8484 111.738ZM76.2156 103.769C77.325 103.769 78.3211 103.988 79.2039 104.425C80.0867 104.855 80.7781 105.46 81.2781 106.242C81.7859 107.015 82.0437 107.894 82.0516 108.878C82.0437 109.87 81.7859 110.757 81.2781 111.538C80.7781 112.312 80.0867 112.917 79.2039 113.355C78.3211 113.792 77.325 114.011 76.2156 114.011C75.1141 114.011 74.118 113.792 73.2273 113.355C72.3445 112.917 71.6531 112.308 71.1531 111.527C70.6531 110.745 70.4031 109.863 70.4031 108.878C70.4031 107.894 70.6531 107.015 71.1531 106.242C71.6609 105.46 72.3562 104.855 73.2391 104.425C74.1219 103.988 75.1141 103.769 76.2156 103.769ZM69.4422 116.941C72.0359 116.941 74.4578 116.898 76.7078 116.812C78.9578 116.718 81.0984 116.527 83.1297 116.238L83.3406 118.136C81.2469 118.535 79.1101 118.792 76.9305 118.91C74.7586 119.019 72.3719 119.074 69.7703 119.074L69.4422 116.941ZM72.9812 108.878C72.9812 109.456 73.118 109.964 73.3914 110.402C73.6726 110.831 74.0594 111.163 74.5516 111.398C75.0437 111.624 75.5984 111.738 76.2156 111.738C76.8406 111.738 77.3992 111.624 77.8914 111.398C78.3914 111.163 78.782 110.831 79.0633 110.402C79.3523 109.964 79.4969 109.456 79.4969 108.878C79.4969 108.3 79.3523 107.796 79.0633 107.367C78.782 106.937 78.3914 106.605 77.8914 106.37C77.3992 106.136 76.8406 106.019 76.2156 106.019C75.5984 106.019 75.0437 106.136 74.5516 106.37C74.0594 106.605 73.6726 106.941 73.3914 107.378C73.118 107.808 72.9812 108.308 72.9812 108.878ZM84.3953 102.292H86.9969V123.503H84.3953V102.292ZM107.692 113.097H105.114V102.292H107.692V113.097ZM90.0672 111.035C91.1766 110.683 92.1258 110.167 92.9148 109.488C93.7039 108.808 94.2976 108.035 94.6961 107.167C95.1023 106.292 95.3016 105.386 95.2937 104.449V102.808H97.9891V104.449C97.9812 105.355 98.1766 106.222 98.575 107.05C98.9734 107.87 99.5555 108.601 100.321 109.242C101.095 109.874 102.028 110.355 103.122 110.683L101.856 112.699C100.645 112.324 99.6023 111.765 98.7273 111.023C97.8523 110.273 97.1687 109.382 96.6766 108.351C96.1844 109.468 95.4891 110.437 94.5906 111.257C93.6922 112.07 92.6219 112.675 91.3797 113.074L90.0672 111.035ZM93.6766 114.081H107.739V119.589H96.2781V121.23H108.372V123.292H93.7234V117.644H105.137V116.097H93.6766V114.081ZM128.364 105.128V105.41C128.348 106.456 128.309 107.437 128.247 108.351C128.184 109.257 128.052 110.261 127.848 111.363L125.27 111.128C125.458 110.144 125.587 109.245 125.657 108.433C125.735 107.62 125.782 106.816 125.798 106.019H117.559V103.863H128.364V105.128ZM116.727 113.05C118.43 113.035 119.669 113.019 120.442 113.003V108.691H123.02V112.921C125.528 112.812 127.692 112.628 129.512 112.37L129.653 114.245C127.692 114.597 125.634 114.831 123.477 114.949C121.321 115.066 119.005 115.128 116.528 115.136L116.294 113.05H116.727ZM119.458 116.753H122.083V120.949H134.106V123.058H119.458V116.753ZM130.755 102.292H133.427V108.902H136.169V111.081H133.427V118.16H130.755V102.292ZM154.919 123.503H152.341V102.292H154.919V123.503ZM138.419 104.144H148.403V112.089H141.114V116.355C142.88 116.339 144.512 116.277 146.012 116.167C147.512 116.058 149.052 115.87 150.63 115.605L150.864 117.738C149.223 118.019 147.606 118.214 146.012 118.324C144.427 118.433 142.661 118.488 140.716 118.488H140.294H138.442V110.027H145.755V106.253H138.419V104.144Z" fill="#555555"/>
<defs>
<filter id="filter0_di_860_10830" x="0" y="0.366577" width="208" height="228.722" filterUnits="userSpaceOnUse" color-interpolation-filters="sRGB">
<feFlood flood-opacity="0" result="BackgroundImageFix"/>
<feColorMatrix in="SourceAlpha" type="matrix" values="0 0 0 0 0 0 0 0 0 0 0 0 0 0 0 0 0 0 127 0" result="hardAlpha"/>
<feOffset dx="2" dy="2"/>
<feGaussianBlur stdDeviation="2"/>
<feColorMatrix type="matrix" values="0 0 0 0 0 0 0 0 0 0 0 0 0 0 0 0 0 0 0.25 0"/>
<feBlend mode="normal" in2="BackgroundImageFix" result="effect1_dropShadow_860_10830"/>
<feBlend mode="normal" in="SourceGraphic" in2="effect1_dropShadow_860_10830" result="shape"/>
<feColorMatrix in="SourceAlpha" type="matrix" values="0 0 0 0 0 0 0 0 0 0 0 0 0 0 0 0 0 0 127 0" result="hardAlpha"/>
<feOffset dx="5" dy="5"/>
<feGaussianBlur stdDeviation="1"/>
<feComposite in2="hardAlpha" operator="arithmetic" k2="-1" k3="1"/>
<feColorMatrix type="matrix" values="0 0 0 0 1 0 0 0 0 1 0 0 0 0 1 0 0 0 0.45 0"/>
<feBlend mode="normal" in2="shape" result="effect2_innerShadow_860_10830"/>
</filter>
<linearGradient id="paint0_linear_860_10830" x1="190.636" y1="62.0001" x2="2.70326" y2="165.854" gradientUnits="userSpaceOnUse">
<stop stop-color="#FFC946"/>
<stop offset="1" stop-color="white"/>
</linearGradient>
</defs>
</svg>
