<svg width="208" height="230" viewBox="0 0 208 230" fill="none" xmlns="http://www.w3.org/2000/svg">
<g filter="url(#filter0_di_860_10794)">
<path d="M109.856 221.027C104.979 223.775 99.0206 223.775 94.1438 221.027L10.1438 173.681C5.11251 170.845 2 165.518 2 159.743L2 65.712C2 59.9366 5.11251 54.6094 10.1438 51.7736L94.1438 4.42812C99.0206 1.67936 104.979 1.67936 109.856 4.42812L193.856 51.7736C198.887 54.6094 202 59.9366 202 65.712L202 159.743C202 165.518 198.887 170.845 193.856 173.681L109.856 221.027Z" fill="white"/>
<path d="M109.856 221.027C104.979 223.775 99.0206 223.775 94.1438 221.027L10.1438 173.681C5.11251 170.845 2 165.518 2 159.743L2 65.712C2 59.9366 5.11251 54.6094 10.1438 51.7736L94.1438 4.42812C99.0206 1.67936 104.979 1.67936 109.856 4.42812L193.856 51.7736C198.887 54.6094 202 59.9366 202 65.712L202 159.743C202 165.518 198.887 170.845 193.856 173.681L109.856 221.027Z" fill="url(#paint0_linear_860_10794)" fill-opacity="0.1"/>
<path d="M96.5989 216.671L12.5989 169.325C9.13984 167.376 7 163.713 7 159.743L6.99999 65.712C6.99999 61.7414 9.13985 58.079 12.5989 56.1293L96.5989 8.78388C99.9517 6.89411 104.048 6.89411 107.401 8.78388L191.401 56.1293C194.86 58.0789 197 61.7414 197 65.712L197 159.743C197 163.713 194.86 167.376 191.401 169.325L107.401 216.671C104.048 218.561 99.9517 218.561 96.5989 216.671Z" stroke="#FFC946" stroke-width="10"/>
</g>
<path d="M76.7195 117.785H74.118V110.027H70.368V107.917H74.118V102.316H76.7195V117.785ZM58.9305 113.214C60.0242 112.855 60.9617 112.331 61.743 111.644C62.5242 110.949 63.1141 110.16 63.5125 109.277C63.9109 108.386 64.1101 107.464 64.1101 106.511V105.949H59.7039V103.839H71.1414V105.949H66.7586V106.535C66.7586 107.402 66.95 108.249 67.3328 109.078C67.7156 109.898 68.282 110.636 69.032 111.292C69.782 111.941 70.6883 112.441 71.7508 112.792L70.4383 114.878C69.282 114.48 68.282 113.902 67.4383 113.144C66.6023 112.378 65.9461 111.48 65.4695 110.449C64.993 111.589 64.3133 112.581 63.4305 113.425C62.5476 114.269 61.493 114.902 60.2664 115.324L58.9305 113.214ZM62.8211 116.425H65.4226V120.949H77.2586V123.058H62.8211V116.425ZM87.3133 108.316C87.3055 109.417 87.5125 110.531 87.9344 111.656C88.3641 112.781 88.9812 113.808 89.7859 114.738C90.5906 115.66 91.532 116.37 92.6101 116.87L91.157 118.933C89.993 118.386 88.9734 117.585 88.0984 116.531C87.2234 115.468 86.5398 114.253 86.0476 112.886C85.5555 114.378 84.8562 115.703 83.95 116.859C83.0437 118.015 81.993 118.878 80.7976 119.449L79.2742 117.41C80.368 116.894 81.325 116.148 82.1453 115.171C82.9656 114.195 83.5945 113.105 84.032 111.902C84.4773 110.699 84.7039 109.503 84.7117 108.316V106.535H80.0945V104.378H91.743V106.535H87.3133V108.316ZM93.7117 102.292H96.3133V110.542H99.5711V112.722H96.3133V123.48H93.7117V102.292ZM114.196 105.972C114.196 106.855 114.395 107.714 114.794 108.55C115.2 109.378 115.79 110.117 116.563 110.765C117.345 111.413 118.282 111.91 119.376 112.253L118.04 114.269C116.86 113.886 115.837 113.32 114.97 112.57C114.102 111.812 113.419 110.917 112.919 109.886C112.434 111.003 111.743 111.976 110.845 112.804C109.954 113.632 108.891 114.253 107.657 114.667L106.321 112.652C107.423 112.277 108.368 111.745 109.157 111.058C109.946 110.363 110.544 109.578 110.95 108.703C111.356 107.82 111.563 106.91 111.571 105.972V105.714H107.001V103.628H118.649V105.714H114.196V105.972ZM109.345 116.05H123.805V123.48H121.18V118.16H109.345V116.05ZM121.18 102.292H123.805V115.066H121.18V102.292ZM144.548 117.62H141.923V102.316H144.548V117.62ZM127.274 108.995C127.274 107.988 127.524 107.081 128.024 106.277C128.532 105.472 129.22 104.843 130.087 104.39C130.962 103.929 131.93 103.699 132.993 103.699C134.055 103.699 135.02 103.929 135.887 104.39C136.762 104.843 137.446 105.472 137.938 106.277C138.438 107.081 138.688 107.988 138.688 108.995C138.688 110.019 138.438 110.937 137.938 111.749C137.446 112.554 136.762 113.183 135.887 113.636C135.02 114.089 134.055 114.316 132.993 114.316C131.93 114.316 130.962 114.089 130.087 113.636C129.22 113.183 128.532 112.554 128.024 111.749C127.524 110.937 127.274 110.019 127.274 108.995ZM129.829 108.995C129.829 109.605 129.962 110.14 130.227 110.601C130.501 111.062 130.876 111.417 131.352 111.667C131.837 111.917 132.384 112.042 132.993 112.042C133.587 112.042 134.122 111.917 134.598 111.667C135.075 111.417 135.45 111.062 135.723 110.601C135.997 110.14 136.134 109.605 136.134 108.995C136.134 108.402 135.997 107.874 135.723 107.413C135.45 106.953 135.071 106.597 134.587 106.347C134.11 106.097 133.579 105.972 132.993 105.972C132.391 105.972 131.848 106.097 131.364 106.347C130.88 106.597 130.501 106.953 130.227 107.413C129.962 107.874 129.829 108.402 129.829 108.995ZM130.532 116.074H133.157V120.949H145.134V123.058H130.532V116.074Z" fill="#555555"/>
<defs>
<filter id="filter0_di_860_10794" x="0" y="0.366577" width="208" height="228.722" filterUnits="userSpaceOnUse" color-interpolation-filters="sRGB">
<feFlood flood-opacity="0" result="BackgroundImageFix"/>
<feColorMatrix in="SourceAlpha" type="matrix" values="0 0 0 0 0 0 0 0 0 0 0 0 0 0 0 0 0 0 127 0" result="hardAlpha"/>
<feOffset dx="2" dy="2"/>
<feGaussianBlur stdDeviation="2"/>
<feColorMatrix type="matrix" values="0 0 0 0 0 0 0 0 0 0 0 0 0 0 0 0 0 0 0.25 0"/>
<feBlend mode="normal" in2="BackgroundImageFix" result="effect1_dropShadow_860_10794"/>
<feBlend mode="normal" in="SourceGraphic" in2="effect1_dropShadow_860_10794" result="shape"/>
<feColorMatrix in="SourceAlpha" type="matrix" values="0 0 0 0 0 0 0 0 0 0 0 0 0 0 0 0 0 0 127 0" result="hardAlpha"/>
<feOffset dx="5" dy="5"/>
<feGaussianBlur stdDeviation="1"/>
<feComposite in2="hardAlpha" operator="arithmetic" k2="-1" k3="1"/>
<feColorMatrix type="matrix" values="0 0 0 0 1 0 0 0 0 1 0 0 0 0 1 0 0 0 0.45 0"/>
<feBlend mode="normal" in2="shape" result="effect2_innerShadow_860_10794"/>
</filter>
<linearGradient id="paint0_linear_860_10794" x1="190.636" y1="62.0001" x2="2.70326" y2="165.854" gradientUnits="userSpaceOnUse">
<stop stop-color="#FFC946"/>
<stop offset="1" stop-color="white"/>
</linearGradient>
</defs>
</svg>
