<svg width="208" height="230" viewBox="0 0 208 230" fill="none" xmlns="http://www.w3.org/2000/svg">
<g filter="url(#filter0_di_860_10806)">
<path d="M109.856 221.027C104.979 223.775 99.0206 223.775 94.1438 221.027L10.1438 173.681C5.11251 170.845 2 165.518 2 159.743L2 65.712C2 59.9366 5.11251 54.6094 10.1438 51.7736L94.1438 4.42812C99.0206 1.67936 104.979 1.67936 109.856 4.42812L193.856 51.7736C198.887 54.6094 202 59.9366 202 65.712L202 159.743C202 165.518 198.887 170.845 193.856 173.681L109.856 221.027Z" fill="white"/>
<path d="M109.856 221.027C104.979 223.775 99.0206 223.775 94.1438 221.027L10.1438 173.681C5.11251 170.845 2 165.518 2 159.743L2 65.712C2 59.9366 5.11251 54.6094 10.1438 51.7736L94.1438 4.42812C99.0206 1.67936 104.979 1.67936 109.856 4.42812L193.856 51.7736C198.887 54.6094 202 59.9366 202 65.712L202 159.743C202 165.518 198.887 170.845 193.856 173.681L109.856 221.027Z" fill="url(#paint0_linear_860_10806)" fill-opacity="0.1"/>
<path d="M96.5989 216.671L12.5989 169.325C9.13984 167.376 7 163.713 7 159.743L6.99999 65.712C6.99999 61.7414 9.13985 58.079 12.5989 56.1293L96.5989 8.78388C99.9517 6.89411 104.048 6.89411 107.401 8.78388L191.401 56.1293C194.86 58.0789 197 61.7414 197 65.712L197 159.743C197 163.713 194.86 167.376 191.401 169.325L107.401 216.671C104.048 218.561 99.9517 218.561 96.5989 216.671Z" stroke="#FFC946" stroke-width="10"/>
</g>
<path d="M78.2898 116.214H69.8758V123.456H67.2976V116.214H58.9773V114.105H78.2898V116.214ZM59.9851 110.636C61.3367 110.464 62.5398 110.124 63.5945 109.617C64.657 109.109 65.493 108.499 66.1023 107.788C66.7195 107.07 67.0594 106.324 67.1219 105.55H60.7586V103.488H76.5086V105.55H70.1453C70.2078 106.324 70.5398 107.07 71.1414 107.788C71.7508 108.499 72.5867 109.109 73.6492 109.617C74.7117 110.124 75.9226 110.464 77.282 110.636L76.3445 112.675C74.5476 112.417 72.9734 111.898 71.6219 111.117C70.2781 110.335 69.282 109.37 68.6336 108.222C67.9773 109.37 66.9812 110.335 65.6453 111.117C64.3094 111.898 62.7508 112.417 60.9695 112.675L59.9851 110.636ZM87.1726 109.019C87.1726 110.081 87.368 111.14 87.7586 112.195C88.1492 113.249 88.7234 114.21 89.4812 115.078C90.2469 115.945 91.157 116.628 92.2117 117.128L90.7586 119.097C89.6414 118.581 88.6687 117.831 87.8406 116.847C87.0203 115.863 86.3797 114.734 85.9187 113.46C85.4422 114.835 84.7664 116.05 83.8914 117.105C83.0242 118.152 82.0008 118.941 80.8211 119.472L79.3914 117.456C80.4695 116.972 81.3992 116.281 82.1805 115.382C82.9695 114.484 83.5672 113.48 83.9734 112.37C84.3875 111.261 84.5945 110.144 84.5945 109.019V107.917H80.0711V105.831H84.5945V102.738H87.1961V105.831H91.6492V107.917H87.1726V109.019ZM93.7117 102.292H96.3133V110.683H99.5711V112.863H96.3133V123.48H93.7117V102.292ZM123.805 117.785H121.18V102.316H123.805V117.785ZM106.18 112.792C107.29 112.402 108.235 111.835 109.016 111.093C109.798 110.343 110.384 109.492 110.774 108.538C111.173 107.578 111.368 106.581 111.36 105.55V103.488H114.055V105.55C114.048 106.55 114.235 107.503 114.618 108.41C115.009 109.316 115.587 110.12 116.352 110.824C117.118 111.519 118.048 112.05 119.141 112.417L117.805 114.48C116.618 114.066 115.595 113.456 114.735 112.652C113.876 111.839 113.208 110.882 112.731 109.781C112.255 110.968 111.575 111.999 110.692 112.874C109.809 113.749 108.759 114.41 107.54 114.855L106.18 112.792ZM109.79 116.308H112.415V120.949H124.391V123.058H109.79V116.308ZM134.516 106.816C134.509 107.597 134.704 108.355 135.102 109.089C135.509 109.816 136.098 110.464 136.872 111.035C137.645 111.605 138.571 112.035 139.649 112.324L138.43 114.339C137.235 114.011 136.196 113.511 135.313 112.839C134.438 112.16 133.755 111.351 133.262 110.413C132.786 111.476 132.106 112.394 131.223 113.167C130.341 113.941 129.282 114.511 128.048 114.878L126.829 112.863C127.907 112.535 128.829 112.062 129.595 111.445C130.36 110.82 130.938 110.109 131.329 109.312C131.72 108.515 131.915 107.683 131.915 106.816V106.699H127.485V104.636H131.915V102.199H134.54V104.636H138.946V106.699H134.516V106.816ZM130.274 119.472C130.266 118.644 130.552 117.937 131.13 117.351C131.708 116.757 132.536 116.308 133.614 116.003C134.7 115.691 135.985 115.535 137.47 115.535C138.962 115.535 140.247 115.691 141.325 116.003C142.411 116.308 143.247 116.757 143.833 117.351C144.419 117.937 144.712 118.644 144.712 119.472C144.712 120.3 144.419 121.015 143.833 121.617C143.247 122.218 142.411 122.675 141.325 122.988C140.239 123.3 138.954 123.456 137.47 123.456C135.985 123.456 134.7 123.296 133.614 122.976C132.536 122.663 131.708 122.206 131.13 121.605C130.552 121.011 130.266 120.3 130.274 119.472ZM132.852 119.472C132.845 120.097 133.243 120.581 134.048 120.925C134.86 121.269 136.001 121.441 137.47 121.441C138.962 121.441 140.106 121.273 140.903 120.937C141.708 120.593 142.11 120.105 142.11 119.472C142.11 118.839 141.712 118.359 140.915 118.031C140.126 117.703 138.977 117.535 137.47 117.527C135.985 117.535 134.841 117.706 134.036 118.042C133.239 118.37 132.845 118.847 132.852 119.472ZM138.313 108.105H142.04V102.292H144.641V115.113H142.04V110.214H138.313V108.105Z" fill="#555555"/>
<defs>
<filter id="filter0_di_860_10806" x="0" y="0.366577" width="208" height="228.722" filterUnits="userSpaceOnUse" color-interpolation-filters="sRGB">
<feFlood flood-opacity="0" result="BackgroundImageFix"/>
<feColorMatrix in="SourceAlpha" type="matrix" values="0 0 0 0 0 0 0 0 0 0 0 0 0 0 0 0 0 0 127 0" result="hardAlpha"/>
<feOffset dx="2" dy="2"/>
<feGaussianBlur stdDeviation="2"/>
<feColorMatrix type="matrix" values="0 0 0 0 0 0 0 0 0 0 0 0 0 0 0 0 0 0 0.25 0"/>
<feBlend mode="normal" in2="BackgroundImageFix" result="effect1_dropShadow_860_10806"/>
<feBlend mode="normal" in="SourceGraphic" in2="effect1_dropShadow_860_10806" result="shape"/>
<feColorMatrix in="SourceAlpha" type="matrix" values="0 0 0 0 0 0 0 0 0 0 0 0 0 0 0 0 0 0 127 0" result="hardAlpha"/>
<feOffset dx="5" dy="5"/>
<feGaussianBlur stdDeviation="1"/>
<feComposite in2="hardAlpha" operator="arithmetic" k2="-1" k3="1"/>
<feColorMatrix type="matrix" values="0 0 0 0 1 0 0 0 0 1 0 0 0 0 1 0 0 0 0.45 0"/>
<feBlend mode="normal" in2="shape" result="effect2_innerShadow_860_10806"/>
</filter>
<linearGradient id="paint0_linear_860_10806" x1="190.636" y1="62.0001" x2="2.70326" y2="165.854" gradientUnits="userSpaceOnUse">
<stop stop-color="#FFC946"/>
<stop offset="1" stop-color="white"/>
</linearGradient>
</defs>
</svg>
