<svg width="208" height="230" viewBox="0 0 208 230" fill="none" xmlns="http://www.w3.org/2000/svg">
<g filter="url(#filter0_di_860_10803)">
<path d="M109.856 221.027C104.979 223.775 99.0206 223.775 94.1438 221.027L10.1438 173.681C5.11251 170.845 2 165.518 2 159.743L2 65.712C2 59.9366 5.11251 54.6094 10.1438 51.7736L94.1438 4.42812C99.0206 1.67936 104.979 1.67936 109.856 4.42812L193.856 51.7736C198.887 54.6094 202 59.9366 202 65.712L202 159.743C202 165.518 198.887 170.845 193.856 173.681L109.856 221.027Z" fill="white"/>
<path d="M109.856 221.027C104.979 223.775 99.0206 223.775 94.1438 221.027L10.1438 173.681C5.11251 170.845 2 165.518 2 159.743L2 65.712C2 59.9366 5.11251 54.6094 10.1438 51.7736L94.1438 4.42812C99.0206 1.67936 104.979 1.67936 109.856 4.42812L193.856 51.7736C198.887 54.6094 202 59.9366 202 65.712L202 159.743C202 165.518 198.887 170.845 193.856 173.681L109.856 221.027Z" fill="url(#paint0_linear_860_10803)" fill-opacity="0.1"/>
<path d="M96.5989 216.671L12.5989 169.325C9.13984 167.376 7 163.713 7 159.743L6.99999 65.712C6.99999 61.7414 9.13985 58.079 12.5989 56.1293L96.5989 8.78388C99.9517 6.89411 104.048 6.89411 107.401 8.78388L191.401 56.1293C194.86 58.0789 197 61.7414 197 65.712L197 159.743C197 163.713 194.86 167.376 191.401 169.325L107.401 216.671C104.048 218.561 99.9517 218.561 96.5989 216.671Z" stroke="#FFC946" stroke-width="10"/>
</g>
<path d="M69.4187 108.316C69.4109 109.417 69.618 110.531 70.0398 111.656C70.4695 112.781 71.0867 113.808 71.8914 114.738C72.6961 115.66 73.6375 116.37 74.7156 116.87L73.2625 118.933C72.0984 118.386 71.0789 117.585 70.2039 116.531C69.3289 115.468 68.6453 114.253 68.1531 112.886C67.6609 114.378 66.9617 115.703 66.0555 116.859C65.1492 118.015 64.0984 118.878 62.9031 119.449L61.3797 117.41C62.4734 116.894 63.4305 116.148 64.2508 115.171C65.0711 114.195 65.7 113.105 66.1375 111.902C66.5828 110.699 66.8094 109.503 66.8172 108.316V106.535H62.2V104.378H73.8484V106.535H69.4187V108.316ZM75.8172 102.292H78.4187V110.542H81.6766V112.722H78.4187V123.48H75.8172V102.292ZM90.1609 106.042C90.1531 106.98 90.3406 107.882 90.7234 108.749C91.1141 109.609 91.6922 110.37 92.4578 111.035C93.2234 111.699 94.1453 112.206 95.2234 112.558L93.8641 114.62C92.7156 114.23 91.7195 113.656 90.8758 112.898C90.0398 112.132 89.3875 111.23 88.9187 110.191C88.4422 111.339 87.7664 112.331 86.8914 113.167C86.0164 114.003 84.9734 114.636 83.7625 115.066L82.3094 113.003C83.4344 112.636 84.3875 112.097 85.1687 111.386C85.9578 110.675 86.5476 109.859 86.9383 108.937C87.3367 108.015 87.5359 107.042 87.5359 106.019V103.605H90.1609V106.042ZM85.7078 116.331H88.3797V120.949H100.122V123.058H85.7078V116.331ZM96.6766 102.292H99.2781V108.55H102.231V110.753H99.2781V117.855H96.6766V102.292ZM115.145 105.128V105.41C115.13 106.456 115.091 107.437 115.028 108.351C114.966 109.257 114.833 110.261 114.63 111.363L112.052 111.128C112.239 110.144 112.368 109.245 112.438 108.433C112.516 107.62 112.563 106.816 112.579 106.019H104.341V103.863H115.145V105.128ZM103.509 113.05C105.212 113.035 106.45 113.019 107.223 113.003V108.691H109.802V112.921C112.309 112.812 114.473 112.628 116.294 112.37L116.434 114.245C114.473 114.597 112.415 114.831 110.259 114.949C108.102 115.066 105.786 115.128 103.309 115.136L103.075 113.05H103.509ZM106.239 116.753H108.864V120.949H120.887V123.058H106.239V116.753ZM117.536 102.292H120.208V108.902H122.95V111.081H120.208V118.16H117.536V102.292ZM141.7 123.503H139.122V102.292H141.7V123.503ZM125.2 104.144H135.184V112.089H127.895V116.355C129.661 116.339 131.294 116.277 132.794 116.167C134.294 116.058 135.833 115.87 137.411 115.605L137.645 117.738C136.005 118.019 134.387 118.214 132.794 118.324C131.208 118.433 129.442 118.488 127.497 118.488H127.075H125.223V110.027H132.536V106.253H125.2V104.144Z" fill="#555555"/>
<defs>
<filter id="filter0_di_860_10803" x="0" y="0.366577" width="208" height="228.722" filterUnits="userSpaceOnUse" color-interpolation-filters="sRGB">
<feFlood flood-opacity="0" result="BackgroundImageFix"/>
<feColorMatrix in="SourceAlpha" type="matrix" values="0 0 0 0 0 0 0 0 0 0 0 0 0 0 0 0 0 0 127 0" result="hardAlpha"/>
<feOffset dx="2" dy="2"/>
<feGaussianBlur stdDeviation="2"/>
<feColorMatrix type="matrix" values="0 0 0 0 0 0 0 0 0 0 0 0 0 0 0 0 0 0 0.25 0"/>
<feBlend mode="normal" in2="BackgroundImageFix" result="effect1_dropShadow_860_10803"/>
<feBlend mode="normal" in="SourceGraphic" in2="effect1_dropShadow_860_10803" result="shape"/>
<feColorMatrix in="SourceAlpha" type="matrix" values="0 0 0 0 0 0 0 0 0 0 0 0 0 0 0 0 0 0 127 0" result="hardAlpha"/>
<feOffset dx="5" dy="5"/>
<feGaussianBlur stdDeviation="1"/>
<feComposite in2="hardAlpha" operator="arithmetic" k2="-1" k3="1"/>
<feColorMatrix type="matrix" values="0 0 0 0 1 0 0 0 0 1 0 0 0 0 1 0 0 0 0.45 0"/>
<feBlend mode="normal" in2="shape" result="effect2_innerShadow_860_10803"/>
</filter>
<linearGradient id="paint0_linear_860_10803" x1="190.636" y1="62.0001" x2="2.70326" y2="165.854" gradientUnits="userSpaceOnUse">
<stop stop-color="#FFC946"/>
<stop offset="1" stop-color="white"/>
</linearGradient>
</defs>
</svg>
