<svg width="208" height="230" viewBox="0 0 208 230" fill="none" xmlns="http://www.w3.org/2000/svg">
<g filter="url(#filter0_di_860_10785)">
<path d="M109.856 221.026C104.979 223.775 99.0206 223.775 94.1438 221.026L10.1438 173.681C5.11251 170.845 2 165.518 2 159.743L2 65.7119C2 59.9365 5.11251 54.6093 10.1438 51.7735L94.1438 4.42806C99.0206 1.6793 104.979 1.6793 109.856 4.42806L193.856 51.7735C198.887 54.6093 202 59.9365 202 65.7119L202 159.743C202 165.518 198.887 170.845 193.856 173.681L109.856 221.026Z" fill="white"/>
<path d="M109.856 221.026C104.979 223.775 99.0206 223.775 94.1438 221.026L10.1438 173.681C5.11251 170.845 2 165.518 2 159.743L2 65.7119C2 59.9365 5.11251 54.6093 10.1438 51.7735L94.1438 4.42806C99.0206 1.6793 104.979 1.6793 109.856 4.42806L193.856 51.7735C198.887 54.6093 202 59.9365 202 65.7119L202 159.743C202 165.518 198.887 170.845 193.856 173.681L109.856 221.026Z" fill="url(#paint0_linear_860_10785)" fill-opacity="0.1"/>
<path d="M96.5989 216.671L12.5989 169.325C9.13984 167.376 7 163.713 7 159.743L6.99999 65.7119C6.99999 61.7413 9.13985 58.0789 12.5989 56.1293L96.5989 8.78382C99.9517 6.89405 104.048 6.89405 107.401 8.78382L191.401 56.1293C194.86 58.0789 197 61.7413 197 65.7119L197 159.743C197 163.713 194.86 167.376 191.401 169.325L107.401 216.671C104.048 218.56 99.9517 218.56 96.5989 216.671Z" stroke="#FFC946" stroke-width="10"/>
</g>
<path d="M78.2898 115.042H58.9773V112.956H67.2976V110.917H61.4851V102.808H64.0633V104.917H73.2039V102.808H75.782V110.917H69.9226V112.956H78.2898V115.042ZM61.1101 116.73H75.9226V123.48H73.3211V118.792H61.1101V116.73ZM73.2039 108.831V106.863H64.0633V108.831H73.2039ZM97.368 123.503H94.7898V102.292H97.368V123.503ZM80.868 104.144H90.8523V112.089H83.5633V116.355C85.3289 116.339 86.9617 116.277 88.4617 116.167C89.9617 116.058 91.5008 115.87 93.0789 115.605L93.3133 117.738C91.6726 118.019 90.0555 118.214 88.4617 118.324C86.8758 118.433 85.1101 118.488 83.1648 118.488H82.743H80.8914V110.027H88.2039V106.253H80.868V104.144ZM124.415 106.675H107.118V104.566H114.501V102.245H117.079V104.566H124.415V106.675ZM106.157 115.98H125.516V118.113H117.079V123.503H114.501V118.113H106.157V115.98ZM108.618 111.222C108.618 110.456 108.903 109.808 109.473 109.277C110.044 108.738 110.864 108.331 111.934 108.058C113.012 107.777 114.298 107.636 115.79 107.636C117.282 107.636 118.563 107.777 119.634 108.058C120.712 108.331 121.536 108.738 122.106 109.277C122.677 109.808 122.962 110.456 122.962 111.222C122.962 111.988 122.677 112.64 122.106 113.179C121.536 113.71 120.712 114.117 119.634 114.398C118.563 114.671 117.282 114.808 115.79 114.808C114.298 114.808 113.012 114.671 111.934 114.398C110.864 114.117 110.044 113.71 109.473 113.179C108.903 112.64 108.618 111.988 108.618 111.222ZM111.337 111.222C111.329 111.761 111.692 112.171 112.427 112.453C113.169 112.726 114.259 112.863 115.696 112.863C117.196 112.863 118.329 112.726 119.095 112.453C119.868 112.179 120.259 111.769 120.266 111.222C120.259 110.683 119.876 110.277 119.118 110.003C118.36 109.722 117.251 109.581 115.79 109.581C114.321 109.581 113.208 109.722 112.45 110.003C111.7 110.277 111.329 110.683 111.337 111.222ZM133.509 106.23C133.516 107.011 133.673 107.769 133.977 108.503C134.282 109.23 134.743 109.89 135.36 110.484C135.977 111.07 136.735 111.535 137.634 111.878L136.251 113.87C135.337 113.527 134.544 113.035 133.872 112.394C133.208 111.753 132.68 111.007 132.29 110.156C131.884 111.14 131.329 112.011 130.626 112.769C129.93 113.519 129.095 114.097 128.118 114.503L126.712 112.511C127.649 112.097 128.438 111.55 129.079 110.87C129.72 110.191 130.196 109.453 130.509 108.656C130.829 107.851 130.993 107.042 131.001 106.23V103.605H133.509V106.23ZM130.602 119.542C130.602 118.738 130.895 118.042 131.481 117.456C132.067 116.87 132.907 116.425 134.001 116.12C135.095 115.808 136.384 115.652 137.868 115.652C139.337 115.652 140.618 115.808 141.712 116.12C142.805 116.425 143.649 116.87 144.243 117.456C144.837 118.042 145.134 118.738 145.134 119.542C145.134 120.347 144.837 121.042 144.243 121.628C143.649 122.222 142.805 122.675 141.712 122.988C140.618 123.3 139.337 123.456 137.868 123.456C136.384 123.456 135.095 123.3 134.001 122.988C132.907 122.675 132.067 122.222 131.481 121.628C130.895 121.042 130.602 120.347 130.602 119.542ZM133.204 119.542C133.196 120.16 133.595 120.636 134.399 120.972C135.204 121.3 136.337 121.464 137.798 121.464C139.29 121.464 140.446 121.3 141.266 120.972C142.087 120.644 142.501 120.167 142.509 119.542C142.501 118.925 142.091 118.453 141.278 118.124C140.466 117.788 139.329 117.62 137.868 117.62C136.384 117.62 135.231 117.788 134.411 118.124C133.598 118.453 133.196 118.925 133.204 119.542ZM137.985 102.714H140.423V107.66H142.532V102.316H145.016V115.3H142.532V109.792H140.423V114.644H137.985V102.714Z" fill="#555555"/>
<defs>
<filter id="filter0_di_860_10785" x="0" y="0.366516" width="208" height="228.722" filterUnits="userSpaceOnUse" color-interpolation-filters="sRGB">
<feFlood flood-opacity="0" result="BackgroundImageFix"/>
<feColorMatrix in="SourceAlpha" type="matrix" values="0 0 0 0 0 0 0 0 0 0 0 0 0 0 0 0 0 0 127 0" result="hardAlpha"/>
<feOffset dx="2" dy="2"/>
<feGaussianBlur stdDeviation="2"/>
<feColorMatrix type="matrix" values="0 0 0 0 0 0 0 0 0 0 0 0 0 0 0 0 0 0 0.25 0"/>
<feBlend mode="normal" in2="BackgroundImageFix" result="effect1_dropShadow_860_10785"/>
<feBlend mode="normal" in="SourceGraphic" in2="effect1_dropShadow_860_10785" result="shape"/>
<feColorMatrix in="SourceAlpha" type="matrix" values="0 0 0 0 0 0 0 0 0 0 0 0 0 0 0 0 0 0 127 0" result="hardAlpha"/>
<feOffset dx="5" dy="5"/>
<feGaussianBlur stdDeviation="1"/>
<feComposite in2="hardAlpha" operator="arithmetic" k2="-1" k3="1"/>
<feColorMatrix type="matrix" values="0 0 0 0 1 0 0 0 0 1 0 0 0 0 1 0 0 0 0.45 0"/>
<feBlend mode="normal" in2="shape" result="effect2_innerShadow_860_10785"/>
</filter>
<linearGradient id="paint0_linear_860_10785" x1="190.636" y1="62" x2="2.70326" y2="165.854" gradientUnits="userSpaceOnUse">
<stop stop-color="#FFC946"/>
<stop offset="1" stop-color="white"/>
</linearGradient>
</defs>
</svg>
