<svg width="208" height="230" viewBox="0 0 208 230" fill="none" xmlns="http://www.w3.org/2000/svg">
<g filter="url(#filter0_di_860_10824)">
<path d="M109.856 221.027C104.979 223.775 99.0206 223.775 94.1438 221.027L10.1438 173.681C5.11251 170.845 2 165.518 2 159.743L2 65.712C2 59.9366 5.11251 54.6094 10.1438 51.7736L94.1438 4.42812C99.0206 1.67936 104.979 1.67936 109.856 4.42812L193.856 51.7736C198.887 54.6094 202 59.9366 202 65.712L202 159.743C202 165.518 198.887 170.845 193.856 173.681L109.856 221.027Z" fill="white"/>
<path d="M109.856 221.027C104.979 223.775 99.0206 223.775 94.1438 221.027L10.1438 173.681C5.11251 170.845 2 165.518 2 159.743L2 65.712C2 59.9366 5.11251 54.6094 10.1438 51.7736L94.1438 4.42812C99.0206 1.67936 104.979 1.67936 109.856 4.42812L193.856 51.7736C198.887 54.6094 202 59.9366 202 65.712L202 159.743C202 165.518 198.887 170.845 193.856 173.681L109.856 221.027Z" fill="url(#paint0_linear_860_10824)" fill-opacity="0.1"/>
<path d="M96.5989 216.671L12.5989 169.325C9.13984 167.376 7 163.713 7 159.743L6.99999 65.712C6.99999 61.7414 9.13985 58.079 12.5989 56.1293L96.5989 8.78388C99.9517 6.89411 104.048 6.89411 107.401 8.78388L191.401 56.1293C194.86 58.0789 197 61.7414 197 65.712L197 159.743C197 163.713 194.86 167.376 191.401 169.325L107.401 216.671C104.048 218.561 99.9517 218.561 96.5989 216.671Z" stroke="#FFC946" stroke-width="10"/>
</g>
<path d="M92.1062 115.535C93.6375 115.535 94.9656 115.695 96.0906 116.015C97.2234 116.328 98.0945 116.785 98.7039 117.386C99.3211 117.98 99.6297 118.691 99.6297 119.519C99.6297 120.331 99.3211 121.031 98.7039 121.617C98.0945 122.21 97.2234 122.663 96.0906 122.976C94.9656 123.296 93.6375 123.456 92.1062 123.456C90.5906 123.456 89.2664 123.296 88.1336 122.976C87.0086 122.663 86.1375 122.21 85.5203 121.617C84.9109 121.031 84.6062 120.331 84.6062 119.519C84.6062 118.691 84.9109 117.98 85.5203 117.386C86.1375 116.785 87.0086 116.328 88.1336 116.015C89.2664 115.695 90.5906 115.535 92.1062 115.535ZM82.6141 111.902H90.0672V108.058H92.6453V111.902H101.833V114.011H82.6141V111.902ZM84.8172 103.3H99.4891V105.058V105.679C99.4891 106.593 99.45 107.441 99.3719 108.222C99.3016 109.003 99.1453 109.824 98.9031 110.683L96.325 110.449C96.5594 109.527 96.7117 108.687 96.782 107.929C96.8523 107.171 96.8875 106.316 96.8875 105.363H84.8172V103.3ZM87.2312 119.519C87.2234 120.136 87.6453 120.613 88.4969 120.949C89.3562 121.277 90.5594 121.441 92.1062 121.441C93.6531 121.441 94.8601 121.277 95.7273 120.949C96.6023 120.613 97.0437 120.136 97.0516 119.519C97.0437 118.878 96.6023 118.382 95.7273 118.031C94.8601 117.679 93.6531 117.503 92.1062 117.503C90.5672 117.503 89.368 117.679 88.5086 118.031C87.6492 118.382 87.2234 118.878 87.2312 119.519ZM111.302 108.316C111.302 109.48 111.52 110.632 111.958 111.773C112.403 112.906 113.036 113.925 113.856 114.831C114.684 115.73 115.653 116.41 116.762 116.87L115.333 118.933C114.106 118.402 113.04 117.617 112.134 116.578C111.227 115.531 110.524 114.316 110.024 112.933C109.524 114.417 108.817 115.73 107.903 116.87C106.989 118.011 105.927 118.87 104.716 119.449L103.216 117.41C104.302 116.91 105.255 116.175 106.075 115.206C106.895 114.238 107.528 113.148 107.973 111.937C108.419 110.726 108.645 109.519 108.653 108.316V106.535H103.989V104.378H115.942V106.535H111.302V108.316ZM118.309 102.292H120.934V123.48H118.309V102.292Z" fill="#555555"/>
<defs>
<filter id="filter0_di_860_10824" x="0" y="0.366577" width="208" height="228.722" filterUnits="userSpaceOnUse" color-interpolation-filters="sRGB">
<feFlood flood-opacity="0" result="BackgroundImageFix"/>
<feColorMatrix in="SourceAlpha" type="matrix" values="0 0 0 0 0 0 0 0 0 0 0 0 0 0 0 0 0 0 127 0" result="hardAlpha"/>
<feOffset dx="2" dy="2"/>
<feGaussianBlur stdDeviation="2"/>
<feColorMatrix type="matrix" values="0 0 0 0 0 0 0 0 0 0 0 0 0 0 0 0 0 0 0.25 0"/>
<feBlend mode="normal" in2="BackgroundImageFix" result="effect1_dropShadow_860_10824"/>
<feBlend mode="normal" in="SourceGraphic" in2="effect1_dropShadow_860_10824" result="shape"/>
<feColorMatrix in="SourceAlpha" type="matrix" values="0 0 0 0 0 0 0 0 0 0 0 0 0 0 0 0 0 0 127 0" result="hardAlpha"/>
<feOffset dx="5" dy="5"/>
<feGaussianBlur stdDeviation="1"/>
<feComposite in2="hardAlpha" operator="arithmetic" k2="-1" k3="1"/>
<feColorMatrix type="matrix" values="0 0 0 0 1 0 0 0 0 1 0 0 0 0 1 0 0 0 0.45 0"/>
<feBlend mode="normal" in2="shape" result="effect2_innerShadow_860_10824"/>
</filter>
<linearGradient id="paint0_linear_860_10824" x1="190.636" y1="62.0001" x2="2.70326" y2="165.854" gradientUnits="userSpaceOnUse">
<stop stop-color="#FFC946"/>
<stop offset="1" stop-color="white"/>
</linearGradient>
</defs>
</svg>
