<svg width="208" height="230" viewBox="0 0 208 230" fill="none" xmlns="http://www.w3.org/2000/svg">
<g filter="url(#filter0_di_860_10791)">
<path d="M109.856 221.027C104.979 223.775 99.0206 223.775 94.1438 221.027L10.1438 173.681C5.11251 170.845 2 165.518 2 159.743L2 65.712C2 59.9366 5.11251 54.6094 10.1438 51.7736L94.1438 4.42812C99.0206 1.67936 104.979 1.67936 109.856 4.42812L193.856 51.7736C198.887 54.6094 202 59.9366 202 65.712L202 159.743C202 165.518 198.887 170.845 193.856 173.681L109.856 221.027Z" fill="white"/>
<path d="M109.856 221.027C104.979 223.775 99.0206 223.775 94.1438 221.027L10.1438 173.681C5.11251 170.845 2 165.518 2 159.743L2 65.712C2 59.9366 5.11251 54.6094 10.1438 51.7736L94.1438 4.42812C99.0206 1.67936 104.979 1.67936 109.856 4.42812L193.856 51.7736C198.887 54.6094 202 59.9366 202 65.712L202 159.743C202 165.518 198.887 170.845 193.856 173.681L109.856 221.027Z" fill="url(#paint0_linear_860_10791)" fill-opacity="0.1"/>
<path d="M96.5989 216.671L12.5989 169.325C9.13984 167.376 7 163.713 7 159.743L6.99999 65.712C6.99999 61.7414 9.13985 58.079 12.5989 56.1293L96.5989 8.78388C99.9517 6.89411 104.048 6.89411 107.401 8.78388L191.401 56.1293C194.86 58.0789 197 61.7414 197 65.712L197 159.743C197 163.713 194.86 167.376 191.401 169.325L107.401 216.671C104.048 218.561 99.9517 218.561 96.5989 216.671Z" stroke="#FFC946" stroke-width="10"/>
</g>
<path d="M76.8133 121.652C75.5476 121.652 74.45 121.386 73.5203 120.855C72.5906 120.316 71.8758 119.554 71.3758 118.57C70.8758 117.585 70.6258 116.433 70.6258 115.113C70.6258 113.808 70.8758 112.66 71.3758 111.667C71.8758 110.667 72.5789 109.89 73.4851 109.335C74.3992 108.781 75.4539 108.503 76.6492 108.503C77.7273 108.503 78.7039 108.738 79.5789 109.206C80.4617 109.667 81.1609 110.378 81.6766 111.339C82.2 112.3 82.4617 113.495 82.4617 114.925V115.863H73.5789C73.5945 116.574 73.7351 117.191 74.0008 117.714C74.2742 118.23 74.6492 118.624 75.1258 118.898C75.6101 119.171 76.1726 119.308 76.8133 119.308C77.4539 119.308 77.9969 119.191 78.4422 118.956C78.8875 118.714 79.2117 118.394 79.4148 117.995H82.3445C82.1648 118.73 81.825 119.374 81.325 119.929C80.825 120.476 80.1883 120.902 79.4148 121.206C78.6492 121.503 77.782 121.652 76.8133 121.652ZM79.6023 113.824C79.6023 113.253 79.4773 112.742 79.2273 112.288C78.9851 111.828 78.6414 111.468 78.1961 111.21C77.7586 110.953 77.2586 110.824 76.6961 110.824C76.118 110.824 75.5984 110.96 75.1375 111.234C74.6766 111.499 74.3133 111.863 74.0476 112.324C73.782 112.785 73.6297 113.285 73.5906 113.824H79.6023ZM92.493 115.558H84.8523V113.097H92.493V115.558ZM114.032 114.972H105.852V118.863H103.274V114.972H94.6726V112.886H114.032V114.972ZM97.0164 116.917H99.618V120.949H111.899V123.058H97.0164V116.917ZM97.1336 103.253H111.548V110.917H97.1336V103.253ZM108.97 108.878V105.292H99.6648V108.878H108.97ZM123.266 107.378C123.259 108.706 123.462 109.988 123.876 111.222C124.29 112.456 124.891 113.554 125.68 114.515C126.477 115.468 127.423 116.183 128.516 116.66L126.946 118.745C125.774 118.175 124.766 117.355 123.923 116.285C123.079 115.214 122.427 113.968 121.966 112.546C121.489 114.054 120.817 115.382 119.95 116.531C119.083 117.671 118.055 118.542 116.868 119.144L115.227 117.035C116.345 116.511 117.309 115.745 118.122 114.738C118.934 113.73 119.552 112.585 119.973 111.304C120.395 110.023 120.61 108.714 120.618 107.378V104.003H123.266V107.378ZM126.173 109.136H130.626V102.292H133.204V123.503H130.626V111.245H126.173V109.136Z" fill="#555555"/>
<defs>
<filter id="filter0_di_860_10791" x="0" y="0.366577" width="208" height="228.722" filterUnits="userSpaceOnUse" color-interpolation-filters="sRGB">
<feFlood flood-opacity="0" result="BackgroundImageFix"/>
<feColorMatrix in="SourceAlpha" type="matrix" values="0 0 0 0 0 0 0 0 0 0 0 0 0 0 0 0 0 0 127 0" result="hardAlpha"/>
<feOffset dx="2" dy="2"/>
<feGaussianBlur stdDeviation="2"/>
<feColorMatrix type="matrix" values="0 0 0 0 0 0 0 0 0 0 0 0 0 0 0 0 0 0 0.25 0"/>
<feBlend mode="normal" in2="BackgroundImageFix" result="effect1_dropShadow_860_10791"/>
<feBlend mode="normal" in="SourceGraphic" in2="effect1_dropShadow_860_10791" result="shape"/>
<feColorMatrix in="SourceAlpha" type="matrix" values="0 0 0 0 0 0 0 0 0 0 0 0 0 0 0 0 0 0 127 0" result="hardAlpha"/>
<feOffset dx="5" dy="5"/>
<feGaussianBlur stdDeviation="1"/>
<feComposite in2="hardAlpha" operator="arithmetic" k2="-1" k3="1"/>
<feColorMatrix type="matrix" values="0 0 0 0 1 0 0 0 0 1 0 0 0 0 1 0 0 0 0.45 0"/>
<feBlend mode="normal" in2="shape" result="effect2_innerShadow_860_10791"/>
</filter>
<linearGradient id="paint0_linear_860_10791" x1="190.636" y1="62.0001" x2="2.70326" y2="165.854" gradientUnits="userSpaceOnUse">
<stop stop-color="#FFC946"/>
<stop offset="1" stop-color="white"/>
</linearGradient>
</defs>
</svg>
