<svg width="208" height="230" viewBox="0 0 208 230" fill="none" xmlns="http://www.w3.org/2000/svg">
<g filter="url(#filter0_di_860_10800)">
<path d="M109.856 221.027C104.979 223.775 99.0206 223.775 94.1438 221.027L10.1438 173.681C5.11251 170.845 2 165.518 2 159.743L2 65.712C2 59.9366 5.11251 54.6094 10.1438 51.7736L94.1438 4.42812C99.0206 1.67936 104.979 1.67936 109.856 4.42812L193.856 51.7736C198.887 54.6094 202 59.9366 202 65.712L202 159.743C202 165.518 198.887 170.845 193.856 173.681L109.856 221.027Z" fill="white"/>
<path d="M109.856 221.027C104.979 223.775 99.0206 223.775 94.1438 221.027L10.1438 173.681C5.11251 170.845 2 165.518 2 159.743L2 65.712C2 59.9366 5.11251 54.6094 10.1438 51.7736L94.1438 4.42812C99.0206 1.67936 104.979 1.67936 109.856 4.42812L193.856 51.7736C198.887 54.6094 202 59.9366 202 65.712L202 159.743C202 165.518 198.887 170.845 193.856 173.681L109.856 221.027Z" fill="url(#paint0_linear_860_10800)" fill-opacity="0.1"/>
<path d="M96.5989 216.671L12.5989 169.325C9.13984 167.376 7 163.713 7 159.743L6.99999 65.712C6.99999 61.7414 9.13985 58.079 12.5989 56.1293L96.5989 8.78388C99.9517 6.89411 104.048 6.89411 107.401 8.78388L191.401 56.1293C194.86 58.0789 197 61.7414 197 65.712L197 159.743C197 163.713 194.86 167.376 191.401 169.325L107.401 216.671C104.048 218.561 99.9517 218.561 96.5989 216.671Z" stroke="#FFC946" stroke-width="10"/>
</g>
<path d="M58.2391 103.488C59.7469 103.488 61.0984 103.726 62.2937 104.203C63.4969 104.679 64.4383 105.351 65.118 106.218C65.7976 107.085 66.1375 108.081 66.1375 109.206C66.1375 110.245 65.8601 111.171 65.3055 111.984C64.7508 112.796 63.9734 113.453 62.9734 113.953C61.9734 114.445 60.825 114.757 59.5281 114.89V118.769H67.9656V120.902H48.6062V118.769H56.95V114.89C55.6609 114.757 54.5203 114.445 53.5281 113.953C52.5359 113.453 51.7625 112.796 51.2078 111.984C50.6609 111.171 50.3875 110.245 50.3875 109.206C50.3875 108.081 50.7234 107.085 51.3953 106.218C52.075 105.351 53.0086 104.679 54.1961 104.203C55.3914 103.726 56.7391 103.488 58.2391 103.488ZM52.9422 109.206C52.9422 109.956 53.1648 110.609 53.6101 111.163C54.0555 111.71 54.6805 112.132 55.4851 112.429C56.2898 112.718 57.2078 112.863 58.2391 112.863C59.2859 112.863 60.2117 112.718 61.0164 112.429C61.8289 112.132 62.4578 111.71 62.9031 111.163C63.3562 110.609 63.5828 109.956 63.5828 109.206C63.5828 108.48 63.3562 107.843 62.9031 107.296C62.45 106.749 61.8172 106.331 61.0047 106.042C60.2 105.745 59.2781 105.597 58.2391 105.597C57.2078 105.597 56.2898 105.745 55.4851 106.042C54.6883 106.331 54.0633 106.749 53.6101 107.296C53.1648 107.843 52.9422 108.48 52.9422 109.206ZM87.0437 123.48H84.4187V102.292H87.0437V123.48ZM69.3016 116.331C69.8172 116.331 70.6922 116.324 71.9266 116.308V106.488H69.8641V104.355H81.8875V106.488H79.8484V115.992C80.9969 115.898 81.9891 115.8 82.825 115.699L82.9656 117.644C80.9266 117.972 78.8055 118.191 76.6023 118.3C74.407 118.41 72.0594 118.464 69.5594 118.464L69.3016 116.331ZM74.4344 116.261C75.4969 116.238 76.45 116.199 77.2937 116.144V106.488H74.4344V116.261ZM101.036 105.199C101.036 106.285 101.364 107.343 102.02 108.374C102.684 109.406 103.598 110.296 104.762 111.046C105.927 111.788 107.231 112.285 108.677 112.535L107.505 114.714C105.739 114.347 104.165 113.656 102.782 112.64C101.399 111.624 100.36 110.402 99.6648 108.972C99.2039 109.91 98.5828 110.769 97.8016 111.55C97.0203 112.324 96.1219 112.984 95.1062 113.531C94.0906 114.07 92.9969 114.464 91.825 114.714L90.6766 112.535C92.0984 112.277 93.3875 111.777 94.5437 111.035C95.7078 110.285 96.618 109.394 97.2742 108.363C97.9383 107.331 98.2703 106.277 98.2703 105.199V103.628H101.036V105.199ZM90.0906 118.628H109.45V120.785H90.0906V118.628ZM135.864 114.855H127.684V118.745H125.036V114.855H116.505V112.769H135.864V114.855ZM118.567 107.097C118.567 106.222 118.88 105.456 119.505 104.8C120.137 104.144 121.028 103.64 122.177 103.288C123.325 102.937 124.653 102.761 126.161 102.761C127.677 102.761 129.009 102.937 130.157 103.288C131.305 103.64 132.192 104.144 132.817 104.8C133.442 105.456 133.755 106.222 133.755 107.097C133.755 107.98 133.442 108.745 132.817 109.394C132.192 110.042 131.305 110.542 130.157 110.894C129.009 111.238 127.677 111.41 126.161 111.41C124.645 111.41 123.313 111.238 122.165 110.894C121.024 110.542 120.137 110.042 119.505 109.394C118.88 108.738 118.567 107.972 118.567 107.097ZM118.872 116.777H121.497V120.925H133.731V123.058H118.872V116.777ZM121.38 107.097C121.372 107.558 121.563 107.956 121.954 108.292C122.345 108.628 122.899 108.886 123.618 109.066C124.345 109.238 125.192 109.324 126.161 109.324C127.137 109.324 127.985 109.238 128.704 109.066C129.43 108.886 129.989 108.628 130.38 108.292C130.77 107.956 130.966 107.558 130.966 107.097C130.966 106.62 130.77 106.214 130.38 105.878C129.989 105.535 129.43 105.273 128.704 105.093C127.985 104.913 127.137 104.824 126.161 104.824C125.192 104.824 124.345 104.913 123.618 105.093C122.899 105.273 122.345 105.535 121.954 105.878C121.563 106.214 121.372 106.62 121.38 107.097ZM143.13 103.488C143.981 103.488 144.77 103.636 145.497 103.933C146.223 104.222 146.841 104.636 147.348 105.175H152.411V102.292H155.012V114.761H152.411V112.066H147.337C146.821 112.597 146.2 113.007 145.473 113.296C144.755 113.585 143.973 113.73 143.13 113.73C142.083 113.73 141.134 113.511 140.282 113.074C139.43 112.636 138.762 112.031 138.278 111.257C137.794 110.476 137.552 109.597 137.552 108.62C137.552 107.636 137.794 106.757 138.278 105.984C138.762 105.203 139.427 104.593 140.27 104.156C141.122 103.71 142.075 103.488 143.13 103.488ZM140.036 108.62C140.036 109.191 140.169 109.699 140.434 110.144C140.7 110.581 141.067 110.921 141.536 111.163C142.012 111.406 142.552 111.527 143.153 111.527C143.731 111.527 144.251 111.406 144.712 111.163C145.18 110.921 145.548 110.581 145.813 110.144C146.087 109.699 146.223 109.191 146.223 108.62C146.223 108.035 146.091 107.523 145.825 107.085C145.559 106.648 145.192 106.312 144.723 106.078C144.262 105.835 143.739 105.714 143.153 105.714C142.552 105.714 142.012 105.835 141.536 106.078C141.067 106.312 140.7 106.648 140.434 107.085C140.169 107.523 140.036 108.035 140.036 108.62ZM140.645 119.331C140.637 118.472 140.923 117.734 141.501 117.117C142.087 116.492 142.919 116.019 143.997 115.699C145.083 115.37 146.364 115.206 147.841 115.206C149.317 115.206 150.598 115.37 151.684 115.699C152.778 116.019 153.618 116.492 154.204 117.117C154.79 117.734 155.083 118.472 155.083 119.331C155.083 120.191 154.79 120.929 154.204 121.546C153.618 122.163 152.778 122.636 151.684 122.964C150.598 123.292 149.317 123.456 147.841 123.456C146.364 123.456 145.083 123.292 143.997 122.964C142.919 122.636 142.087 122.163 141.501 121.546C140.923 120.929 140.637 120.191 140.645 119.331ZM143.2 119.331C143.192 120.003 143.591 120.519 144.395 120.878C145.208 121.23 146.356 121.41 147.841 121.417C149.348 121.41 150.505 121.23 151.309 120.878C152.122 120.519 152.528 120.003 152.528 119.331C152.528 118.644 152.122 118.12 151.309 117.761C150.505 117.394 149.348 117.206 147.841 117.199C146.356 117.206 145.208 117.394 144.395 117.761C143.591 118.12 143.192 118.644 143.2 119.331ZM148.52 107.261C148.645 107.722 148.708 108.175 148.708 108.62C148.708 109.042 148.649 109.488 148.532 109.956H152.411V107.261H148.52Z" fill="#555555"/>
<defs>
<filter id="filter0_di_860_10800" x="0" y="0.366577" width="208" height="228.722" filterUnits="userSpaceOnUse" color-interpolation-filters="sRGB">
<feFlood flood-opacity="0" result="BackgroundImageFix"/>
<feColorMatrix in="SourceAlpha" type="matrix" values="0 0 0 0 0 0 0 0 0 0 0 0 0 0 0 0 0 0 127 0" result="hardAlpha"/>
<feOffset dx="2" dy="2"/>
<feGaussianBlur stdDeviation="2"/>
<feColorMatrix type="matrix" values="0 0 0 0 0 0 0 0 0 0 0 0 0 0 0 0 0 0 0.25 0"/>
<feBlend mode="normal" in2="BackgroundImageFix" result="effect1_dropShadow_860_10800"/>
<feBlend mode="normal" in="SourceGraphic" in2="effect1_dropShadow_860_10800" result="shape"/>
<feColorMatrix in="SourceAlpha" type="matrix" values="0 0 0 0 0 0 0 0 0 0 0 0 0 0 0 0 0 0 127 0" result="hardAlpha"/>
<feOffset dx="5" dy="5"/>
<feGaussianBlur stdDeviation="1"/>
<feComposite in2="hardAlpha" operator="arithmetic" k2="-1" k3="1"/>
<feColorMatrix type="matrix" values="0 0 0 0 1 0 0 0 0 1 0 0 0 0 1 0 0 0 0.45 0"/>
<feBlend mode="normal" in2="shape" result="effect2_innerShadow_860_10800"/>
</filter>
<linearGradient id="paint0_linear_860_10800" x1="190.636" y1="62.0001" x2="2.70326" y2="165.854" gradientUnits="userSpaceOnUse">
<stop stop-color="#FFC946"/>
<stop offset="1" stop-color="white"/>
</linearGradient>
</defs>
</svg>
