<svg width="208" height="230" viewBox="0 0 208 230" fill="none" xmlns="http://www.w3.org/2000/svg">
<g filter="url(#filter0_di_860_10833)">
<path d="M109.856 221.027C104.979 223.775 99.0206 223.775 94.1438 221.027L10.1438 173.681C5.11251 170.845 2 165.518 2 159.743L2 65.712C2 59.9366 5.11251 54.6094 10.1438 51.7736L94.1438 4.42812C99.0206 1.67936 104.979 1.67936 109.856 4.42812L193.856 51.7736C198.887 54.6094 202 59.9366 202 65.712L202 159.743C202 165.518 198.887 170.845 193.856 173.681L109.856 221.027Z" fill="white"/>
<path d="M109.856 221.027C104.979 223.775 99.0206 223.775 94.1438 221.027L10.1438 173.681C5.11251 170.845 2 165.518 2 159.743L2 65.712C2 59.9366 5.11251 54.6094 10.1438 51.7736L94.1438 4.42812C99.0206 1.67936 104.979 1.67936 109.856 4.42812L193.856 51.7736C198.887 54.6094 202 59.9366 202 65.712L202 159.743C202 165.518 198.887 170.845 193.856 173.681L109.856 221.027Z" fill="url(#paint0_linear_860_10833)" fill-opacity="0.1"/>
<path d="M96.5989 216.671L12.5989 169.325C9.13984 167.376 7 163.713 7 159.743L6.99999 65.712C6.99999 61.7414 9.13985 58.079 12.5989 56.1293L96.5989 8.78388C99.9517 6.89411 104.048 6.89411 107.401 8.78388L191.401 56.1293C194.86 58.0789 197 61.7414 197 65.712L197 159.743C197 163.713 194.86 167.376 191.401 169.325L107.401 216.671C104.048 218.561 99.9517 218.561 96.5989 216.671Z" stroke="#FFC946" stroke-width="10"/>
</g>
<path d="M47.8562 104.425H50.9031V111.62H58.8016V104.425H61.8719V121.394H58.8016V114.175H50.9031V121.394H47.8562V104.425ZM70.5203 121.652C69.2547 121.652 68.157 121.386 67.2273 120.855C66.2976 120.316 65.5828 119.554 65.0828 118.57C64.5828 117.585 64.3328 116.433 64.3328 115.113C64.3328 113.808 64.5828 112.66 65.0828 111.667C65.5828 110.667 66.2859 109.89 67.1922 109.335C68.1062 108.781 69.1609 108.503 70.3562 108.503C71.4344 108.503 72.4109 108.738 73.2859 109.206C74.1687 109.667 74.868 110.378 75.3836 111.339C75.907 112.3 76.1687 113.495 76.1687 114.925V115.863H67.2859C67.3016 116.574 67.4422 117.191 67.7078 117.714C67.9812 118.23 68.3562 118.624 68.8328 118.898C69.3172 119.171 69.8797 119.308 70.5203 119.308C71.1609 119.308 71.7039 119.191 72.1492 118.956C72.5945 118.714 72.9187 118.394 73.1219 117.995H76.0516C75.8719 118.73 75.532 119.374 75.032 119.929C74.532 120.476 73.8953 120.902 73.1219 121.206C72.3562 121.503 71.4891 121.652 70.5203 121.652ZM73.3094 113.824C73.3094 113.253 73.1844 112.742 72.9344 112.288C72.6922 111.828 72.3484 111.468 71.9031 111.21C71.4656 110.953 70.9656 110.824 70.4031 110.824C69.825 110.824 69.3055 110.96 68.8445 111.234C68.3836 111.499 68.0203 111.863 67.7547 112.324C67.4891 112.785 67.3367 113.285 67.2976 113.824H73.3094ZM81.4891 121.394H78.4891V104.425H81.4891V121.394ZM84.3484 108.667H87.2781V110.753H87.4656C87.7781 110.136 88.2156 109.609 88.7781 109.171C89.3406 108.726 90.1219 108.503 91.1219 108.503C92.1141 108.503 93.0047 108.757 93.7937 109.265C94.5906 109.773 95.2195 110.519 95.6805 111.503C96.1414 112.488 96.3719 113.667 96.3719 115.042C96.3719 116.402 96.1453 117.578 95.6922 118.57C95.2391 119.562 94.6141 120.32 93.8172 120.843C93.0281 121.359 92.1297 121.62 91.1219 121.628C90.1453 121.62 89.368 121.398 88.7898 120.96C88.2117 120.523 87.7703 119.995 87.4656 119.378H87.3484V126.175H84.3484V108.667ZM87.2781 115.019C87.2859 115.847 87.407 116.574 87.6414 117.199C87.8758 117.824 88.2195 118.308 88.6726 118.652C89.1258 118.995 89.6687 119.167 90.3016 119.167C90.9422 119.167 91.4891 118.992 91.9422 118.64C92.4031 118.288 92.7469 117.8 92.9734 117.175C93.2078 116.55 93.325 115.831 93.325 115.019C93.325 113.792 93.0633 112.808 92.5398 112.066C92.0242 111.324 91.2781 110.949 90.3016 110.941C89.3406 110.949 88.5984 111.316 88.075 112.042C87.5516 112.769 87.2859 113.761 87.2781 115.019ZM104.552 121.394V104.425H110.411C112.091 104.425 113.54 104.765 114.759 105.445C115.977 106.117 116.911 107.089 117.559 108.363C118.216 109.628 118.544 111.136 118.544 112.886C118.544 114.644 118.216 116.163 117.559 117.445C116.903 118.718 115.958 119.695 114.723 120.374C113.489 121.054 112.02 121.394 110.317 121.394H104.552ZM110.153 118.745C113.716 118.761 115.497 116.808 115.497 112.886C115.497 110.949 115.055 109.495 114.173 108.527C113.29 107.55 111.981 107.066 110.247 107.074H107.598V118.745H110.153ZM126.747 121.652C125.481 121.652 124.384 121.386 123.454 120.855C122.524 120.316 121.809 119.554 121.309 118.57C120.809 117.585 120.559 116.433 120.559 115.113C120.559 113.808 120.809 112.66 121.309 111.667C121.809 110.667 122.512 109.89 123.419 109.335C124.333 108.781 125.387 108.503 126.583 108.503C127.661 108.503 128.637 108.738 129.512 109.206C130.395 109.667 131.095 110.378 131.61 111.339C132.134 112.3 132.395 113.495 132.395 114.925V115.863H123.512C123.528 116.574 123.669 117.191 123.934 117.714C124.208 118.23 124.583 118.624 125.059 118.898C125.544 119.171 126.106 119.308 126.747 119.308C127.387 119.308 127.93 119.191 128.376 118.956C128.821 118.714 129.145 118.394 129.348 117.995H132.278C132.098 118.73 131.759 119.374 131.259 119.929C130.759 120.476 130.122 120.902 129.348 121.206C128.583 121.503 127.716 121.652 126.747 121.652ZM129.536 113.824C129.536 113.253 129.411 112.742 129.161 112.288C128.919 111.828 128.575 111.468 128.13 111.21C127.692 110.953 127.192 110.824 126.63 110.824C126.052 110.824 125.532 110.96 125.071 111.234C124.61 111.499 124.247 111.863 123.981 112.324C123.716 112.785 123.563 113.285 123.524 113.824H129.536ZM141.934 112.3C141.841 111.816 141.598 111.433 141.208 111.152C140.825 110.87 140.329 110.73 139.72 110.73C139.29 110.73 138.903 110.792 138.559 110.917C138.223 111.042 137.958 111.218 137.762 111.445C137.575 111.671 137.481 111.929 137.481 112.218C137.481 112.562 137.622 112.855 137.903 113.097C138.192 113.339 138.653 113.535 139.286 113.683L141.442 114.128C142.645 114.394 143.54 114.812 144.126 115.382C144.72 115.945 145.02 116.683 145.028 117.597C145.028 118.394 144.805 119.101 144.36 119.718C143.915 120.328 143.282 120.804 142.462 121.148C141.641 121.484 140.684 121.652 139.591 121.652C137.989 121.652 136.716 121.312 135.77 120.632C134.833 119.953 134.286 118.995 134.13 117.761H137.177C137.262 118.3 137.509 118.706 137.915 118.98C138.329 119.253 138.887 119.386 139.591 119.378C140.317 119.386 140.895 119.253 141.325 118.98C141.755 118.706 141.973 118.331 141.981 117.855C141.973 117.488 141.821 117.183 141.524 116.941C141.227 116.699 140.762 116.511 140.13 116.378L138.091 115.933C136.911 115.691 136.016 115.269 135.407 114.667C134.798 114.066 134.497 113.308 134.505 112.394C134.505 111.62 134.716 110.941 135.137 110.355C135.559 109.761 136.157 109.304 136.93 108.984C137.712 108.663 138.614 108.503 139.637 108.503C140.637 108.503 141.509 108.66 142.251 108.972C143.001 109.277 143.587 109.714 144.009 110.285C144.438 110.855 144.692 111.527 144.77 112.3H141.934ZM147.302 104.425H150.302V113.777H150.512L155.083 108.667H158.575L153.641 114.152L158.88 121.394H155.317L151.403 115.933L150.302 117.105V121.394H147.302V104.425Z" fill="#555555"/>
<defs>
<filter id="filter0_di_860_10833" x="0" y="0.366577" width="208" height="228.722" filterUnits="userSpaceOnUse" color-interpolation-filters="sRGB">
<feFlood flood-opacity="0" result="BackgroundImageFix"/>
<feColorMatrix in="SourceAlpha" type="matrix" values="0 0 0 0 0 0 0 0 0 0 0 0 0 0 0 0 0 0 127 0" result="hardAlpha"/>
<feOffset dx="2" dy="2"/>
<feGaussianBlur stdDeviation="2"/>
<feColorMatrix type="matrix" values="0 0 0 0 0 0 0 0 0 0 0 0 0 0 0 0 0 0 0.25 0"/>
<feBlend mode="normal" in2="BackgroundImageFix" result="effect1_dropShadow_860_10833"/>
<feBlend mode="normal" in="SourceGraphic" in2="effect1_dropShadow_860_10833" result="shape"/>
<feColorMatrix in="SourceAlpha" type="matrix" values="0 0 0 0 0 0 0 0 0 0 0 0 0 0 0 0 0 0 127 0" result="hardAlpha"/>
<feOffset dx="5" dy="5"/>
<feGaussianBlur stdDeviation="1"/>
<feComposite in2="hardAlpha" operator="arithmetic" k2="-1" k3="1"/>
<feColorMatrix type="matrix" values="0 0 0 0 1 0 0 0 0 1 0 0 0 0 1 0 0 0 0.45 0"/>
<feBlend mode="normal" in2="shape" result="effect2_innerShadow_860_10833"/>
</filter>
<linearGradient id="paint0_linear_860_10833" x1="190.636" y1="62.0001" x2="2.70326" y2="165.854" gradientUnits="userSpaceOnUse">
<stop stop-color="#FFC946"/>
<stop offset="1" stop-color="white"/>
</linearGradient>
</defs>
</svg>
