<svg width="208" height="230" viewBox="0 0 208 230" fill="none" xmlns="http://www.w3.org/2000/svg">
<g filter="url(#filter0_di_860_10809)">
<path d="M109.856 221.027C104.979 223.775 99.0206 223.775 94.1438 221.027L10.1438 173.681C5.11251 170.845 2 165.518 2 159.743L2 65.712C2 59.9366 5.11251 54.6094 10.1438 51.7736L94.1438 4.42812C99.0206 1.67936 104.979 1.67936 109.856 4.42812L193.856 51.7736C198.887 54.6094 202 59.9366 202 65.712L202 159.743C202 165.518 198.887 170.845 193.856 173.681L109.856 221.027Z" fill="white"/>
<path d="M109.856 221.027C104.979 223.775 99.0206 223.775 94.1438 221.027L10.1438 173.681C5.11251 170.845 2 165.518 2 159.743L2 65.712C2 59.9366 5.11251 54.6094 10.1438 51.7736L94.1438 4.42812C99.0206 1.67936 104.979 1.67936 109.856 4.42812L193.856 51.7736C198.887 54.6094 202 59.9366 202 65.712L202 159.743C202 165.518 198.887 170.845 193.856 173.681L109.856 221.027Z" fill="url(#paint0_linear_860_10809)" fill-opacity="0.1"/>
<path d="M96.5989 216.671L12.5989 169.325C9.13984 167.376 7 163.713 7 159.743L6.99999 65.712C6.99999 61.7414 9.13985 58.079 12.5989 56.1293L96.5989 8.78388C99.9517 6.89411 104.048 6.89411 107.401 8.78388L191.401 56.1293C194.86 58.0789 197 61.7414 197 65.712L197 159.743C197 163.713 194.86 167.376 191.401 169.325L107.401 216.671C104.048 218.561 99.9517 218.561 96.5989 216.671Z" stroke="#FFC946" stroke-width="10"/>
</g>
<path d="M78.3133 114.972H70.1336V118.863H67.5555V114.972H58.9539V112.886H78.3133V114.972ZM61.2976 116.917H63.8992V120.949H76.1805V123.058H61.2976V116.917ZM61.4148 103.253H75.8289V110.917H61.4148V103.253ZM73.2508 108.878V105.292H63.9461V108.878H73.2508ZM87.5476 107.378C87.5398 108.706 87.743 109.988 88.157 111.222C88.5711 112.456 89.1726 113.554 89.9617 114.515C90.7586 115.468 91.7039 116.183 92.7976 116.66L91.2273 118.745C90.0555 118.175 89.0476 117.355 88.2039 116.285C87.3601 115.214 86.7078 113.968 86.2469 112.546C85.7703 114.054 85.0984 115.382 84.2312 116.531C83.3641 117.671 82.3367 118.542 81.1492 119.144L79.5086 117.035C80.6258 116.511 81.5906 115.745 82.4031 114.738C83.2156 113.73 83.8328 112.585 84.2547 111.304C84.6766 110.023 84.8914 108.714 84.8992 107.378V104.003H87.5476V107.378ZM90.4539 109.136H94.907V102.292H97.4851V123.503H94.907V111.245H90.4539V109.136ZM117.196 104.05C117.188 104.941 117.497 105.808 118.122 106.652C118.755 107.495 119.641 108.218 120.782 108.82C121.93 109.421 123.235 109.816 124.696 110.003L123.665 112.113C121.884 111.847 120.305 111.3 118.93 110.472C117.555 109.636 116.52 108.617 115.825 107.413C115.13 108.617 114.098 109.636 112.731 110.472C111.364 111.3 109.798 111.847 108.032 112.113L107.001 110.003C108.454 109.816 109.747 109.421 110.88 108.82C112.012 108.218 112.891 107.499 113.516 106.663C114.141 105.82 114.454 104.949 114.454 104.05V102.972H117.196V104.05ZM106.157 113.941H125.47V116.097H117.055V123.48H114.477V116.097H106.157V113.941ZM130.204 105.925H135.149V103.23H137.727V112.464H127.626V103.23H130.204V105.925ZM129.759 113.988H143.61V119.542H132.36V121.23H144.266V123.292H129.782V117.644H141.009V116.027H129.759V113.988ZM135.149 110.402V107.894H130.204V110.402H135.149ZM141.009 102.292H143.61V106.581H146.563V108.691H143.61V113.144H141.009V102.292Z" fill="#555555"/>
<defs>
<filter id="filter0_di_860_10809" x="0" y="0.366577" width="208" height="228.722" filterUnits="userSpaceOnUse" color-interpolation-filters="sRGB">
<feFlood flood-opacity="0" result="BackgroundImageFix"/>
<feColorMatrix in="SourceAlpha" type="matrix" values="0 0 0 0 0 0 0 0 0 0 0 0 0 0 0 0 0 0 127 0" result="hardAlpha"/>
<feOffset dx="2" dy="2"/>
<feGaussianBlur stdDeviation="2"/>
<feColorMatrix type="matrix" values="0 0 0 0 0 0 0 0 0 0 0 0 0 0 0 0 0 0 0.25 0"/>
<feBlend mode="normal" in2="BackgroundImageFix" result="effect1_dropShadow_860_10809"/>
<feBlend mode="normal" in="SourceGraphic" in2="effect1_dropShadow_860_10809" result="shape"/>
<feColorMatrix in="SourceAlpha" type="matrix" values="0 0 0 0 0 0 0 0 0 0 0 0 0 0 0 0 0 0 127 0" result="hardAlpha"/>
<feOffset dx="5" dy="5"/>
<feGaussianBlur stdDeviation="1"/>
<feComposite in2="hardAlpha" operator="arithmetic" k2="-1" k3="1"/>
<feColorMatrix type="matrix" values="0 0 0 0 1 0 0 0 0 1 0 0 0 0 1 0 0 0 0.45 0"/>
<feBlend mode="normal" in2="shape" result="effect2_innerShadow_860_10809"/>
</filter>
<linearGradient id="paint0_linear_860_10809" x1="190.636" y1="62.0001" x2="2.70326" y2="165.854" gradientUnits="userSpaceOnUse">
<stop stop-color="#FFC946"/>
<stop offset="1" stop-color="white"/>
</linearGradient>
</defs>
</svg>
