<svg width="208" height="230" viewBox="0 0 208 230" fill="none" xmlns="http://www.w3.org/2000/svg">
<g filter="url(#filter0_di_860_10836)">
<path d="M109.856 221.027C104.979 223.775 99.0206 223.775 94.1438 221.027L10.1438 173.681C5.11251 170.845 2 165.518 2 159.743L2 65.712C2 59.9366 5.11251 54.6094 10.1438 51.7736L94.1438 4.42812C99.0206 1.67936 104.979 1.67936 109.856 4.42812L193.856 51.7736C198.887 54.6094 202 59.9366 202 65.712L202 159.743C202 165.518 198.887 170.845 193.856 173.681L109.856 221.027Z" fill="white"/>
<path d="M109.856 221.027C104.979 223.775 99.0206 223.775 94.1438 221.027L10.1438 173.681C5.11251 170.845 2 165.518 2 159.743L2 65.712C2 59.9366 5.11251 54.6094 10.1438 51.7736L94.1438 4.42812C99.0206 1.67936 104.979 1.67936 109.856 4.42812L193.856 51.7736C198.887 54.6094 202 59.9366 202 65.712L202 159.743C202 165.518 198.887 170.845 193.856 173.681L109.856 221.027Z" fill="url(#paint0_linear_860_10836)" fill-opacity="0.1"/>
<path d="M96.5989 216.671L12.5989 169.325C9.13984 167.376 7 163.713 7 159.743L6.99999 65.712C6.99999 61.7414 9.13985 58.079 12.5989 56.1293L96.5989 8.78388C99.9517 6.89411 104.048 6.89411 107.401 8.78388L191.401 56.1293C194.86 58.0789 197 61.7414 197 65.712L197 159.743C197 163.713 194.86 167.376 191.401 169.325L107.401 216.671C104.048 218.561 99.9517 218.561 96.5989 216.671Z" stroke="#FFC946" stroke-width="10"/>
</g>
<path d="M32.2229 104.062H38.5979C39.8635 104.062 40.9417 104.3 41.8323 104.776C42.7307 105.253 43.4104 105.917 43.8714 106.769C44.3323 107.612 44.5667 108.585 44.5745 109.687C44.5667 110.78 44.3284 111.749 43.8596 112.593C43.3987 113.437 42.7151 114.097 41.8089 114.573C40.9104 115.05 39.8245 115.288 38.551 115.288H35.2698V121.03H32.2229V104.062ZM38.1292 112.78C39.2385 112.772 40.0706 112.491 40.6253 111.937C41.18 111.374 41.4573 110.624 41.4573 109.687C41.4573 108.741 41.18 107.995 40.6253 107.448C40.0706 106.894 39.2385 106.616 38.1292 106.616H35.2698V112.78H38.1292ZM46.8948 108.304H49.801V110.413H49.9417C50.1682 109.687 50.5628 109.124 51.1253 108.726C51.6878 108.319 52.3401 108.116 53.0823 108.116C53.426 108.116 53.7854 108.14 54.1604 108.187V110.952C54.0276 110.905 53.8245 110.866 53.551 110.835C53.2854 110.796 53.0276 110.772 52.7776 110.765C52.2307 110.765 51.7385 110.886 51.301 111.128C50.8635 111.362 50.5198 111.69 50.2698 112.112C50.0198 112.526 49.8948 112.999 49.8948 113.53V121.03H46.8948V108.304ZM61.0745 121.288C59.8479 121.288 58.7737 121.015 57.8518 120.468C56.9378 119.921 56.2307 119.151 55.7307 118.159C55.2307 117.167 54.9807 116.022 54.9807 114.726C54.9807 113.413 55.2307 112.261 55.7307 111.269C56.2307 110.276 56.9378 109.507 57.8518 108.96C58.7737 108.413 59.8479 108.14 61.0745 108.14C62.301 108.14 63.3753 108.413 64.2971 108.96C65.219 109.507 65.926 110.276 66.4182 111.269C66.9182 112.261 67.1682 113.413 67.1682 114.726C67.1682 116.022 66.9182 117.167 66.4182 118.159C65.926 119.151 65.219 119.921 64.2971 120.468C63.3753 121.015 62.301 121.288 61.0745 121.288ZM58.0042 114.702C58.0042 115.499 58.1175 116.214 58.344 116.847C58.5784 117.479 58.926 117.979 59.387 118.347C59.8557 118.714 60.426 118.897 61.0979 118.897C61.7542 118.897 62.3128 118.714 62.7737 118.347C63.2346 117.979 63.5784 117.479 63.805 116.847C64.0393 116.214 64.1526 115.499 64.1448 114.702C64.1526 113.905 64.0393 113.19 63.805 112.558C63.5784 111.925 63.2346 111.425 62.7737 111.058C62.3128 110.69 61.7542 110.507 61.0979 110.507C60.426 110.507 59.8557 110.69 59.387 111.058C58.926 111.425 58.5784 111.925 58.344 112.558C58.1175 113.19 58.0042 113.905 58.0042 114.702ZM75.0432 121.288C73.801 121.288 72.719 121.011 71.7971 120.456C70.8831 119.901 70.18 119.128 69.6878 118.136C69.1956 117.144 68.9495 116.007 68.9495 114.726C68.9495 113.429 69.1995 112.284 69.6995 111.292C70.1995 110.292 70.9065 109.519 71.8206 108.972C72.7425 108.417 73.8167 108.14 75.0432 108.14C76.0589 108.14 76.9651 108.327 77.762 108.702C78.5667 109.077 79.2073 109.608 79.6839 110.296C80.1604 110.983 80.4339 111.78 80.5042 112.687H77.6448C77.5198 112.054 77.2346 111.538 76.7893 111.14C76.344 110.741 75.7698 110.538 75.0667 110.53C74.4495 110.53 73.9065 110.698 73.4378 111.034C72.9768 111.362 72.6175 111.839 72.3596 112.464C72.1018 113.081 71.9729 113.812 71.9729 114.655C71.9729 115.522 72.0979 116.272 72.3479 116.905C72.6057 117.53 72.9651 118.011 73.426 118.347C73.8948 118.683 74.4417 118.851 75.0667 118.851C75.7385 118.843 76.301 118.651 76.7542 118.276C77.2151 117.901 77.512 117.374 77.6448 116.694H80.5042C80.426 117.593 80.1565 118.39 79.6956 119.085C79.2346 119.772 78.6057 120.312 77.8089 120.702C77.012 121.093 76.0901 121.288 75.0432 121.288ZM90.887 108.304H93.8635V121.03H90.9807V118.78H90.8401C90.5354 119.515 90.051 120.101 89.387 120.538C88.7307 120.976 87.9417 121.194 87.0198 121.194C86.176 121.194 85.4339 121.007 84.7932 120.632C84.1526 120.257 83.6526 119.71 83.2932 118.991C82.9339 118.272 82.7542 117.413 82.7542 116.413V108.304H85.7542V115.944C85.7542 116.476 85.8518 116.944 86.0471 117.351C86.2503 117.749 86.5315 118.058 86.8909 118.276C87.2581 118.487 87.6839 118.593 88.1682 118.593C88.6214 118.593 89.055 118.483 89.469 118.265C89.8909 118.038 90.2307 117.706 90.4885 117.269C90.7542 116.831 90.887 116.304 90.887 115.687V108.304ZM96.7229 108.304H99.6292V110.413H99.7698C99.9964 109.687 100.391 109.124 100.953 108.726C101.516 108.319 102.168 108.116 102.91 108.116C103.254 108.116 103.614 108.14 103.989 108.187V110.952C103.856 110.905 103.653 110.866 103.379 110.835C103.114 110.796 102.856 110.772 102.606 110.765C102.059 110.765 101.567 110.886 101.129 111.128C100.692 111.362 100.348 111.69 100.098 112.112C99.8479 112.526 99.7229 112.999 99.7229 113.53V121.03H96.7229V108.304ZM110.996 121.288C109.731 121.288 108.633 121.022 107.703 120.491C106.774 119.952 106.059 119.19 105.559 118.206C105.059 117.222 104.809 116.069 104.809 114.749C104.809 113.444 105.059 112.296 105.559 111.304C106.059 110.304 106.762 109.526 107.668 108.972C108.582 108.417 109.637 108.14 110.832 108.14C111.91 108.14 112.887 108.374 113.762 108.843C114.645 109.304 115.344 110.015 115.86 110.976C116.383 111.937 116.645 113.132 116.645 114.562V115.499H107.762C107.778 116.21 107.918 116.827 108.184 117.351C108.457 117.866 108.832 118.261 109.309 118.534C109.793 118.808 110.356 118.944 110.996 118.944C111.637 118.944 112.18 118.827 112.625 118.593C113.071 118.351 113.395 118.03 113.598 117.632H116.528C116.348 118.366 116.008 119.011 115.508 119.565C115.008 120.112 114.371 120.538 113.598 120.843C112.832 121.14 111.965 121.288 110.996 121.288ZM113.785 113.46C113.785 112.89 113.66 112.378 113.41 111.925C113.168 111.464 112.824 111.104 112.379 110.847C111.942 110.589 111.442 110.46 110.879 110.46C110.301 110.46 109.782 110.597 109.321 110.87C108.86 111.136 108.496 111.499 108.231 111.96C107.965 112.421 107.813 112.921 107.774 113.46H113.785ZM118.965 108.304H121.824V110.46H121.989C122.254 109.733 122.692 109.167 123.301 108.761C123.91 108.347 124.637 108.14 125.481 108.14C126.332 108.14 127.059 108.347 127.66 108.761C128.262 109.167 128.684 109.733 128.926 110.46H129.067C129.348 109.749 129.824 109.187 130.496 108.772C131.176 108.351 131.973 108.14 132.887 108.14C133.676 108.14 134.367 108.308 134.961 108.644C135.563 108.972 136.028 109.464 136.356 110.12C136.684 110.769 136.848 111.554 136.848 112.476V121.03H133.871V112.944C133.871 112.187 133.668 111.616 133.262 111.233C132.864 110.843 132.34 110.647 131.692 110.647C130.973 110.647 130.407 110.87 129.992 111.315C129.578 111.761 129.371 112.351 129.371 113.085V121.03H126.465V112.827C126.457 112.171 126.254 111.644 125.856 111.245C125.465 110.847 124.949 110.647 124.309 110.647C123.879 110.647 123.485 110.761 123.125 110.987C122.774 111.206 122.492 111.519 122.282 111.925C122.071 112.323 121.965 112.78 121.965 113.296V121.03H118.965V108.304ZM145.356 121.288C144.09 121.288 142.992 121.022 142.063 120.491C141.133 119.952 140.418 119.19 139.918 118.206C139.418 117.222 139.168 116.069 139.168 114.749C139.168 113.444 139.418 112.296 139.918 111.304C140.418 110.304 141.121 109.526 142.028 108.972C142.942 108.417 143.996 108.14 145.192 108.14C146.27 108.14 147.246 108.374 148.121 108.843C149.004 109.304 149.703 110.015 150.219 110.976C150.742 111.937 151.004 113.132 151.004 114.562V115.499H142.121C142.137 116.21 142.278 116.827 142.543 117.351C142.817 117.866 143.192 118.261 143.668 118.534C144.153 118.808 144.715 118.944 145.356 118.944C145.996 118.944 146.539 118.827 146.985 118.593C147.43 118.351 147.754 118.03 147.957 117.632H150.887C150.707 118.366 150.367 119.011 149.867 119.565C149.367 120.112 148.731 120.538 147.957 120.843C147.192 121.14 146.324 121.288 145.356 121.288ZM148.145 113.46C148.145 112.89 148.02 112.378 147.77 111.925C147.528 111.464 147.184 111.104 146.739 110.847C146.301 110.589 145.801 110.46 145.239 110.46C144.66 110.46 144.141 110.597 143.68 110.87C143.219 111.136 142.856 111.499 142.59 111.96C142.324 112.421 142.172 112.921 142.133 113.46H148.145ZM156.324 121.03H153.324V108.304H156.184V110.46H156.348C156.645 109.733 157.114 109.167 157.754 108.761C158.403 108.347 159.192 108.14 160.121 108.14C161.004 108.14 161.774 108.327 162.43 108.702C163.086 109.077 163.59 109.624 163.942 110.343C164.301 111.062 164.481 111.921 164.481 112.921V121.03H161.504V113.39C161.504 112.53 161.285 111.862 160.848 111.386C160.41 110.901 159.801 110.663 159.02 110.671C158.489 110.663 158.02 110.776 157.614 111.011C157.207 111.237 156.891 111.573 156.664 112.019C156.438 112.456 156.324 112.976 156.324 113.577V121.03ZM173.692 110.601H171.184V117.21C171.184 117.804 171.313 118.198 171.571 118.394C171.836 118.589 172.211 118.687 172.696 118.687C173.032 118.687 173.418 118.671 173.856 118.64V121.077C173.371 121.155 172.797 121.194 172.133 121.194C171.367 121.194 170.688 121.065 170.094 120.808C169.5 120.55 169.035 120.159 168.699 119.636C168.364 119.112 168.199 118.468 168.207 117.702V110.601H166.379V108.304H168.207V105.257H171.184V108.304H173.692V110.601Z" fill="#555555"/>
<defs>
<filter id="filter0_di_860_10836" x="0" y="0.366577" width="208" height="228.722" filterUnits="userSpaceOnUse" color-interpolation-filters="sRGB">
<feFlood flood-opacity="0" result="BackgroundImageFix"/>
<feColorMatrix in="SourceAlpha" type="matrix" values="0 0 0 0 0 0 0 0 0 0 0 0 0 0 0 0 0 0 127 0" result="hardAlpha"/>
<feOffset dx="2" dy="2"/>
<feGaussianBlur stdDeviation="2"/>
<feColorMatrix type="matrix" values="0 0 0 0 0 0 0 0 0 0 0 0 0 0 0 0 0 0 0.25 0"/>
<feBlend mode="normal" in2="BackgroundImageFix" result="effect1_dropShadow_860_10836"/>
<feBlend mode="normal" in="SourceGraphic" in2="effect1_dropShadow_860_10836" result="shape"/>
<feColorMatrix in="SourceAlpha" type="matrix" values="0 0 0 0 0 0 0 0 0 0 0 0 0 0 0 0 0 0 127 0" result="hardAlpha"/>
<feOffset dx="5" dy="5"/>
<feGaussianBlur stdDeviation="1"/>
<feComposite in2="hardAlpha" operator="arithmetic" k2="-1" k3="1"/>
<feColorMatrix type="matrix" values="0 0 0 0 1 0 0 0 0 1 0 0 0 0 1 0 0 0 0.45 0"/>
<feBlend mode="normal" in2="shape" result="effect2_innerShadow_860_10836"/>
</filter>
<linearGradient id="paint0_linear_860_10836" x1="190.636" y1="62.0001" x2="2.70326" y2="165.854" gradientUnits="userSpaceOnUse">
<stop stop-color="#FFC946"/>
<stop offset="1" stop-color="white"/>
</linearGradient>
</defs>
</svg>
