<svg width="208" height="230" viewBox="0 0 208 230" fill="none" xmlns="http://www.w3.org/2000/svg">
<g filter="url(#filter0_di_860_10797)">
<path d="M109.856 221.027C104.979 223.775 99.0206 223.775 94.1438 221.027L10.1438 173.681C5.11251 170.845 2 165.518 2 159.743L2 65.712C2 59.9366 5.11251 54.6094 10.1438 51.7736L94.1438 4.42812C99.0206 1.67936 104.979 1.67936 109.856 4.42812L193.856 51.7736C198.887 54.6094 202 59.9366 202 65.712L202 159.743C202 165.518 198.887 170.845 193.856 173.681L109.856 221.027Z" fill="white"/>
<path d="M109.856 221.027C104.979 223.775 99.0206 223.775 94.1438 221.027L10.1438 173.681C5.11251 170.845 2 165.518 2 159.743L2 65.712C2 59.9366 5.11251 54.6094 10.1438 51.7736L94.1438 4.42812C99.0206 1.67936 104.979 1.67936 109.856 4.42812L193.856 51.7736C198.887 54.6094 202 59.9366 202 65.712L202 159.743C202 165.518 198.887 170.845 193.856 173.681L109.856 221.027Z" fill="url(#paint0_linear_860_10797)" fill-opacity="0.1"/>
<path d="M96.5989 216.671L12.5989 169.325C9.13984 167.376 7 163.713 7 159.743L6.99999 65.712C6.99999 61.7414 9.13985 58.079 12.5989 56.1293L96.5989 8.78388C99.9517 6.89411 104.048 6.89411 107.401 8.78388L191.401 56.1293C194.86 58.0789 197 61.7414 197 65.712L197 159.743C197 163.713 194.86 167.376 191.401 169.325L107.401 216.671C104.048 218.561 99.9517 218.561 96.5989 216.671Z" stroke="#FFC946" stroke-width="10"/>
</g>
<path d="M77.0945 115.605H74.6101V109.839H72.5476V114.902H70.1101V102.714H72.5476V107.73H74.6101V102.292H77.0945V115.605ZM58.8601 104.589H62.868V102.48H65.4461V104.589H69.407V106.628H58.8601V104.589ZM59.6101 111.152C59.6023 110.433 59.7898 109.796 60.1726 109.242C60.5633 108.679 61.1062 108.249 61.8016 107.953C62.4969 107.648 63.282 107.495 64.157 107.495C65.0476 107.495 65.8406 107.648 66.5359 107.953C67.2312 108.249 67.7742 108.675 68.1648 109.23C68.5633 109.785 68.7664 110.425 68.7742 111.152C68.7664 111.878 68.5633 112.519 68.1648 113.074C67.7742 113.62 67.2312 114.046 66.5359 114.351C65.8406 114.656 65.0476 114.808 64.157 114.808C63.282 114.808 62.4969 114.656 61.8016 114.351C61.1062 114.046 60.5633 113.617 60.1726 113.062C59.7898 112.507 59.6023 111.87 59.6101 111.152ZM61.9305 111.152C61.9305 111.691 62.1336 112.124 62.5398 112.453C62.9539 112.773 63.493 112.933 64.157 112.933C64.8289 112.933 65.3719 112.773 65.7859 112.453C66.2 112.124 66.407 111.691 66.407 111.152C66.407 110.613 66.2 110.183 65.7859 109.863C65.3719 109.535 64.8289 109.37 64.157 109.37C63.493 109.37 62.9539 109.535 62.5398 109.863C62.1336 110.183 61.9305 110.613 61.9305 111.152ZM62.6805 119.683C62.6805 118.878 62.9695 118.191 63.5476 117.62C64.1258 117.05 64.9578 116.617 66.0437 116.32C67.1375 116.015 68.4383 115.863 69.9461 115.863C71.4539 115.863 72.7508 116.015 73.8367 116.32C74.9226 116.617 75.7547 117.05 76.3328 117.62C76.9187 118.191 77.2117 118.878 77.2117 119.683C77.2117 120.472 76.9187 121.148 76.3328 121.71C75.7547 122.281 74.9187 122.714 73.825 123.011C72.7391 123.308 71.4461 123.456 69.9461 123.456C68.4383 123.456 67.1375 123.308 66.0437 123.011C64.9578 122.714 64.1258 122.281 63.5476 121.71C62.9695 121.148 62.6805 120.472 62.6805 119.683ZM65.282 119.683C65.2742 120.261 65.6648 120.703 66.4539 121.007C67.243 121.312 68.3797 121.464 69.8641 121.464C71.4031 121.464 72.5711 121.316 73.368 121.019C74.1726 120.714 74.5789 120.269 74.5867 119.683C74.5789 119.074 74.1805 118.613 73.3914 118.3C72.6023 117.988 71.4539 117.839 69.9461 117.855C68.4226 117.839 67.2625 117.988 66.4656 118.3C65.6687 118.613 65.2742 119.074 65.282 119.683ZM97.4617 114.878H94.8601V109.699H91.2508V107.566H94.8601V102.292H97.4617V114.878ZM79.6492 112.769C80.7508 112.394 81.6922 111.851 82.4734 111.14C83.2625 110.429 83.8562 109.624 84.2547 108.726C84.6531 107.828 84.8523 106.902 84.8523 105.949V105.785H80.4461V103.675H91.8836V105.785H87.5008V105.925C87.5008 106.8 87.6922 107.652 88.075 108.48C88.4578 109.3 89.0242 110.038 89.7742 110.695C90.5242 111.343 91.4305 111.847 92.493 112.206L91.1805 114.269C90.032 113.878 89.0398 113.304 88.2039 112.546C87.368 111.781 86.7078 110.886 86.2234 109.863C85.7469 111.019 85.0672 112.027 84.1844 112.886C83.3016 113.745 82.243 114.394 81.0086 114.831L79.6492 112.769ZM83.0945 119.449C83.0867 118.613 83.3719 117.894 83.95 117.292C84.5281 116.683 85.3562 116.218 86.4344 115.898C87.5203 115.578 88.8055 115.417 90.2898 115.417C91.782 115.417 93.0711 115.578 94.157 115.898C95.243 116.218 96.075 116.679 96.6531 117.281C97.2391 117.882 97.532 118.605 97.532 119.449C97.532 120.292 97.2391 121.015 96.6531 121.617C96.075 122.218 95.243 122.679 94.157 122.999C93.0711 123.32 91.782 123.48 90.2898 123.48C88.8055 123.48 87.5203 123.32 86.4344 122.999C85.3562 122.679 84.5281 122.214 83.95 121.605C83.3719 121.003 83.0867 120.285 83.0945 119.449ZM85.6726 119.449C85.6648 120.097 86.0555 120.597 86.8445 120.949C87.6414 121.292 88.7664 121.464 90.2195 121.464C91.7351 121.464 92.8992 121.292 93.7117 120.949C94.5242 120.605 94.9305 120.105 94.9305 119.449C94.9305 118.792 94.5281 118.288 93.7234 117.937C92.9266 117.585 91.782 117.41 90.2898 117.41C88.8133 117.41 87.6726 117.585 86.868 117.937C86.0633 118.288 85.6648 118.792 85.6726 119.449ZM117.993 105.128V105.41C117.977 106.456 117.938 107.437 117.876 108.351C117.813 109.257 117.68 110.261 117.477 111.363L114.899 111.128C115.087 110.144 115.216 109.245 115.286 108.433C115.364 107.62 115.411 106.816 115.427 106.019H107.188V103.863H117.993V105.128ZM106.356 113.05C108.059 113.035 109.298 113.019 110.071 113.003V108.691H112.649V112.921C115.157 112.812 117.321 112.628 119.141 112.37L119.282 114.245C117.321 114.597 115.262 114.831 113.106 114.949C110.95 115.066 108.634 115.128 106.157 115.136L105.923 113.05H106.356ZM109.087 116.753H111.712V120.949H123.735V123.058H109.087V116.753ZM120.384 102.292H123.055V108.902H125.798V111.081H123.055V118.16H120.384V102.292ZM144.548 123.503H141.97V102.292H144.548V123.503ZM128.048 104.144H138.032V112.089H130.743V116.355C132.509 116.339 134.141 116.277 135.641 116.167C137.141 116.058 138.68 115.87 140.259 115.605L140.493 117.738C138.852 118.019 137.235 118.214 135.641 118.324C134.055 118.433 132.29 118.488 130.345 118.488H129.923H128.071V110.027H135.384V106.253H128.048V104.144Z" fill="#555555"/>
<defs>
<filter id="filter0_di_860_10797" x="0" y="0.366577" width="208" height="228.722" filterUnits="userSpaceOnUse" color-interpolation-filters="sRGB">
<feFlood flood-opacity="0" result="BackgroundImageFix"/>
<feColorMatrix in="SourceAlpha" type="matrix" values="0 0 0 0 0 0 0 0 0 0 0 0 0 0 0 0 0 0 127 0" result="hardAlpha"/>
<feOffset dx="2" dy="2"/>
<feGaussianBlur stdDeviation="2"/>
<feColorMatrix type="matrix" values="0 0 0 0 0 0 0 0 0 0 0 0 0 0 0 0 0 0 0.25 0"/>
<feBlend mode="normal" in2="BackgroundImageFix" result="effect1_dropShadow_860_10797"/>
<feBlend mode="normal" in="SourceGraphic" in2="effect1_dropShadow_860_10797" result="shape"/>
<feColorMatrix in="SourceAlpha" type="matrix" values="0 0 0 0 0 0 0 0 0 0 0 0 0 0 0 0 0 0 127 0" result="hardAlpha"/>
<feOffset dx="5" dy="5"/>
<feGaussianBlur stdDeviation="1"/>
<feComposite in2="hardAlpha" operator="arithmetic" k2="-1" k3="1"/>
<feColorMatrix type="matrix" values="0 0 0 0 1 0 0 0 0 1 0 0 0 0 1 0 0 0 0.45 0"/>
<feBlend mode="normal" in2="shape" result="effect2_innerShadow_860_10797"/>
</filter>
<linearGradient id="paint0_linear_860_10797" x1="190.636" y1="62.0001" x2="2.70326" y2="165.854" gradientUnits="userSpaceOnUse">
<stop stop-color="#FFC946"/>
<stop offset="1" stop-color="white"/>
</linearGradient>
</defs>
</svg>
