<svg width="208" height="230" viewBox="0 0 208 230" fill="none" xmlns="http://www.w3.org/2000/svg">
<g filter="url(#filter0_di_860_10782)">
<path d="M109.856 221.027C104.979 223.775 99.0206 223.775 94.1438 221.027L10.1438 173.681C5.11251 170.845 2 165.518 2 159.743L2 65.712C2 59.9366 5.11251 54.6094 10.1438 51.7736L94.1438 4.42812C99.0206 1.67936 104.979 1.67936 109.856 4.42812L193.856 51.7736C198.887 54.6094 202 59.9366 202 65.712L202 159.743C202 165.518 198.887 170.845 193.856 173.681L109.856 221.027Z" fill="white"/>
<path d="M109.856 221.027C104.979 223.775 99.0206 223.775 94.1438 221.027L10.1438 173.681C5.11251 170.845 2 165.518 2 159.743L2 65.712C2 59.9366 5.11251 54.6094 10.1438 51.7736L94.1438 4.42812C99.0206 1.67936 104.979 1.67936 109.856 4.42812L193.856 51.7736C198.887 54.6094 202 59.9366 202 65.712L202 159.743C202 165.518 198.887 170.845 193.856 173.681L109.856 221.027Z" fill="url(#paint0_linear_860_10782)" fill-opacity="0.1"/>
<path d="M96.5989 216.671L12.5989 169.325C9.13984 167.376 7 163.713 7 159.743L6.99999 65.712C6.99999 61.7414 9.13985 58.079 12.5989 56.1293L96.5989 8.78388C99.9517 6.89411 104.048 6.89411 107.401 8.78388L191.401 56.1293C194.86 58.0789 197 61.7414 197 65.712L197 159.743C197 163.713 194.86 167.376 191.401 169.325L107.401 216.671C104.048 218.561 99.9517 218.561 96.5989 216.671Z" stroke="#FFC946" stroke-width="10"/>
</g>
<path d="M60.7937 106.23H56.3641C56.3953 107.027 56.6062 107.788 56.9969 108.515C57.3875 109.234 57.9539 109.874 58.6961 110.437C59.4461 110.999 60.3406 111.433 61.3797 111.738L60.1375 113.777C58.95 113.425 57.9266 112.898 57.0672 112.195C56.2078 111.492 55.5398 110.66 55.0633 109.699C54.5867 110.753 53.907 111.663 53.0242 112.429C52.1492 113.195 51.0984 113.769 49.8719 114.152L48.5359 112.113C49.6062 111.792 50.5242 111.335 51.2898 110.742C52.0555 110.148 52.6414 109.464 53.0476 108.691C53.4539 107.91 53.6766 107.089 53.7156 106.23H49.2625V104.097H60.7937V106.23ZM48.3484 117.175C50.6531 117.175 52.45 117.16 53.7391 117.128V113.261H56.3406V117.035C58.2312 116.949 59.9344 116.8 61.45 116.589L61.6375 118.464C60.3016 118.714 58.907 118.902 57.4539 119.027C56.0086 119.152 54.6648 119.23 53.4226 119.261C52.1805 119.285 50.7195 119.3 49.0398 119.308H48.7L48.3484 117.175ZM62.6687 102.292H65.2703V110.8H68.3406V112.98H65.2703V123.48H62.6687V102.292ZM77.0359 105.644C77.0359 106.566 77.2234 107.449 77.5984 108.292C77.9812 109.128 78.5437 109.874 79.2859 110.531C80.0359 111.179 80.9422 111.675 82.0047 112.019L80.5984 114.105C79.4656 113.706 78.4891 113.124 77.6687 112.359C76.8562 111.593 76.2195 110.691 75.7586 109.652C75.282 110.785 74.6101 111.769 73.743 112.605C72.8836 113.433 71.8562 114.066 70.6609 114.503L69.2547 112.417C70.3719 112.05 71.3172 111.519 72.0906 110.824C72.8641 110.12 73.4422 109.312 73.825 108.398C74.2156 107.476 74.4109 106.503 74.4109 105.48V103.394H77.0359V105.644ZM72.6531 115.91H87.0906V123.48H84.4891V117.972H72.6531V115.91ZM80.2703 106.417H84.4891V102.292H87.0906V114.878H84.4891V108.55H80.2703V106.417ZM98.9031 109.136H102.348V104.238H104.762V118.347H96.4422V104.238H98.9031V109.136ZM102.348 116.238V111.199H98.9031V116.238H102.348ZM106.848 102.667H109.309V110.472H111.559V102.292H114.067V123.48H111.559V112.628H109.309V122.449H106.848V102.667ZM134.13 123.48H131.528V102.292H134.13V123.48ZM116.739 117.456C117.833 116.972 118.782 116.285 119.587 115.394C120.391 114.503 121.005 113.503 121.427 112.394C121.848 111.285 122.059 110.16 122.059 109.019V107.917H117.395V105.831H122.059V102.738H124.637V105.831H129.208V107.917H124.661V109.019C124.653 110.105 124.864 111.183 125.294 112.253C125.723 113.324 126.345 114.288 127.157 115.148C127.977 116.007 128.942 116.667 130.052 117.128L128.622 119.12C127.427 118.613 126.38 117.863 125.481 116.87C124.583 115.878 123.887 114.73 123.395 113.425C122.911 114.808 122.216 116.031 121.309 117.093C120.411 118.148 119.356 118.941 118.145 119.472L116.739 117.456ZM154.473 113.988H148.192V118.839H156.63V120.972H137.27V118.839H145.614V113.988H139.614V103.863H154.309V105.949H142.216V111.925H154.473V113.988Z" fill="#555555"/>
<defs>
<filter id="filter0_di_860_10782" x="0" y="0.366577" width="208" height="228.722" filterUnits="userSpaceOnUse" color-interpolation-filters="sRGB">
<feFlood flood-opacity="0" result="BackgroundImageFix"/>
<feColorMatrix in="SourceAlpha" type="matrix" values="0 0 0 0 0 0 0 0 0 0 0 0 0 0 0 0 0 0 127 0" result="hardAlpha"/>
<feOffset dx="2" dy="2"/>
<feGaussianBlur stdDeviation="2"/>
<feColorMatrix type="matrix" values="0 0 0 0 0 0 0 0 0 0 0 0 0 0 0 0 0 0 0.25 0"/>
<feBlend mode="normal" in2="BackgroundImageFix" result="effect1_dropShadow_860_10782"/>
<feBlend mode="normal" in="SourceGraphic" in2="effect1_dropShadow_860_10782" result="shape"/>
<feColorMatrix in="SourceAlpha" type="matrix" values="0 0 0 0 0 0 0 0 0 0 0 0 0 0 0 0 0 0 127 0" result="hardAlpha"/>
<feOffset dx="5" dy="5"/>
<feGaussianBlur stdDeviation="1"/>
<feComposite in2="hardAlpha" operator="arithmetic" k2="-1" k3="1"/>
<feColorMatrix type="matrix" values="0 0 0 0 1 0 0 0 0 1 0 0 0 0 1 0 0 0 0.45 0"/>
<feBlend mode="normal" in2="shape" result="effect2_innerShadow_860_10782"/>
</filter>
<linearGradient id="paint0_linear_860_10782" x1="190.636" y1="62.0001" x2="2.70326" y2="165.854" gradientUnits="userSpaceOnUse">
<stop stop-color="#FFC946"/>
<stop offset="1" stop-color="white"/>
</linearGradient>
</defs>
</svg>
