<svg width="236" height="236" viewBox="0 0 236 236" fill="none" xmlns="http://www.w3.org/2000/svg">
<g filter="url(#filter0_di_889_11243)">
<rect x="24" y="20" width="176" height="176" rx="16" fill="#ECFDF5"/>
</g>
<path d="M64.5193 100.464V103.152H71.9113V100.464H64.5193ZM64.2633 106.512V109.232H71.7193V106.512H64.2633ZM71.3673 95.408V112.624H74.7273V95.408H71.3673ZM62.0553 97.52V99.056C62.0553 104.176 58.2473 108.208 50.7913 110.256L52.1353 112.912C60.7433 110.448 65.6073 105.232 65.6073 97.52H62.0553ZM52.3593 97.52V100.208H64.3593V97.52H52.3593ZM65.1273 112.976C59.2073 112.976 55.3673 115.152 55.3673 118.736C55.3673 122.32 59.2073 124.528 65.1273 124.528C71.0473 124.528 74.8873 122.32 74.8873 118.736C74.8873 115.152 71.0473 112.976 65.1273 112.976ZM65.1273 115.568C69.1273 115.568 71.5913 116.72 71.5913 118.736C71.5913 120.752 69.1273 121.872 65.1273 121.872C61.1593 121.872 58.6633 120.752 58.6633 118.736C58.6633 116.72 61.1593 115.568 65.1273 115.568ZM93.0608 99.44V102.16H101.861V99.44H93.0608ZM93.0608 106.064V108.784H101.861V106.064H93.0608ZM87.9408 97.072C83.5888 97.072 80.3248 100.016 80.3248 104.112C80.3248 108.208 83.5888 111.152 87.9408 111.152C92.2608 111.152 95.5568 108.208 95.5568 104.112C95.5568 100.016 92.2608 97.072 87.9408 97.072ZM87.9408 99.92C90.4688 99.92 92.3568 101.552 92.3568 104.112C92.3568 106.64 90.4688 108.304 87.9408 108.304C85.4128 108.304 83.5248 106.64 83.5248 104.112C83.5248 101.552 85.4128 99.92 87.9408 99.92ZM100.805 95.408V112.624H104.165V95.408H100.805ZM94.4048 113.296C88.3248 113.296 84.5488 115.376 84.5488 118.96C84.5488 122.544 88.3248 124.624 94.4048 124.624C100.485 124.624 104.261 122.544 104.261 118.96C104.261 115.376 100.485 113.296 94.4048 113.296ZM94.4048 115.888C98.5648 115.888 100.965 116.976 100.965 118.96C100.965 120.912 98.5648 122 94.4048 122C90.2448 122 87.8448 120.912 87.8448 118.96C87.8448 116.976 90.2448 115.888 94.4048 115.888ZM123.99 99.792V103.888C123.99 108.88 120.95 114.352 116.438 116.432L118.358 119.088C123.382 116.688 126.678 110.32 126.678 103.888V99.792H123.99ZM124.694 99.792V103.888C124.694 110.16 127.99 116.08 133.078 118.352L134.934 115.696C130.358 113.776 127.35 108.72 127.35 103.888V99.792H124.694ZM117.494 98.32V101.104H133.846V98.32H117.494ZM137.27 95.408V124.656H140.63V95.408H137.27ZM153.971 110.256V116.72H157.331V110.256H153.971ZM166.867 95.408V117.616H170.227V95.408H166.867ZM149.779 121.36V124.08H170.899V121.36H149.779ZM149.779 115.472V122.096H153.139V115.472H149.779ZM146.291 111.376C151.571 111.376 158.547 111.248 164.819 110.224L164.595 107.792C158.419 108.592 151.219 108.656 145.843 108.656L146.291 111.376ZM161.107 112.56V114.928H167.667V112.56H161.107ZM155.315 96.528C151.027 96.528 148.083 98.576 148.083 101.68C148.083 104.784 151.027 106.8 155.315 106.8C159.571 106.8 162.547 104.784 162.547 101.68C162.547 98.576 159.571 96.528 155.315 96.528ZM155.315 98.992C157.683 98.992 159.347 99.984 159.347 101.68C159.347 103.344 157.683 104.336 155.315 104.336C152.915 104.336 151.251 103.344 151.251 101.68C151.251 99.984 152.915 98.992 155.315 98.992Z" fill="#059669"/>
<defs>
<filter id="filter0_di_889_11243" x="0" y="0" width="236" height="236" filterUnits="userSpaceOnUse" color-interpolation-filters="sRGB">
<feFlood flood-opacity="0" result="BackgroundImageFix"/>
<feColorMatrix in="SourceAlpha" type="matrix" values="0 0 0 0 0 0 0 0 0 0 0 0 0 0 0 0 0 0 127 0" result="hardAlpha"/>
<feOffset dx="6" dy="10"/>
<feGaussianBlur stdDeviation="15"/>
<feColorMatrix type="matrix" values="0 0 0 0 0.725 0 0 0 0 0.725 0 0 0 0 0.725 0 0 0 0.25 0"/>
<feBlend mode="normal" in2="BackgroundImageFix" result="effect1_dropShadow_889_11243"/>
<feBlend mode="normal" in="SourceGraphic" in2="effect1_dropShadow_889_11243" result="shape"/>
<feColorMatrix in="SourceAlpha" type="matrix" values="0 0 0 0 0 0 0 0 0 0 0 0 0 0 0 0 0 0 127 0" result="hardAlpha"/>
<feOffset dx="8" dy="8"/>
<feGaussianBlur stdDeviation="2"/>
<feComposite in2="hardAlpha" operator="arithmetic" k2="-1" k3="1"/>
<feColorMatrix type="matrix" values="0 0 0 0 1 0 0 0 0 1 0 0 0 0 1 0 0 0 0.2 0"/>
<feBlend mode="normal" in2="shape" result="effect2_innerShadow_889_11243"/>
</filter>
</defs>
</svg>
