<svg width="236" height="236" viewBox="0 0 236 236" fill="none" xmlns="http://www.w3.org/2000/svg">
<g filter="url(#filter0_di_881_11098)">
<rect x="24" y="20" width="176" height="176" rx="16" fill="#FEFAED"/>
</g>
<path d="M63.5593 113.744C57.3193 113.744 53.3193 115.792 53.3193 119.216C53.3193 122.576 57.3193 124.624 63.5593 124.624C69.8313 124.624 73.8313 122.576 73.8313 119.216C73.8313 115.792 69.8313 113.744 63.5593 113.744ZM63.5593 116.304C67.8793 116.304 70.5033 117.36 70.5033 119.216C70.5033 121.008 67.8793 122.064 63.5593 122.064C59.2713 122.064 56.6473 121.008 56.6473 119.216C56.6473 117.36 59.2713 116.304 63.5593 116.304ZM53.5753 96.816V99.472H72.2633V96.816H53.5753ZM50.5353 108.784V111.44H76.8713V108.784H50.5353ZM60.8713 103.376V109.488H64.1993V103.376H60.8713ZM70.3113 96.816V99.248C70.3113 101.52 70.3113 103.664 69.5113 106.672L72.8393 107.024C73.6393 104.016 73.6393 101.584 73.6393 99.248V96.816H70.3113ZM99.3648 95.408V116.592H102.757V95.408H99.3648ZM101.765 103.952V106.736H106.885V103.952H101.765ZM91.3328 97.648V99.216C91.3328 104.4 87.1088 108.656 79.8448 110.8L81.2528 113.488C89.7968 110.896 94.8848 105.36 94.8848 97.648H91.3328ZM81.0608 97.648V100.368H93.0928V97.648H81.0608ZM84.2288 121.36V124.08H103.909V121.36H84.2288ZM84.2288 114.448V122.512H87.5888V114.448H84.2288ZM118.006 97.616V100.336H130.742V97.616H118.006ZM122.07 104.272V111.568H125.366V104.272H122.07ZM129.43 97.616V99.28C129.43 101.232 129.43 103.824 128.726 107.568L131.99 107.92C132.726 104.176 132.726 101.264 132.726 99.28V97.616H129.43ZM136.182 95.408V117.36H139.574V95.408H136.182ZM138.134 104.656V107.44H143.446V104.656H138.134ZM120.63 121.36V124.08H140.502V121.36H120.63ZM120.63 115.376V122.192H123.99V115.376H120.63ZM116.566 113.04C121.654 113.04 128.566 112.912 134.614 111.824L134.39 109.424C128.502 110.256 121.398 110.352 116.246 110.352L116.566 113.04ZM166.771 95.376V124.688H170.131V95.376H166.771ZM147.635 114.992V117.744H150.131C155.283 117.744 159.635 117.552 164.691 116.688L164.339 113.968C159.411 114.8 155.155 114.992 150.131 114.992H147.635ZM147.571 98V100.72H157.811V106.16H147.635V116.016H151.027V108.848H161.203V98H147.571Z" fill="#FFC946"/>
<defs>
<filter id="filter0_di_881_11098" x="0" y="0" width="236" height="236" filterUnits="userSpaceOnUse" color-interpolation-filters="sRGB">
<feFlood flood-opacity="0" result="BackgroundImageFix"/>
<feColorMatrix in="SourceAlpha" type="matrix" values="0 0 0 0 0 0 0 0 0 0 0 0 0 0 0 0 0 0 127 0" result="hardAlpha"/>
<feOffset dx="6" dy="10"/>
<feGaussianBlur stdDeviation="15"/>
<feColorMatrix type="matrix" values="0 0 0 0 0.725 0 0 0 0 0.725 0 0 0 0 0.725 0 0 0 0.25 0"/>
<feBlend mode="normal" in2="BackgroundImageFix" result="effect1_dropShadow_881_11098"/>
<feBlend mode="normal" in="SourceGraphic" in2="effect1_dropShadow_881_11098" result="shape"/>
<feColorMatrix in="SourceAlpha" type="matrix" values="0 0 0 0 0 0 0 0 0 0 0 0 0 0 0 0 0 0 127 0" result="hardAlpha"/>
<feOffset dx="8" dy="8"/>
<feGaussianBlur stdDeviation="2"/>
<feComposite in2="hardAlpha" operator="arithmetic" k2="-1" k3="1"/>
<feColorMatrix type="matrix" values="0 0 0 0 1 0 0 0 0 1 0 0 0 0 1 0 0 0 0.2 0"/>
<feBlend mode="normal" in2="shape" result="effect2_innerShadow_881_11098"/>
</filter>
</defs>
</svg>
