<svg width="236" height="236" viewBox="0 0 236 236" fill="none" xmlns="http://www.w3.org/2000/svg">
<g filter="url(#filter0_di_889_11178)">
<rect x="24" y="20" width="176" height="176" rx="16" fill="#FEF2F2"/>
</g>
<path d="M50.4713 110.128V112.816H76.9673V110.128H50.4713ZM62.3113 111.824V118.288H65.6393V111.824H62.3113ZM53.7993 96.72V107.248H73.5433V96.72H53.7993ZM70.2473 99.376V104.592H57.0953V99.376H70.2473ZM53.7033 121.36V124.08H74.0233V121.36H53.7033ZM53.7033 115.632V122.288H57.0312V115.632H53.7033ZM94.5968 104.976V107.696H102.533V104.976H94.5968ZM87.1408 97.808V102.608C87.1408 108.08 84.3248 113.712 79.7168 115.92L81.8288 118.608C86.8528 116.016 89.8608 109.488 89.8608 102.608V97.808H87.1408ZM87.8128 97.808V102.608C87.8128 109.392 90.7248 115.568 95.7808 118.096L97.7968 115.408C93.2848 113.328 90.5008 108.016 90.5008 102.608V97.808H87.8128ZM100.869 95.376V124.688H104.197V95.376H100.869ZM118.006 97.616V100.336H130.742V97.616H118.006ZM122.07 104.272V111.568H125.366V104.272H122.07ZM129.43 97.616V99.28C129.43 101.232 129.43 103.824 128.726 107.568L131.99 107.92C132.726 104.176 132.726 101.264 132.726 99.28V97.616H129.43ZM136.182 95.408V117.36H139.574V95.408H136.182ZM138.134 104.656V107.44H143.446V104.656H138.134ZM120.63 121.36V124.08H140.502V121.36H120.63ZM120.63 115.376V122.192H123.99V115.376H120.63ZM116.566 113.04C121.654 113.04 128.566 112.912 134.614 111.824L134.39 109.424C128.502 110.256 121.398 110.352 116.246 110.352L116.566 113.04ZM166.771 95.376V124.688H170.131V95.376H166.771ZM147.635 114.992V117.744H150.131C155.283 117.744 159.635 117.552 164.691 116.688L164.339 113.968C159.411 114.8 155.155 114.992 150.131 114.992H147.635ZM147.571 98V100.72H157.811V106.16H147.635V116.016H151.027V108.848H161.203V98H147.571Z" fill="#EF4444"/>
<defs>
<filter id="filter0_di_889_11178" x="0" y="0" width="236" height="236" filterUnits="userSpaceOnUse" color-interpolation-filters="sRGB">
<feFlood flood-opacity="0" result="BackgroundImageFix"/>
<feColorMatrix in="SourceAlpha" type="matrix" values="0 0 0 0 0 0 0 0 0 0 0 0 0 0 0 0 0 0 127 0" result="hardAlpha"/>
<feOffset dx="6" dy="10"/>
<feGaussianBlur stdDeviation="15"/>
<feColorMatrix type="matrix" values="0 0 0 0 0.725 0 0 0 0 0.725 0 0 0 0 0.725 0 0 0 0.25 0"/>
<feBlend mode="normal" in2="BackgroundImageFix" result="effect1_dropShadow_889_11178"/>
<feBlend mode="normal" in="SourceGraphic" in2="effect1_dropShadow_889_11178" result="shape"/>
<feColorMatrix in="SourceAlpha" type="matrix" values="0 0 0 0 0 0 0 0 0 0 0 0 0 0 0 0 0 0 127 0" result="hardAlpha"/>
<feOffset dx="8" dy="8"/>
<feGaussianBlur stdDeviation="2"/>
<feComposite in2="hardAlpha" operator="arithmetic" k2="-1" k3="1"/>
<feColorMatrix type="matrix" values="0 0 0 0 1 0 0 0 0 1 0 0 0 0 1 0 0 0 0.2 0"/>
<feBlend mode="normal" in2="shape" result="effect2_innerShadow_889_11178"/>
</filter>
</defs>
</svg>
