<svg width="236" height="236" viewBox="0 0 236 236" fill="none" xmlns="http://www.w3.org/2000/svg">
<g filter="url(#filter0_di_889_11183)">
<rect x="24" y="20" width="176" height="176" rx="16" fill="#F1F5F9"/>
</g>
<path d="M50.4713 110.128V112.816H76.9673V110.128H50.4713ZM62.3113 111.824V118.288H65.6393V111.824H62.3113ZM53.7993 96.72V107.248H73.5433V96.72H53.7993ZM70.2473 99.376V104.592H57.0953V99.376H70.2473ZM53.7033 121.36V124.08H74.0233V121.36H53.7033ZM53.7033 115.632V122.288H57.0312V115.632H53.7033ZM94.5968 104.976V107.696H102.533V104.976H94.5968ZM87.1408 97.808V102.608C87.1408 108.08 84.3248 113.712 79.7168 115.92L81.8288 118.608C86.8528 116.016 89.8608 109.488 89.8608 102.608V97.808H87.1408ZM87.8128 97.808V102.608C87.8128 109.392 90.7248 115.568 95.7808 118.096L97.7968 115.408C93.2848 113.328 90.5008 108.016 90.5008 102.608V97.808H87.8128ZM100.869 95.376V124.688H104.197V95.376H100.869ZM128.022 96.368V97.872C128.022 101.712 123.67 105.36 117.75 106.192L119.062 108.912C125.814 107.824 130.966 103.472 130.966 97.872V96.368H128.022ZM128.63 96.368V97.872C128.63 103.44 133.782 107.824 140.534 108.912L141.846 106.192C135.926 105.36 131.542 101.648 131.542 97.872V96.368H128.63ZM128.022 113.712V124.656H131.35V113.712H128.022ZM116.566 111.6V114.352H142.998V111.6H116.566ZM147.027 96.656V109.424H160.787V96.656H157.491V100.528H150.355V96.656H147.027ZM150.355 103.088H157.491V106.768H150.355V103.088ZM165.459 95.408V110.384H168.819V95.408H165.459ZM167.411 101.392V104.144H172.915V101.392H167.411ZM149.939 111.664V114.288H165.523V116.72H149.971V123.12H153.299V119.152H168.819V111.664H149.939ZM149.971 121.744V124.4H169.779V121.744H149.971Z" fill="#3460DC"/>
<defs>
<filter id="filter0_di_889_11183" x="0" y="0" width="236" height="236" filterUnits="userSpaceOnUse" color-interpolation-filters="sRGB">
<feFlood flood-opacity="0" result="BackgroundImageFix"/>
<feColorMatrix in="SourceAlpha" type="matrix" values="0 0 0 0 0 0 0 0 0 0 0 0 0 0 0 0 0 0 127 0" result="hardAlpha"/>
<feOffset dx="6" dy="10"/>
<feGaussianBlur stdDeviation="15"/>
<feColorMatrix type="matrix" values="0 0 0 0 0.725 0 0 0 0 0.725 0 0 0 0 0.725 0 0 0 0.25 0"/>
<feBlend mode="normal" in2="BackgroundImageFix" result="effect1_dropShadow_889_11183"/>
<feBlend mode="normal" in="SourceGraphic" in2="effect1_dropShadow_889_11183" result="shape"/>
<feColorMatrix in="SourceAlpha" type="matrix" values="0 0 0 0 0 0 0 0 0 0 0 0 0 0 0 0 0 0 127 0" result="hardAlpha"/>
<feOffset dx="8" dy="8"/>
<feGaussianBlur stdDeviation="2"/>
<feComposite in2="hardAlpha" operator="arithmetic" k2="-1" k3="1"/>
<feColorMatrix type="matrix" values="0 0 0 0 1 0 0 0 0 1 0 0 0 0 1 0 0 0 0.2 0"/>
<feBlend mode="normal" in2="shape" result="effect2_innerShadow_889_11183"/>
</filter>
</defs>
</svg>
