<svg width="236" height="236" viewBox="0 0 236 236" fill="none" xmlns="http://www.w3.org/2000/svg">
<g filter="url(#filter0_di_881_11103)">
<rect x="24" y="20" width="176" height="176" rx="16" fill="#ECFDF5"/>
</g>
<path d="M54.065 110.192V112.912H80.497V110.192H54.065ZM65.617 106.128V110.896H68.945V106.128H65.617ZM57.009 115.408V118.064H73.937V124.656H77.265V115.408H57.009ZM57.521 96.112V107.216H77.105V96.112H73.777V99.088H60.817V96.112H57.521ZM60.817 101.648H73.777V104.56H60.817V101.648ZM104.303 95.376V124.688H107.663V95.376H104.303ZM85.1665 114.992V117.744H87.6625C92.8145 117.744 97.1665 117.552 102.223 116.688L101.871 113.968C96.9425 114.8 92.6865 114.992 87.6625 114.992H85.1665ZM85.1025 98V100.72H95.3425V106.16H85.1665V116.016H88.5585V108.848H98.7345V98H85.1025ZM114.284 98.608V101.264H137.932V98.608H114.284ZM112.972 114.352V117.072H139.468V114.352H112.972ZM124.492 116.656V124.688H127.82V116.656H124.492ZM126.156 102.736C120.044 102.736 116.428 104.496 116.428 107.664C116.428 110.832 120.044 112.624 126.156 112.624C132.268 112.624 135.884 110.832 135.884 107.664C135.884 104.496 132.268 102.736 126.156 102.736ZM126.156 105.232C130.252 105.232 132.428 106.064 132.428 107.664C132.428 109.264 130.252 110.096 126.156 110.096C122.092 110.096 119.916 109.264 119.916 107.664C119.916 106.064 122.092 105.232 126.156 105.232ZM124.492 95.312V100.4H127.82V95.312H124.492ZM148.138 97.2V100.88C148.138 104.176 146.154 107.888 142.218 109.616L143.978 112.208C148.49 110.256 150.762 105.52 150.762 100.88V97.2H148.138ZM148.714 97.2V100.88C148.714 105.392 150.922 109.616 155.274 111.344L157.066 108.784C153.29 107.312 151.37 104.08 151.37 100.88V97.2H148.714ZM163.978 95.44V113.392H167.146V95.44H163.978ZM159.818 102.928V105.648H164.938V102.928H159.818ZM157.738 95.984V112.464H160.874V95.984H157.738ZM157.418 113.936C151.306 113.936 147.53 115.92 147.53 119.28C147.53 122.64 151.306 124.624 157.418 124.624C163.466 124.624 167.306 122.64 167.306 119.28C167.306 115.92 163.466 113.936 157.418 113.936ZM157.418 116.496C161.514 116.496 163.946 117.488 163.946 119.28C163.946 121.072 161.514 122.064 157.418 122.064C153.29 122.064 150.826 121.072 150.826 119.28C150.826 117.488 153.29 116.496 157.418 116.496Z" fill="#059669"/>
<defs>
<filter id="filter0_di_881_11103" x="0" y="0" width="236" height="236" filterUnits="userSpaceOnUse" color-interpolation-filters="sRGB">
<feFlood flood-opacity="0" result="BackgroundImageFix"/>
<feColorMatrix in="SourceAlpha" type="matrix" values="0 0 0 0 0 0 0 0 0 0 0 0 0 0 0 0 0 0 127 0" result="hardAlpha"/>
<feOffset dx="6" dy="10"/>
<feGaussianBlur stdDeviation="15"/>
<feColorMatrix type="matrix" values="0 0 0 0 0.725 0 0 0 0 0.725 0 0 0 0 0.725 0 0 0 0.25 0"/>
<feBlend mode="normal" in2="BackgroundImageFix" result="effect1_dropShadow_881_11103"/>
<feBlend mode="normal" in="SourceGraphic" in2="effect1_dropShadow_881_11103" result="shape"/>
<feColorMatrix in="SourceAlpha" type="matrix" values="0 0 0 0 0 0 0 0 0 0 0 0 0 0 0 0 0 0 127 0" result="hardAlpha"/>
<feOffset dx="8" dy="8"/>
<feGaussianBlur stdDeviation="2"/>
<feComposite in2="hardAlpha" operator="arithmetic" k2="-1" k3="1"/>
<feColorMatrix type="matrix" values="0 0 0 0 1 0 0 0 0 1 0 0 0 0 1 0 0 0 0.2 0"/>
<feBlend mode="normal" in2="shape" result="effect2_innerShadow_881_11103"/>
</filter>
</defs>
</svg>
