<svg width="236" height="236" viewBox="0 0 236 236" fill="none" xmlns="http://www.w3.org/2000/svg">
<g filter="url(#filter0_di_889_11208)">
<rect x="24" y="20" width="176" height="176" rx="16" fill="#FEFAED"/>
</g>
<path d="M57.9273 97.808V102.608C57.9273 108.208 54.9193 113.84 50.2473 115.952L52.2633 118.736C57.5113 116.176 60.6793 109.68 60.6793 102.608V97.808H57.9273ZM58.5673 97.808V102.608C58.5673 109.424 61.7353 115.664 66.8873 118.096L68.8713 115.408C64.2633 113.36 61.2873 107.984 61.2873 102.608V97.808H58.5673ZM71.2073 95.376V124.688H74.5673V95.376H71.2073ZM94.8848 100.24V102.96H102.245V100.24H94.8848ZM100.805 95.408V110.384H104.165V95.408H100.805ZM85.1248 111.76V114.384H100.837V116.688H85.1888V123.248H88.4848V119.152H104.165V111.76H85.1248ZM85.1888 121.648V124.304H105.125V121.648H85.1888ZM86.9488 96.336V98.8C86.9488 102.8 84.4208 106.416 79.8128 107.888L81.5408 110.544C86.7248 108.784 89.6688 104.24 89.6688 98.8V96.336H86.9488ZM87.5568 96.336V98.8C87.5568 103.888 90.4688 108.208 95.4608 109.904L97.1888 107.312C92.8048 105.904 90.2768 102.448 90.2768 98.8V96.336H87.5568ZM118.006 97.616V100.336H130.742V97.616H118.006ZM122.07 104.272V111.568H125.366V104.272H122.07ZM129.43 97.616V99.28C129.43 101.232 129.43 103.824 128.726 107.568L131.99 107.92C132.726 104.176 132.726 101.264 132.726 99.28V97.616H129.43ZM136.182 95.408V117.36H139.574V95.408H136.182ZM138.134 104.656V107.44H143.446V104.656H138.134ZM120.63 121.36V124.08H140.502V121.36H120.63ZM120.63 115.376V122.192H123.99V115.376H120.63ZM116.566 113.04C121.654 113.04 128.566 112.912 134.614 111.824L134.39 109.424C128.502 110.256 121.398 110.352 116.246 110.352L116.566 113.04ZM166.771 95.376V124.688H170.131V95.376H166.771ZM147.635 114.992V117.744H150.131C155.283 117.744 159.635 117.552 164.691 116.688L164.339 113.968C159.411 114.8 155.155 114.992 150.131 114.992H147.635ZM147.571 98V100.72H157.811V106.16H147.635V116.016H151.027V108.848H161.203V98H147.571Z" fill="#FFC946"/>
<defs>
<filter id="filter0_di_889_11208" x="0" y="0" width="236" height="236" filterUnits="userSpaceOnUse" color-interpolation-filters="sRGB">
<feFlood flood-opacity="0" result="BackgroundImageFix"/>
<feColorMatrix in="SourceAlpha" type="matrix" values="0 0 0 0 0 0 0 0 0 0 0 0 0 0 0 0 0 0 127 0" result="hardAlpha"/>
<feOffset dx="6" dy="10"/>
<feGaussianBlur stdDeviation="15"/>
<feColorMatrix type="matrix" values="0 0 0 0 0.725 0 0 0 0 0.725 0 0 0 0 0.725 0 0 0 0.25 0"/>
<feBlend mode="normal" in2="BackgroundImageFix" result="effect1_dropShadow_889_11208"/>
<feBlend mode="normal" in="SourceGraphic" in2="effect1_dropShadow_889_11208" result="shape"/>
<feColorMatrix in="SourceAlpha" type="matrix" values="0 0 0 0 0 0 0 0 0 0 0 0 0 0 0 0 0 0 127 0" result="hardAlpha"/>
<feOffset dx="8" dy="8"/>
<feGaussianBlur stdDeviation="2"/>
<feComposite in2="hardAlpha" operator="arithmetic" k2="-1" k3="1"/>
<feColorMatrix type="matrix" values="0 0 0 0 1 0 0 0 0 1 0 0 0 0 1 0 0 0 0.2 0"/>
<feBlend mode="normal" in2="shape" result="effect2_innerShadow_889_11208"/>
</filter>
</defs>
</svg>
