<svg width="236" height="236" viewBox="0 0 236 236" fill="none" xmlns="http://www.w3.org/2000/svg">
<g filter="url(#filter0_di_889_11173)">
<rect x="24" y="20" width="176" height="176" rx="16" fill="#ECFDF5"/>
</g>
<path d="M80.3358 89.888V96.896H83.6638V89.888H80.3358ZM81.9998 75.136C75.8238 75.136 71.2478 78.24 71.2478 82.976C71.2478 87.744 75.8238 90.816 81.9998 90.816C88.2078 90.816 92.7518 87.744 92.7518 82.976C92.7518 78.24 88.2078 75.136 81.9998 75.136ZM81.9998 77.792C86.3838 77.792 89.4878 79.808 89.4878 82.976C89.4878 86.176 86.3838 88.16 81.9998 88.16C77.6478 88.16 74.5118 86.176 74.5118 82.976C74.5118 79.808 77.6478 77.792 81.9998 77.792ZM68.8158 96.32V99.072H95.3118V96.32H68.8158ZM119.021 73.408V102.656H122.381V73.408H119.021ZM98.9573 76.352V79.04H115.437V76.352H98.9573ZM98.5413 95.68C103.853 95.648 110.733 95.552 116.973 94.496L116.781 92.064C110.669 92.8 103.533 92.896 98.1893 92.896L98.5413 95.68ZM101.869 78.432V93.632H105.133V78.432H101.869ZM109.261 78.432V93.632H112.525V78.432H109.261ZM139.019 75.264V77.472C139.019 82.08 134.347 86.624 128.555 87.68L130.027 90.464C136.619 89.056 141.931 83.808 141.931 77.472V75.264H139.019ZM139.659 75.264V77.472C139.659 83.872 144.971 89.056 151.563 90.464L153.035 87.68C147.243 86.624 142.571 82.144 142.571 77.472V75.264H139.659ZM127.691 96.128V98.88H154.187V96.128H127.691ZM83.5025 131.968V134.656H109.999V131.968H83.5025ZM95.2785 133.696V140.192H98.6705V133.696H95.2785ZM86.7665 143.328V146.08H107.087V143.328H86.7665ZM86.7665 137.44V144.064H90.1265V137.44H86.7665ZM96.7185 118.048C90.4785 118.048 86.3505 120.352 86.3505 124.032C86.3505 127.68 90.4785 129.984 96.7185 129.984C102.959 129.984 107.087 127.68 107.087 124.032C107.087 120.352 102.959 118.048 96.7185 118.048ZM96.7185 120.736C100.847 120.736 103.503 121.952 103.503 124.032C103.503 126.08 100.847 127.264 96.7185 127.264C92.6225 127.264 89.9345 126.08 89.9345 124.032C89.9345 121.952 92.6225 120.736 96.7185 120.736ZM126.092 121.44V124.16H134.892V121.44H126.092ZM126.092 128.064V130.784H134.892V128.064H126.092ZM120.972 119.072C116.62 119.072 113.356 122.016 113.356 126.112C113.356 130.208 116.62 133.152 120.972 133.152C125.292 133.152 128.588 130.208 128.588 126.112C128.588 122.016 125.292 119.072 120.972 119.072ZM120.972 121.92C123.5 121.92 125.388 123.552 125.388 126.112C125.388 128.64 123.5 130.304 120.972 130.304C118.444 130.304 116.556 128.64 116.556 126.112C116.556 123.552 118.444 121.92 120.972 121.92ZM133.836 117.408V134.624H137.196V117.408H133.836ZM127.436 135.296C121.356 135.296 117.58 137.376 117.58 140.96C117.58 144.544 121.356 146.624 127.436 146.624C133.516 146.624 137.292 144.544 137.292 140.96C137.292 137.376 133.516 135.296 127.436 135.296ZM127.436 137.888C131.596 137.888 133.996 138.976 133.996 140.96C133.996 142.912 131.596 144 127.436 144C123.276 144 120.876 142.912 120.876 140.96C120.876 138.976 123.276 137.888 127.436 137.888Z" fill="#059669"/>
<defs>
<filter id="filter0_di_889_11173" x="0" y="0" width="236" height="236" filterUnits="userSpaceOnUse" color-interpolation-filters="sRGB">
<feFlood flood-opacity="0" result="BackgroundImageFix"/>
<feColorMatrix in="SourceAlpha" type="matrix" values="0 0 0 0 0 0 0 0 0 0 0 0 0 0 0 0 0 0 127 0" result="hardAlpha"/>
<feOffset dx="6" dy="10"/>
<feGaussianBlur stdDeviation="15"/>
<feColorMatrix type="matrix" values="0 0 0 0 0.725 0 0 0 0 0.725 0 0 0 0 0.725 0 0 0 0.25 0"/>
<feBlend mode="normal" in2="BackgroundImageFix" result="effect1_dropShadow_889_11173"/>
<feBlend mode="normal" in="SourceGraphic" in2="effect1_dropShadow_889_11173" result="shape"/>
<feColorMatrix in="SourceAlpha" type="matrix" values="0 0 0 0 0 0 0 0 0 0 0 0 0 0 0 0 0 0 127 0" result="hardAlpha"/>
<feOffset dx="8" dy="8"/>
<feGaussianBlur stdDeviation="2"/>
<feComposite in2="hardAlpha" operator="arithmetic" k2="-1" k3="1"/>
<feColorMatrix type="matrix" values="0 0 0 0 1 0 0 0 0 1 0 0 0 0 1 0 0 0 0.2 0"/>
<feBlend mode="normal" in2="shape" result="effect2_innerShadow_889_11173"/>
</filter>
</defs>
</svg>
