<svg width="236" height="236" viewBox="0 0 236 236" fill="none" xmlns="http://www.w3.org/2000/svg">
<g filter="url(#filter0_di_889_11233)">
<rect x="24" y="20" width="176" height="176" rx="16" fill="#FEFAED"/>
</g>
<path d="M58.2153 110.032V116.464H61.6073V110.032H58.2153ZM59.9433 97.232C55.3673 97.232 51.9753 100.112 51.9753 104.24C51.9753 108.368 55.3673 111.248 59.9433 111.248C64.5193 111.248 67.8472 108.368 67.8472 104.24C67.8472 100.112 64.5193 97.232 59.9433 97.232ZM59.9433 100.112C62.5993 100.112 64.5833 101.712 64.5833 104.24C64.5833 106.768 62.5993 108.4 59.9433 108.4C57.2552 108.4 55.2713 106.768 55.2713 104.24C55.2713 101.712 57.2552 100.112 59.9433 100.112ZM71.2073 95.376V124.688H74.5673V95.376H71.2073ZM51.0473 118.544C56.1993 118.544 63.2393 118.512 69.7033 117.264L69.4473 114.832C63.1433 115.76 55.8793 115.824 50.6313 115.824L51.0473 118.544ZM91.2368 98.448V99.536C91.2368 102.992 87.0768 106.32 81.3488 107.088L82.6288 109.712C89.1888 108.72 94.1488 104.72 94.1488 99.536V98.448H91.2368ZM92.1648 98.448V99.536C92.1648 104.72 97.0928 108.72 103.685 109.712L104.933 107.088C99.2368 106.32 95.0448 102.992 95.0448 99.536V98.448H92.1648ZM91.3968 113.712V124.656H94.7248V113.712H91.3968ZM79.9408 111.824V114.544H106.373V111.824H79.9408ZM82.3408 97.072V99.76H103.877V97.072H82.3408ZM118.006 97.616V100.336H130.742V97.616H118.006ZM122.07 104.272V111.568H125.366V104.272H122.07ZM129.43 97.616V99.28C129.43 101.232 129.43 103.824 128.726 107.568L131.99 107.92C132.726 104.176 132.726 101.264 132.726 99.28V97.616H129.43ZM136.182 95.408V117.36H139.574V95.408H136.182ZM138.134 104.656V107.44H143.446V104.656H138.134ZM120.63 121.36V124.08H140.502V121.36H120.63ZM120.63 115.376V122.192H123.99V115.376H120.63ZM116.566 113.04C121.654 113.04 128.566 112.912 134.614 111.824L134.39 109.424C128.502 110.256 121.398 110.352 116.246 110.352L116.566 113.04ZM166.771 95.376V124.688H170.131V95.376H166.771ZM147.635 114.992V117.744H150.131C155.283 117.744 159.635 117.552 164.691 116.688L164.339 113.968C159.411 114.8 155.155 114.992 150.131 114.992H147.635ZM147.571 98V100.72H157.811V106.16H147.635V116.016H151.027V108.848H161.203V98H147.571Z" fill="#FFC946"/>
<defs>
<filter id="filter0_di_889_11233" x="0" y="0" width="236" height="236" filterUnits="userSpaceOnUse" color-interpolation-filters="sRGB">
<feFlood flood-opacity="0" result="BackgroundImageFix"/>
<feColorMatrix in="SourceAlpha" type="matrix" values="0 0 0 0 0 0 0 0 0 0 0 0 0 0 0 0 0 0 127 0" result="hardAlpha"/>
<feOffset dx="6" dy="10"/>
<feGaussianBlur stdDeviation="15"/>
<feColorMatrix type="matrix" values="0 0 0 0 0.725 0 0 0 0 0.725 0 0 0 0 0.725 0 0 0 0.25 0"/>
<feBlend mode="normal" in2="BackgroundImageFix" result="effect1_dropShadow_889_11233"/>
<feBlend mode="normal" in="SourceGraphic" in2="effect1_dropShadow_889_11233" result="shape"/>
<feColorMatrix in="SourceAlpha" type="matrix" values="0 0 0 0 0 0 0 0 0 0 0 0 0 0 0 0 0 0 127 0" result="hardAlpha"/>
<feOffset dx="8" dy="8"/>
<feGaussianBlur stdDeviation="2"/>
<feComposite in2="hardAlpha" operator="arithmetic" k2="-1" k3="1"/>
<feColorMatrix type="matrix" values="0 0 0 0 1 0 0 0 0 1 0 0 0 0 1 0 0 0 0.2 0"/>
<feBlend mode="normal" in2="shape" result="effect2_innerShadow_889_11233"/>
</filter>
</defs>
</svg>
