<svg width="236" height="236" viewBox="0 0 236 236" fill="none" xmlns="http://www.w3.org/2000/svg">
<g filter="url(#filter0_di_889_11203)">
<rect x="24" y="20" width="176" height="176" rx="16" fill="#F1F5F9"/>
</g>
<path d="M58.0233 111.792V123.76H61.3833V111.792H58.0233ZM71.4633 95.408V124.656H74.8553V95.408H71.4633ZM50.7913 113.328C56.1993 113.328 63.1433 113.232 69.6073 112.112L69.4153 109.648C63.1113 110.512 55.8473 110.544 50.3753 110.544L50.7913 113.328ZM65.1912 115.248V117.808H72.2313V115.248H65.1912ZM59.8793 96.752C55.5273 96.752 52.4873 99.12 52.4873 102.608C52.4873 106.128 55.5273 108.464 59.8793 108.464C64.1673 108.464 67.2393 106.128 67.2393 102.608C67.2393 99.12 64.1673 96.752 59.8793 96.752ZM59.8793 99.312C62.3433 99.312 64.1033 100.624 64.1033 102.608C64.1033 104.656 62.3433 105.904 59.8793 105.904C57.3833 105.904 55.6233 104.656 55.6233 102.608C55.6233 100.624 57.3833 99.312 59.8793 99.312ZM83.0128 98.192V100.912H101.509V98.192H83.0128ZM79.9408 118.096V120.88H106.373V118.096H79.9408ZM100.069 98.192V101.712C100.069 105.872 100.069 110.096 98.7568 115.824L102.085 116.144C103.365 110 103.365 105.968 103.365 101.712V98.192H100.069ZM100.837 106.256L82.1808 106.96L82.6288 109.68L100.837 108.752V106.256ZM118.934 96.24V98.8H140.534V96.24H118.934ZM119.094 103.536V106.096H140.374V103.536H119.094ZM123.03 97.232V105.2H126.39V97.232H123.03ZM133.078 97.232V105.2H136.438V97.232H133.078ZM116.534 108.112V110.768H142.966V108.112H116.534ZM119.67 112.912V115.344H136.374V117.392H119.702V122.864H123.03V119.696H139.67V112.912H119.67ZM119.702 121.904V124.4H140.502V121.904H119.702ZM146.003 118.48V121.232H172.499V118.48H146.003ZM157.523 112.528V119.6H160.851V112.528H157.523ZM149.107 97.456V100.144H166.003V104.048H149.171V112.144H152.499V106.704H169.331V97.456H149.107ZM149.171 110.768V113.488H170.003V110.768H149.171Z" fill="#3460DC"/>
<defs>
<filter id="filter0_di_889_11203" x="0" y="0" width="236" height="236" filterUnits="userSpaceOnUse" color-interpolation-filters="sRGB">
<feFlood flood-opacity="0" result="BackgroundImageFix"/>
<feColorMatrix in="SourceAlpha" type="matrix" values="0 0 0 0 0 0 0 0 0 0 0 0 0 0 0 0 0 0 127 0" result="hardAlpha"/>
<feOffset dx="6" dy="10"/>
<feGaussianBlur stdDeviation="15"/>
<feColorMatrix type="matrix" values="0 0 0 0 0.725 0 0 0 0 0.725 0 0 0 0 0.725 0 0 0 0.25 0"/>
<feBlend mode="normal" in2="BackgroundImageFix" result="effect1_dropShadow_889_11203"/>
<feBlend mode="normal" in="SourceGraphic" in2="effect1_dropShadow_889_11203" result="shape"/>
<feColorMatrix in="SourceAlpha" type="matrix" values="0 0 0 0 0 0 0 0 0 0 0 0 0 0 0 0 0 0 127 0" result="hardAlpha"/>
<feOffset dx="8" dy="8"/>
<feGaussianBlur stdDeviation="2"/>
<feComposite in2="hardAlpha" operator="arithmetic" k2="-1" k3="1"/>
<feColorMatrix type="matrix" values="0 0 0 0 1 0 0 0 0 1 0 0 0 0 1 0 0 0 0.2 0"/>
<feBlend mode="normal" in2="shape" result="effect2_innerShadow_889_11203"/>
</filter>
</defs>
</svg>
