<svg width="236" height="236" viewBox="0 0 236 236" fill="none" xmlns="http://www.w3.org/2000/svg">
<g filter="url(#filter0_di_889_11168)">
<rect x="24" y="20" width="176" height="176" rx="16" fill="#FEFAED"/>
</g>
<path d="M57.4153 99.792V103.888C57.4153 108.784 54.4073 114.288 49.9273 116.432L51.8473 119.088C56.7753 116.656 60.0713 110.192 60.0713 103.888V99.792H57.4153ZM58.0873 99.792V103.888C58.0873 109.872 61.2553 115.984 66.1833 118.352L68.0713 115.696C63.5913 113.616 60.7433 108.432 60.7433 103.888V99.792H58.0873ZM51.0153 98.32V101.104H66.9193V98.32H51.0153ZM69.7993 95.408V124.656H73.1593V95.408H69.7993ZM72.3913 106.928V109.712H77.7033V106.928H72.3913ZM86.8208 97.2V100.592C86.8208 104.88 84.3248 108.784 79.6528 110.384L81.4448 113.008C86.6608 111.12 89.6048 106.352 89.6048 100.592V97.2H86.8208ZM87.4608 97.2V100.656C87.4608 105.968 90.3728 110.608 95.4608 112.368L97.1568 109.744C92.7088 108.208 90.1808 104.496 90.1808 100.656V97.2H87.4608ZM99.3968 95.408V116.912H102.757V95.408H99.3968ZM101.765 104.144V106.928H106.885V104.144H101.765ZM84.2928 121.36V124.08H103.941V121.36H84.2928ZM84.2928 114.864V122.736H87.6848V114.864H84.2928ZM118.006 97.616V100.336H130.742V97.616H118.006ZM122.07 104.272V111.568H125.366V104.272H122.07ZM129.43 97.616V99.28C129.43 101.232 129.43 103.824 128.726 107.568L131.99 107.92C132.726 104.176 132.726 101.264 132.726 99.28V97.616H129.43ZM136.182 95.408V117.36H139.574V95.408H136.182ZM138.134 104.656V107.44H143.446V104.656H138.134ZM120.63 121.36V124.08H140.502V121.36H120.63ZM120.63 115.376V122.192H123.99V115.376H120.63ZM116.566 113.04C121.654 113.04 128.566 112.912 134.614 111.824L134.39 109.424C128.502 110.256 121.398 110.352 116.246 110.352L116.566 113.04ZM166.771 95.376V124.688H170.131V95.376H166.771ZM147.635 114.992V117.744H150.131C155.283 117.744 159.635 117.552 164.691 116.688L164.339 113.968C159.411 114.8 155.155 114.992 150.131 114.992H147.635ZM147.571 98V100.72H157.811V106.16H147.635V116.016H151.027V108.848H161.203V98H147.571Z" fill="#FFC946"/>
<defs>
<filter id="filter0_di_889_11168" x="0" y="0" width="236" height="236" filterUnits="userSpaceOnUse" color-interpolation-filters="sRGB">
<feFlood flood-opacity="0" result="BackgroundImageFix"/>
<feColorMatrix in="SourceAlpha" type="matrix" values="0 0 0 0 0 0 0 0 0 0 0 0 0 0 0 0 0 0 127 0" result="hardAlpha"/>
<feOffset dx="6" dy="10"/>
<feGaussianBlur stdDeviation="15"/>
<feColorMatrix type="matrix" values="0 0 0 0 0.725 0 0 0 0 0.725 0 0 0 0 0.725 0 0 0 0.25 0"/>
<feBlend mode="normal" in2="BackgroundImageFix" result="effect1_dropShadow_889_11168"/>
<feBlend mode="normal" in="SourceGraphic" in2="effect1_dropShadow_889_11168" result="shape"/>
<feColorMatrix in="SourceAlpha" type="matrix" values="0 0 0 0 0 0 0 0 0 0 0 0 0 0 0 0 0 0 127 0" result="hardAlpha"/>
<feOffset dx="8" dy="8"/>
<feGaussianBlur stdDeviation="2"/>
<feComposite in2="hardAlpha" operator="arithmetic" k2="-1" k3="1"/>
<feColorMatrix type="matrix" values="0 0 0 0 1 0 0 0 0 1 0 0 0 0 1 0 0 0 0.2 0"/>
<feBlend mode="normal" in2="shape" result="effect2_innerShadow_889_11168"/>
</filter>
</defs>
</svg>
