<svg width="236" height="236" viewBox="0 0 236 236" fill="none" xmlns="http://www.w3.org/2000/svg">
<g filter="url(#filter0_di_880_11082)">
<rect x="24" y="20" width="176" height="176" rx="16" fill="#F1F5F9"/>
</g>
<path d="M66.0553 103.248V105.968H73.1913V103.248H66.0553ZM71.3673 95.44V116.816H74.7273V95.44H71.3673ZM55.7833 121.36V124.08H75.4633V121.36H55.7833ZM55.7833 114.96V122.864H59.1113V114.96H55.7833ZM57.6393 99.152V101.264C57.6393 105.232 55.0153 109.072 50.4713 110.64L52.1673 113.328C57.3833 111.472 60.3593 106.672 60.3593 101.264V99.152H57.6393ZM58.3113 99.152V101.264C58.3113 106.32 61.1593 110.928 66.2153 112.688L67.8793 110.064C63.4953 108.528 60.9993 104.88 60.9993 101.264V99.152H58.3113ZM51.4313 97.616V100.304H67.1112V97.616H51.4313ZM86.8528 99.792V103.888C86.8528 108.784 83.8448 114.288 79.3648 116.432L81.2848 119.088C86.2128 116.656 89.5088 110.192 89.5088 103.888V99.792H86.8528ZM87.5248 99.792V103.888C87.5248 109.872 90.6928 115.984 95.6208 118.352L97.5088 115.696C93.0288 113.616 90.1808 108.432 90.1808 103.888V99.792H87.5248ZM80.4528 98.32V101.104H96.3568V98.32H80.4528ZM99.2368 95.408V124.656H102.597V95.408H99.2368ZM101.829 106.928V109.712H107.141V106.928H101.829ZM124.022 98.416V100.528C124.022 104.464 121.43 108.272 116.822 109.84L118.55 112.432C123.766 110.672 126.806 105.968 126.806 100.528V98.416H124.022ZM124.694 98.416V100.528C124.694 105.712 127.734 110.224 132.886 111.92L134.582 109.296C130.07 107.824 127.446 104.272 127.446 100.528V98.416H124.694ZM137.302 95.408V113.072H140.662V95.408H137.302ZM120.95 114.512V117.2H137.302V124.656H140.662V114.512H120.95ZM117.718 97.296V99.984H133.686V97.296H117.718ZM166.739 95.44V116.624H170.099V95.44H166.739ZM150.995 121.36V124.08H170.931V121.36H150.995ZM150.995 114.48V122.384H154.355V114.48H150.995ZM154.323 97.392C149.907 97.392 146.547 100.4 146.547 104.688C146.547 108.912 149.907 111.984 154.323 111.984C158.739 111.984 162.067 108.912 162.067 104.688C162.067 100.4 158.739 97.392 154.323 97.392ZM154.323 100.272C156.883 100.272 158.803 102 158.803 104.688C158.803 107.312 156.883 109.04 154.323 109.04C151.763 109.04 149.811 107.312 149.811 104.688C149.811 102 151.763 100.272 154.323 100.272Z" fill="#3460DC"/>
<defs>
<filter id="filter0_di_880_11082" x="0" y="0" width="236" height="236" filterUnits="userSpaceOnUse" color-interpolation-filters="sRGB">
<feFlood flood-opacity="0" result="BackgroundImageFix"/>
<feColorMatrix in="SourceAlpha" type="matrix" values="0 0 0 0 0 0 0 0 0 0 0 0 0 0 0 0 0 0 127 0" result="hardAlpha"/>
<feOffset dx="6" dy="10"/>
<feGaussianBlur stdDeviation="15"/>
<feColorMatrix type="matrix" values="0 0 0 0 0.725 0 0 0 0 0.725 0 0 0 0 0.725 0 0 0 0.25 0"/>
<feBlend mode="normal" in2="BackgroundImageFix" result="effect1_dropShadow_880_11082"/>
<feBlend mode="normal" in="SourceGraphic" in2="effect1_dropShadow_880_11082" result="shape"/>
<feColorMatrix in="SourceAlpha" type="matrix" values="0 0 0 0 0 0 0 0 0 0 0 0 0 0 0 0 0 0 127 0" result="hardAlpha"/>
<feOffset dx="8" dy="8"/>
<feGaussianBlur stdDeviation="2"/>
<feComposite in2="hardAlpha" operator="arithmetic" k2="-1" k3="1"/>
<feColorMatrix type="matrix" values="0 0 0 0 1 0 0 0 0 1 0 0 0 0 1 0 0 0 0.2 0"/>
<feBlend mode="normal" in2="shape" result="effect2_innerShadow_880_11082"/>
</filter>
</defs>
</svg>
