<svg width="236" height="236" viewBox="0 0 236 236" fill="none" xmlns="http://www.w3.org/2000/svg">
<g filter="url(#filter0_di_889_11213)">
<rect x="24" y="20" width="176" height="176" rx="16" fill="#ECFDF5"/>
</g>
<path d="M90.6385 76.896V78.56C90.6385 82.304 88.0145 85.728 83.5025 87.104L85.1665 89.728C90.3185 88.096 93.3585 83.744 93.3585 78.56V76.896H90.6385ZM91.2785 76.896V78.56C91.2785 83.488 94.2545 87.648 99.3745 89.216L100.975 86.624C96.5265 85.28 94.0305 82.048 94.0305 78.56V76.896H91.2785ZM84.4625 75.936V78.688H100.175V75.936H84.4625ZM90.6705 88.48V95.072H93.9985V88.48H90.6705ZM105.263 85.28V88.064H110.543V85.28H105.263ZM102.895 73.408V102.656H106.255V73.408H102.895ZM83.5985 96.8C88.5905 96.8 95.2785 96.8 101.455 95.68L101.199 93.216C95.2785 94.048 88.2705 94.048 83.1825 94.048L83.5985 96.8ZM127.916 79.232V81.984H134.412V79.232H127.916ZM119.98 74.912V77.824C119.98 82.048 117.516 85.952 112.876 87.552L114.668 90.208C119.852 88.32 122.732 83.52 122.732 77.824V74.912H119.98ZM120.62 74.912V78.016C120.62 83.264 123.468 87.84 128.428 89.632L130.188 87.008C125.836 85.504 123.34 81.856 123.34 78.016V74.912H120.62ZM117.484 92.224V94.912H133.836V102.656H137.196V92.224H117.484ZM133.836 73.408V90.752H137.196V73.408H133.836ZM69.7438 120.096V139.52H81.0718V120.096H77.9678V126.976H72.9118V120.096H69.7438ZM72.9118 129.632H77.9678V136.8H72.9118V129.632ZM90.5758 117.408V146.656H93.7758V117.408H90.5758ZM86.3518 128.8V131.52H91.6318V128.8H86.3518ZM84.1118 117.952V145.248H87.2798V117.952H84.1118ZM118.957 117.408V146.656H122.349V117.408H118.957ZM105.933 124.64V126.72C105.933 131.52 103.117 136.48 98.6053 138.528L100.429 141.12C105.421 138.816 108.621 132.928 108.621 126.72V124.64H105.933ZM106.637 124.64V126.72C106.637 132.736 109.869 138.432 114.893 140.608L116.717 138.048C112.141 136.064 109.261 131.296 109.261 126.72V124.64H106.637ZM99.4693 122.336V125.024H115.629V122.336H99.4693ZM105.933 118.016V123.776H109.293V118.016H105.933ZM130.923 130.784V133.504H151.211V130.784H130.923ZM127.691 140.384V143.168H154.187V140.384H127.691ZM139.211 132V141.376H142.539V132H139.211ZM130.923 119.584V131.968H134.251V122.304H150.955V119.584H130.923Z" fill="#059669"/>
<defs>
<filter id="filter0_di_889_11213" x="0" y="0" width="236" height="236" filterUnits="userSpaceOnUse" color-interpolation-filters="sRGB">
<feFlood flood-opacity="0" result="BackgroundImageFix"/>
<feColorMatrix in="SourceAlpha" type="matrix" values="0 0 0 0 0 0 0 0 0 0 0 0 0 0 0 0 0 0 127 0" result="hardAlpha"/>
<feOffset dx="6" dy="10"/>
<feGaussianBlur stdDeviation="15"/>
<feColorMatrix type="matrix" values="0 0 0 0 0.725 0 0 0 0 0.725 0 0 0 0 0.725 0 0 0 0.25 0"/>
<feBlend mode="normal" in2="BackgroundImageFix" result="effect1_dropShadow_889_11213"/>
<feBlend mode="normal" in="SourceGraphic" in2="effect1_dropShadow_889_11213" result="shape"/>
<feColorMatrix in="SourceAlpha" type="matrix" values="0 0 0 0 0 0 0 0 0 0 0 0 0 0 0 0 0 0 127 0" result="hardAlpha"/>
<feOffset dx="8" dy="8"/>
<feGaussianBlur stdDeviation="2"/>
<feComposite in2="hardAlpha" operator="arithmetic" k2="-1" k3="1"/>
<feColorMatrix type="matrix" values="0 0 0 0 1 0 0 0 0 1 0 0 0 0 1 0 0 0 0.2 0"/>
<feBlend mode="normal" in2="shape" result="effect2_innerShadow_889_11213"/>
</filter>
</defs>
</svg>
