<svg width="236" height="236" viewBox="0 0 236 236" fill="none" xmlns="http://www.w3.org/2000/svg">
<g filter="url(#filter0_di_889_11193)">
<rect x="24" y="20" width="176" height="176" rx="16" fill="#ECFDF5"/>
</g>
<path d="M61.7993 98.448V99.536C61.7993 102.992 57.6393 106.32 51.9113 107.088L53.1913 109.712C59.7513 108.72 64.7113 104.72 64.7113 99.536V98.448H61.7993ZM62.7273 98.448V99.536C62.7273 104.72 67.6553 108.72 74.2473 109.712L75.4953 107.088C69.7993 106.32 65.6073 102.992 65.6073 99.536V98.448H62.7273ZM61.9593 113.712V124.656H65.2873V113.712H61.9593ZM50.5033 111.824V114.544H76.9353V111.824H50.5033ZM52.9033 97.072V99.76H74.4393V97.072H52.9033ZM86.7248 102.64V104.72C86.7248 109.456 84.0368 114.416 79.5247 116.528L81.3808 119.12C86.3088 116.784 89.3488 110.864 89.3488 104.72V102.64H86.7248ZM87.4288 102.64V104.72C87.4288 110.544 90.2768 116.272 95.1088 118.576L96.9328 116.048C92.5808 113.904 90.0208 109.168 90.0208 104.72V102.64H87.4288ZM80.4208 100.336V103.024H96.2288V100.336H80.4208ZM86.6927 96.016V101.776H90.0528V96.016H86.6927ZM99.2368 95.408V124.656H102.597V95.408H99.2368ZM101.829 107.12V109.904H107.141V107.12H101.829ZM137.302 95.44V116.816H140.662V95.44H137.302ZM121.558 121.36V124.08H141.494V121.36H121.558ZM121.558 114.8V122.704H124.918V114.8H121.558ZM123.83 97.04V99.952C123.83 104.176 121.302 108.368 116.662 110.064L118.39 112.752C123.638 110.768 126.614 105.648 126.614 99.952V97.04H123.83ZM124.47 97.04V99.952C124.47 105.552 127.414 110.352 132.566 112.208L134.294 109.552C129.75 107.984 127.222 104.08 127.222 99.952V97.04H124.47ZM152.947 100.464V101.616C152.947 105.296 150.419 108.752 145.939 110.128L147.539 112.752C152.723 111.12 155.667 106.704 155.667 101.616V100.464H152.947ZM153.555 100.464V101.616C153.555 106.416 156.627 110.512 161.875 112.016L163.379 109.392C158.899 108.144 156.307 104.976 156.307 101.616V100.464H153.555ZM146.803 98.704V101.392H162.451V98.704H146.803ZM152.947 95.28V99.728H156.307V95.28H152.947ZM161.587 103.504V106.224H167.731V103.504H161.587ZM166.867 95.408V113.104H170.227V95.408H166.867ZM160.467 113.744C154.355 113.744 150.611 115.728 150.611 119.184C150.611 122.608 154.355 124.624 160.467 124.624C166.579 124.624 170.323 122.608 170.323 119.184C170.323 115.728 166.579 113.744 160.467 113.744ZM160.467 116.336C164.627 116.336 166.995 117.328 166.995 119.184C166.995 121.008 164.627 122.032 160.467 122.032C156.307 122.032 153.939 121.008 153.939 119.184C153.939 117.328 156.307 116.336 160.467 116.336Z" fill="#059669"/>
<defs>
<filter id="filter0_di_889_11193" x="0" y="0" width="236" height="236" filterUnits="userSpaceOnUse" color-interpolation-filters="sRGB">
<feFlood flood-opacity="0" result="BackgroundImageFix"/>
<feColorMatrix in="SourceAlpha" type="matrix" values="0 0 0 0 0 0 0 0 0 0 0 0 0 0 0 0 0 0 127 0" result="hardAlpha"/>
<feOffset dx="6" dy="10"/>
<feGaussianBlur stdDeviation="15"/>
<feColorMatrix type="matrix" values="0 0 0 0 0.725 0 0 0 0 0.725 0 0 0 0 0.725 0 0 0 0.25 0"/>
<feBlend mode="normal" in2="BackgroundImageFix" result="effect1_dropShadow_889_11193"/>
<feBlend mode="normal" in="SourceGraphic" in2="effect1_dropShadow_889_11193" result="shape"/>
<feColorMatrix in="SourceAlpha" type="matrix" values="0 0 0 0 0 0 0 0 0 0 0 0 0 0 0 0 0 0 127 0" result="hardAlpha"/>
<feOffset dx="8" dy="8"/>
<feGaussianBlur stdDeviation="2"/>
<feComposite in2="hardAlpha" operator="arithmetic" k2="-1" k3="1"/>
<feColorMatrix type="matrix" values="0 0 0 0 1 0 0 0 0 1 0 0 0 0 1 0 0 0 0.2 0"/>
<feBlend mode="normal" in2="shape" result="effect2_innerShadow_889_11193"/>
</filter>
</defs>
</svg>
