<svg width="236" height="236" viewBox="0 0 236 236" fill="none" xmlns="http://www.w3.org/2000/svg">
<g filter="url(#filter0_di_889_11188)">
<rect x="24" y="20" width="176" height="176" rx="16" fill="#FEFAED"/>
</g>
<path d="M54.5095 99.5H58.2535V90.572H61.8055C66.9255 90.572 70.6695 88.236 70.6695 83.084C70.6695 77.74 66.9255 75.948 61.6775 75.948H54.5095V99.5ZM58.2535 87.596V78.956H61.2935C65.0695 78.956 66.9895 79.948 66.9895 83.084C66.9895 86.156 65.1975 87.596 61.4535 87.596H58.2535ZM74.9395 99.5H78.6515V88.556C79.7395 85.772 81.4675 84.748 82.8755 84.748C83.6115 84.748 84.0595 84.844 84.6675 85.036L85.3075 81.836C84.7635 81.58 84.2195 81.452 83.3555 81.452C81.4675 81.452 79.6115 82.796 78.3635 85.068H78.2675L77.9475 81.9H74.9395V99.5ZM94.6053 99.948C98.9573 99.948 102.893 96.556 102.893 90.732C102.893 84.844 98.9573 81.452 94.6053 81.452C90.2213 81.452 86.3173 84.844 86.3173 90.732C86.3173 96.556 90.2213 99.948 94.6053 99.948ZM94.6053 96.908C91.8213 96.908 90.1253 94.444 90.1253 90.732C90.1253 86.988 91.8213 84.524 94.6053 84.524C97.3573 84.524 99.1173 86.988 99.1173 90.732C99.1173 94.444 97.3573 96.908 94.6053 96.908ZM114.389 99.948C116.437 99.948 118.517 99.18 120.117 97.772L118.613 95.308C117.557 96.204 116.245 96.908 114.773 96.908C111.829 96.908 109.813 94.444 109.813 90.732C109.813 86.988 111.893 84.524 114.901 84.524C116.085 84.524 117.077 85.036 118.037 85.868L119.829 83.5C118.581 82.348 116.949 81.452 114.709 81.452C110.069 81.452 106.005 84.844 106.005 90.732C106.005 96.556 109.653 99.948 114.389 99.948ZM128.936 99.948C131.368 99.948 133.064 98.7 134.664 96.844H134.76L135.048 99.5H138.088V81.9H134.408V94.124C132.936 95.98 131.816 96.748 130.184 96.748C128.104 96.748 127.208 95.564 127.208 92.524V81.9H123.528V92.972C123.528 97.452 125.192 99.948 128.936 99.948ZM143.596 99.5H147.308V88.556C148.396 85.772 150.124 84.748 151.532 84.748C152.268 84.748 152.716 84.844 153.324 85.036L153.964 81.836C153.42 81.58 152.876 81.452 152.012 81.452C150.124 81.452 148.268 82.796 147.02 85.068H146.924L146.604 81.9H143.596V99.5ZM163.55 99.948C165.854 99.948 167.87 99.18 169.502 98.092L168.222 95.724C166.91 96.556 165.598 97.036 164.03 97.036C160.99 97.036 158.878 95.052 158.59 91.692H170.014C170.11 91.244 170.174 90.54 170.174 89.804C170.174 84.812 167.646 81.452 163.006 81.452C158.91 81.452 154.974 85.004 154.974 90.732C154.974 96.524 158.75 99.948 163.55 99.948ZM158.526 89.132C158.91 86.06 160.862 84.364 163.07 84.364C165.63 84.364 166.974 86.092 166.974 89.132H158.526ZM73.7676 143.5H77.4796V131.02C78.8876 129.42 80.2316 128.652 81.4156 128.652C83.4316 128.652 84.3596 129.836 84.3596 132.908V143.5H88.0396V131.02C89.5116 129.42 90.7916 128.652 92.0076 128.652C93.9916 128.652 94.9196 129.836 94.9196 132.908V143.5H98.5996V132.428C98.5996 127.98 96.9036 125.452 93.2236 125.452C91.0156 125.452 89.2236 126.86 87.4636 128.684C86.7276 126.668 85.2556 125.452 82.6316 125.452C80.4556 125.452 78.6956 126.764 77.1916 128.364H77.0956L76.7756 125.9H73.7676V143.5ZM111.315 143.948C113.619 143.948 115.635 143.18 117.267 142.092L115.987 139.724C114.675 140.556 113.363 141.036 111.795 141.036C108.755 141.036 106.643 139.052 106.355 135.692H117.779C117.875 135.244 117.939 134.54 117.939 133.804C117.939 128.812 115.411 125.452 110.771 125.452C106.675 125.452 102.739 129.004 102.739 134.732C102.739 140.524 106.515 143.948 111.315 143.948ZM106.291 133.132C106.675 130.06 108.627 128.364 110.835 128.364C113.395 128.364 114.739 130.092 114.739 133.132H106.291ZM122.08 143.5H125.792V131.02C127.328 129.484 128.448 128.652 130.08 128.652C132.128 128.652 133.024 129.836 133.024 132.908V143.5H136.736V132.428C136.736 127.98 135.072 125.452 131.328 125.452C128.928 125.452 127.104 126.764 125.504 128.364H125.408L125.088 125.9H122.08V143.5ZM147.969 143.948C149.281 143.948 150.465 143.596 151.457 143.276L150.785 140.556C150.241 140.78 149.505 141.004 148.897 141.004C147.073 141.004 146.305 139.884 146.305 137.804V128.844H150.913V125.9H146.305V121.036H143.233L142.817 125.9L140.065 126.092V128.844H142.625V137.772C142.625 141.452 144.033 143.948 147.969 143.948Z" fill="#FFC946"/>
<defs>
<filter id="filter0_di_889_11188" x="0" y="0" width="236" height="236" filterUnits="userSpaceOnUse" color-interpolation-filters="sRGB">
<feFlood flood-opacity="0" result="BackgroundImageFix"/>
<feColorMatrix in="SourceAlpha" type="matrix" values="0 0 0 0 0 0 0 0 0 0 0 0 0 0 0 0 0 0 127 0" result="hardAlpha"/>
<feOffset dx="6" dy="10"/>
<feGaussianBlur stdDeviation="15"/>
<feColorMatrix type="matrix" values="0 0 0 0 0.725 0 0 0 0 0.725 0 0 0 0 0.725 0 0 0 0.25 0"/>
<feBlend mode="normal" in2="BackgroundImageFix" result="effect1_dropShadow_889_11188"/>
<feBlend mode="normal" in="SourceGraphic" in2="effect1_dropShadow_889_11188" result="shape"/>
<feColorMatrix in="SourceAlpha" type="matrix" values="0 0 0 0 0 0 0 0 0 0 0 0 0 0 0 0 0 0 127 0" result="hardAlpha"/>
<feOffset dx="8" dy="8"/>
<feGaussianBlur stdDeviation="2"/>
<feComposite in2="hardAlpha" operator="arithmetic" k2="-1" k3="1"/>
<feColorMatrix type="matrix" values="0 0 0 0 1 0 0 0 0 1 0 0 0 0 1 0 0 0 0.2 0"/>
<feBlend mode="normal" in2="shape" result="effect2_innerShadow_889_11188"/>
</filter>
</defs>
</svg>
