<svg width="236" height="236" viewBox="0 0 236 236" fill="none" xmlns="http://www.w3.org/2000/svg">
<g filter="url(#filter0_di_889_11163)">
<rect x="24" y="20" width="176" height="176" rx="16" fill="#F1F5F9"/>
</g>
<path d="M72.0713 95.408V113.84H75.2393V95.408H72.0713ZM67.8153 103.024V105.776H72.9673V103.024H67.8153ZM65.8953 95.984V112.816H69.0312V95.984H65.8953ZM50.3433 98.672V101.296H64.8713V98.672H50.3433ZM57.6393 102.544C53.9913 102.544 51.3673 104.592 51.3673 107.6C51.3673 110.64 53.9913 112.656 57.6393 112.656C61.3193 112.656 63.9113 110.64 63.9113 107.6C63.9113 104.592 61.3193 102.544 57.6393 102.544ZM57.6393 105.008C59.5913 105.008 60.9033 106 60.9033 107.6C60.9033 109.232 59.5913 110.224 57.6393 110.224C55.6873 110.224 54.3753 109.232 54.3753 107.6C54.3753 106 55.6873 105.008 57.6393 105.008ZM55.9753 95.664V100.336H59.2713V95.664H55.9753ZM65.5113 114.256C59.3353 114.256 55.6233 116.112 55.6233 119.44C55.6233 122.736 59.3353 124.624 65.5113 124.624C71.6873 124.624 75.3993 122.736 75.3993 119.44C75.3993 116.112 71.6873 114.256 65.5113 114.256ZM65.5113 116.784C69.7033 116.784 72.0393 117.68 72.0393 119.44C72.0393 121.168 69.7033 122.096 65.5113 122.096C61.2873 122.096 58.9513 121.168 58.9513 119.44C58.9513 117.68 61.2873 116.784 65.5113 116.784ZM95.6528 102.768V105.52H101.765V102.768H95.6528ZM100.805 95.408V112.816H104.165V95.408H100.805ZM94.4048 113.584C88.2928 113.584 84.5488 115.664 84.5488 119.12C84.5488 122.64 88.2928 124.656 94.4048 124.656C100.517 124.656 104.261 122.64 104.261 119.12C104.261 115.664 100.517 113.584 94.4048 113.584ZM94.4048 116.176C98.5648 116.176 100.933 117.2 100.933 119.12C100.933 121.04 98.5648 122.064 94.4048 122.064C90.2768 122.064 87.8767 121.04 87.8767 119.12C87.8767 117.2 90.2768 116.176 94.4048 116.176ZM87.0768 98.352V100.496C87.0768 104.496 84.4848 108.4 79.9088 110L81.6368 112.656C86.8208 110.8 89.7968 105.968 89.7968 100.496V98.352H87.0768ZM87.7488 98.352V100.464C87.7488 105.52 90.5968 110.128 95.6528 111.888L97.3168 109.232C92.9328 107.728 90.4368 104.112 90.4368 100.464V98.352H87.7488ZM80.8688 97.392V100.08H96.5487V97.392H80.8688ZM118.006 97.616V100.336H130.742V97.616H118.006ZM122.07 104.272V111.568H125.366V104.272H122.07ZM129.43 97.616V99.28C129.43 101.232 129.43 103.824 128.726 107.568L131.99 107.92C132.726 104.176 132.726 101.264 132.726 99.28V97.616H129.43ZM136.182 95.408V117.36H139.574V95.408H136.182ZM138.134 104.656V107.44H143.446V104.656H138.134ZM120.63 121.36V124.08H140.502V121.36H120.63ZM120.63 115.376V122.192H123.99V115.376H120.63ZM116.566 113.04C121.654 113.04 128.566 112.912 134.614 111.824L134.39 109.424C128.502 110.256 121.398 110.352 116.246 110.352L116.566 113.04ZM166.771 95.376V124.688H170.131V95.376H166.771ZM147.635 114.992V117.744H150.131C155.283 117.744 159.635 117.552 164.691 116.688L164.339 113.968C159.411 114.8 155.155 114.992 150.131 114.992H147.635ZM147.571 98V100.72H157.811V106.16H147.635V116.016H151.027V108.848H161.203V98H147.571Z" fill="#3460DC"/>
<defs>
<filter id="filter0_di_889_11163" x="0" y="0" width="236" height="236" filterUnits="userSpaceOnUse" color-interpolation-filters="sRGB">
<feFlood flood-opacity="0" result="BackgroundImageFix"/>
<feColorMatrix in="SourceAlpha" type="matrix" values="0 0 0 0 0 0 0 0 0 0 0 0 0 0 0 0 0 0 127 0" result="hardAlpha"/>
<feOffset dx="6" dy="10"/>
<feGaussianBlur stdDeviation="15"/>
<feColorMatrix type="matrix" values="0 0 0 0 0.725 0 0 0 0 0.725 0 0 0 0 0.725 0 0 0 0.25 0"/>
<feBlend mode="normal" in2="BackgroundImageFix" result="effect1_dropShadow_889_11163"/>
<feBlend mode="normal" in="SourceGraphic" in2="effect1_dropShadow_889_11163" result="shape"/>
<feColorMatrix in="SourceAlpha" type="matrix" values="0 0 0 0 0 0 0 0 0 0 0 0 0 0 0 0 0 0 127 0" result="hardAlpha"/>
<feOffset dx="8" dy="8"/>
<feGaussianBlur stdDeviation="2"/>
<feComposite in2="hardAlpha" operator="arithmetic" k2="-1" k3="1"/>
<feColorMatrix type="matrix" values="0 0 0 0 1 0 0 0 0 1 0 0 0 0 1 0 0 0 0.2 0"/>
<feBlend mode="normal" in2="shape" result="effect2_innerShadow_889_11163"/>
</filter>
</defs>
</svg>
