<svg width="236" height="236" viewBox="0 0 236 236" fill="none" xmlns="http://www.w3.org/2000/svg">
<g filter="url(#filter0_di_889_11248)">
<rect x="24" y="20" width="176" height="176" rx="16" fill="#FEF2F2"/>
</g>
<path d="M73.7198 91.04V95.84H77.0798V91.04H73.7198ZM86.5198 73.408V102.656H89.8798V73.408H86.5198ZM66.3918 97.408C71.6718 97.408 78.6158 97.344 85.0478 96.224L84.8238 93.76C78.5838 94.592 71.3838 94.624 65.9758 94.656L66.3918 97.408ZM66.5518 76.832V79.488H84.2478V76.832H66.5518ZM75.3838 80.928C71.1598 80.928 68.2478 83.104 68.2478 86.368C68.2478 89.664 71.1598 91.808 75.3838 91.808C79.6398 91.808 82.5518 89.664 82.5518 86.368C82.5518 83.104 79.6398 80.928 75.3838 80.928ZM75.3838 83.488C77.7198 83.488 79.3518 84.608 79.3518 86.368C79.3518 88.16 77.7198 89.248 75.3838 89.248C73.0798 89.248 71.4478 88.16 71.4478 86.368C71.4478 84.608 73.0798 83.488 75.3838 83.488ZM73.7198 73.472V78.336H77.0798V73.472H73.7198ZM104.693 75.456C100.117 75.456 96.7253 78.336 96.7253 82.464C96.7253 86.624 100.117 89.504 104.693 89.504C109.269 89.504 112.597 86.624 112.597 82.464C112.597 78.336 109.269 75.456 104.693 75.456ZM104.693 78.336C107.349 78.336 109.333 79.936 109.333 82.464C109.333 84.992 107.349 86.624 104.693 86.624C102.005 86.624 100.021 84.992 100.021 82.464C100.021 79.936 102.005 78.336 104.693 78.336ZM115.957 73.376V102.688H119.317V73.376H115.957ZM95.7973 96.512C100.949 96.512 107.989 96.448 114.453 95.2L114.197 92.768C107.893 93.696 100.629 93.76 95.3813 93.76L95.7973 96.512ZM145.427 73.408V88.384H148.787V73.408H145.427ZM129.619 89.792V92.384H145.459V94.752H129.683V100.736H132.947V97.216H148.787V89.792H129.619ZM129.683 99.744V102.4H149.651V99.744H129.683ZM131.955 74.176V76.384C131.955 80.32 129.331 84.128 124.723 85.632L126.355 88.288C131.635 86.528 134.739 81.792 134.739 76.384V74.176H131.955ZM132.595 74.176V76.384C132.595 81.632 135.635 86.08 140.851 87.744L142.483 85.12C137.971 83.744 135.347 80.192 135.347 76.384V74.176H132.595ZM85.5683 119.616V122.336H98.3043V119.616H85.5683ZM89.6323 126.272V133.568H92.9283V126.272H89.6323ZM96.9923 119.616V121.28C96.9923 123.232 96.9923 125.824 96.2883 129.568L99.5522 129.92C100.288 126.176 100.288 123.264 100.288 121.28V119.616H96.9923ZM103.744 117.408V139.36H107.136V117.408H103.744ZM105.696 126.656V129.44H111.008V126.656H105.696ZM88.1923 143.36V146.08H108.064V143.36H88.1923ZM88.1923 137.376V144.192H91.5523V137.376H88.1923ZM84.1283 135.04C89.2163 135.04 96.1283 134.912 102.176 133.824L101.952 131.424C96.0643 132.256 88.9603 132.352 83.8083 132.352L84.1283 135.04ZM134.334 117.376V146.688H137.694V117.376H134.334ZM115.198 136.992V139.744H117.694C122.846 139.744 127.198 139.552 132.254 138.688L131.902 135.968C126.974 136.8 122.718 136.992 117.694 136.992H115.198ZM115.134 120V122.72H125.374V128.16H115.198V138.016H118.59V130.848H128.766V120H115.134Z" fill="#EF4444"/>
<defs>
<filter id="filter0_di_889_11248" x="0" y="0" width="236" height="236" filterUnits="userSpaceOnUse" color-interpolation-filters="sRGB">
<feFlood flood-opacity="0" result="BackgroundImageFix"/>
<feColorMatrix in="SourceAlpha" type="matrix" values="0 0 0 0 0 0 0 0 0 0 0 0 0 0 0 0 0 0 127 0" result="hardAlpha"/>
<feOffset dx="6" dy="10"/>
<feGaussianBlur stdDeviation="15"/>
<feColorMatrix type="matrix" values="0 0 0 0 0.725 0 0 0 0 0.725 0 0 0 0 0.725 0 0 0 0.25 0"/>
<feBlend mode="normal" in2="BackgroundImageFix" result="effect1_dropShadow_889_11248"/>
<feBlend mode="normal" in="SourceGraphic" in2="effect1_dropShadow_889_11248" result="shape"/>
<feColorMatrix in="SourceAlpha" type="matrix" values="0 0 0 0 0 0 0 0 0 0 0 0 0 0 0 0 0 0 127 0" result="hardAlpha"/>
<feOffset dx="8" dy="8"/>
<feGaussianBlur stdDeviation="2"/>
<feComposite in2="hardAlpha" operator="arithmetic" k2="-1" k3="1"/>
<feColorMatrix type="matrix" values="0 0 0 0 1 0 0 0 0 1 0 0 0 0 1 0 0 0 0.2 0"/>
<feBlend mode="normal" in2="shape" result="effect2_innerShadow_889_11248"/>
</filter>
</defs>
</svg>
